<svg width="1440" height="834" viewBox="0 0 1440 834" xmlns="http://www.w3.org/2000/svg" xmlns:xlink="http://www.w3.org/1999/xlink"><defs><path d="M4 834h1448V437c-70.367 81.914-151.998 118.135-244.893 108.662-217.053-22.132-456.625 133.58-546.433 183.497C501.607 817.57 282.716 821.939 4 742.269V834z" id="a"/><path d="M0 442h1448V0c-70.367 91.199-151.998 131.525-244.893 120.98C986.054 96.337 746.482 269.7 656.674 325.274 497.607 423.708 278.716 428.573 0 339.871V442z" id="b"/></defs><g fill="none" fill-rule="evenodd"><g transform="matrix(-1 0 0 1 1452 0)"><use fill="#FFF" xlink:href="#a"/><use fill="#BED23F" xlink:href="#a"/></g><g transform="matrix(1 0 0 -1 -4 442)"><use fill="#FFF" xlink:href="#b"/><use fill="#2FB9EF" xlink:href="#b"/></g></g></svg>