<svg width="162" height="64" viewBox="0 0 162 64" xmlns="http://www.w3.org/2000/svg"><g fill="none"><path d="M0 40.654h1.166v-6.171c0-.939.105-2.005.411-3.002.612-2.114 1.969-4 4.129-4 .306 0 .64.06.64.06v-1.215s-.392-.089-.803-.089c-2.188 0-3.737 1.807-4.425 4.01h-.067s.115-.514.115-1.176v-2.716H0v14.3zm7.14-7.12c0 4.543 3.24 7.466 7.14 7.466 2.99 0 4.921-1.975 4.921-1.975l-.64-.997s-1.634 1.797-4.291 1.797c-3.212 0-5.926-2.37-5.926-6.518H19.44s.058-.454.058-.77c0-3.456-1.883-6.517-5.649-6.517-3.527 0-6.71 2.686-6.71 7.515zm1.3-1.342c.496-3.348 2.848-5.056 5.4-5.056 2.293 0 4.32 1.57 4.453 5.056H8.44zm13.17 6.744s1.663 2.054 5.008 2.054c2.542 0 4.425-1.57 4.425-3.861 0-4.75-7.608-3.634-7.608-7.347 0-1.856 1.549-2.607 3.126-2.607 2.35 0 3.488 1.343 3.488 1.343l.688-.978s-1.27-1.54-4.1-1.54c-2.351 0-4.425 1.313-4.425 3.861 0 4.661 7.608 3.634 7.608 7.258 0 1.778-1.491 2.686-3.183 2.686-2.743 0-4.291-1.797-4.291-1.797l-.736.928zm11.498-5.51c0 4.256 3.211 7.574 7.168 7.574 3.957 0 7.168-3.318 7.168-7.574 0-4.177-3.211-7.406-7.168-7.406-3.957 0-7.168 3.229-7.168 7.406zm1.214 0c0-3.545 2.657-6.231 5.944-6.231 3.298 0 5.955 2.686 5.955 6.23 0 3.635-2.657 6.41-5.955 6.41-3.287-.01-5.944-2.785-5.944-6.41zm16.42 7.228h1.166v-6.971c0-.692.057-1.343.22-1.946.688-2.656 2.991-4.542 5.59-4.542 3.097 0 3.403 2.35 3.403 4.839v8.63h1.166V31.6c0-3.377-.965-5.58-4.568-5.58-3.46 0-5.4 2.687-5.869 4.03h-.057s.105-.514.105-1.175v-2.519h-1.166v14.3h.01zm14.46-3.801c0 2.863 2.466 4.147 4.703 4.147 3.593 0 4.874-3.515 4.845-3.515h.058s-.105.513-.105 1.283v1.886h1.166v-9.233c0-3.574-1.72-5.401-4.903-5.401-3.02 0-4.674 1.57-4.674 1.57l.66.977s1.548-1.372 3.956-1.372c2.218 0 3.795 1.086 3.795 4.266v.484h-.918c-2.466-.01-8.583.05-8.583 4.908zm1.214-.09c0-3.712 5.037-3.712 7.388-3.712h.89v.77c0 2.834-1.721 6.063-4.732 6.063-2.351 0-3.546-1.6-3.546-3.12zm13.515 3.891h1.166v-6.971c0-.692.057-1.343.22-1.946.697-2.656 2.991-4.542 5.59-4.542 3.098 0 3.403 2.35 3.403 4.839v8.63h1.166V31.6c0-3.377-.965-5.58-4.568-5.58-3.46 0-5.4 2.687-5.869 4.03h-.057s.115-.514.115-1.175v-2.519H79.93v14.3zm14.766-7.12c0 4.543 3.24 7.466 7.14 7.466 3.431 0 5.228-2.232 5.228-2.232l-.612-.997s-1.577 2.054-4.626 2.054c-3.24 0-5.925-2.489-5.925-6.29 0-3.862 2.685-6.35 5.925-6.35 2.657 0 4.234 1.827 4.234 1.827l.717-.968s-1.663-2.034-4.95-2.034c-3.833.01-7.13 2.982-7.13 7.525zm13.945 0c0 4.543 3.24 7.466 7.14 7.466 2.991 0 4.922-1.975 4.922-1.975l-.64-.997s-1.635 1.797-4.292 1.797c-3.211 0-5.926-2.37-5.926-6.518h11.097s.057-.454.057-.77c0-3.456-1.883-6.517-5.649-6.517-3.526 0-6.71 2.686-6.71 7.515zm1.3-1.342c.497-3.348 2.848-5.056 5.4-5.056 2.294 0 4.32 1.57 4.454 5.056h-9.854z" fill="#5C5958"/><path fill="#A4A6A8" d="M119.239 0L110 7.496l1.756 11.495L122.761 23 132 15.514 130.234 4.01z"/><path fill="#FFF" d="M137.763 42l-11.005-4.013L125 26.492 134.237 19l11.005 4.003L147 34.508z"/><path d="M137.769 42l-.124-.047-10.88-3.966-1.765-11.5L134.231 19l11.005 4.013 1.764 11.5L137.769 42zm-10.566-4.354l10.48 3.824 8.812-7.146-1.679-10.96-10.49-3.824-8.811 7.146 1.688 10.96z" fill="#A4A6A8"/><path fill="#00A2CD" d="M140 44.573l1.848 11.5 11 3.927L162 52.427l-1.848-11.5-11-3.927z"/><path fill="#DADADB" d="M116 48.403l2 11.495L129.007 64 138 56.607l-2.01-11.505L124.993 41z"/></g></svg>