<svg width="1440" height="2240" viewBox="0 0 1440 2240" xmlns="http://www.w3.org/2000/svg" xmlns:xlink="http://www.w3.org/1999/xlink"><defs><path d="M131.827 0h1454.427c72.775 0 131.771 58.996 131.771 131.771V1833.23c0 72.775-58.996 131.771-131.77 131.771H131.796C59.02 1965.002.025 1906.006.025 1833.23l.002-.001L.054 131.77C.057 58.997 59.052.002 131.827 0z" id="a"/><path d="M430.855 225.994v523.229c43.638-225.53 166.335-328.866 368.092-310.007 338.114 31.605 253.145-245.274 515.086-212.415 140.427 17.616 251.7-26.577 333.822-132.578H562.627c-72.776 0-131.772 58.996-131.772 131.771z" id="c"/></defs><g fill="none" fill-rule="evenodd"><g transform="translate(-120 -112)"><mask id="b" fill="#fff"><use xlink:href="#a"/></mask><use fill="#EA4C89" xlink:href="#a"/><path d="M19.825 200.389l-33.387 617.72c79.554 186.052 234.817 261.078 465.79 225.08 346.46-53.998 302.325-357.394 756.274-387.6 302.634-20.137 481.279-219.019 535.936-596.647L150.016 75.737c-69.472.732-126.441 55.277-130.191 124.652z" fill="#2FB9EF" mask="url(#b)" transform="rotate(7 865.438 555.442)"/><g mask="url(#b)" transform="matrix(-1 0 0 1 2078.71 0)"><use fill="#FF3C38" xlink:href="#c"/><use fill="#FFC800" xlink:href="#c"/></g></g><path d="M-136 2101.565V1678.11c176.357-142.736 380.022-200.634 610.995-173.694 346.46 40.41 304.076 340.207 753.867 307.287 102.572-7.507 212.942-79.432 290.296-38.411 89.942 47.696 172.624 203.599 248.046 467.708l-1772.003-7.665C-77.35 2233.022-136 2174.118-136 2101.565z" fill="#FFF"/></g></svg>