<svg width="660" height="658" viewBox="0 0 660 658" xmlns="http://www.w3.org/2000/svg"><g fill="none" fill-rule="evenodd"><path d="M92 22.528s8.25-13.25 27.978-11.778c0 0 28.642-22.085 59.185-2.945 0 0 32.467-4.742 56.511 4.106C251.705 17.811 257 24 257 24L92 22.528zM32 220.607s12.15-21.531 41.204-19.139c0 0 42.182-35.887 87.163-4.785 0 0 47.815-7.706 83.226 6.673C267.203 212.943 275 223 275 223l-243-2.393zm180-114.184s13.65-23.188 46.291-20.611c0 0 47.39-38.648 97.924-5.153 0 0 53.718-8.3 93.5 7.186C476.24 98.17 485 109 485 109l-273-2.577z" fill="#F8FCFF"/><path fill="#2B478B" d="M105 229h555v-6H105zm336 204h18v-3h-18z"/><path d="M450 420.667a6.341 6.341 0 00-6.334 6.333 6.34 6.34 0 006.334 6.333 6.34 6.34 0 006.334-6.333 6.341 6.341 0 00-6.334-6.333M450 436c-4.963 0-9-4.037-9-9s4.037-9 9-9 9 4.037 9 9-4.037 9-9 9" fill="#2B478B"/><path d="M402 484c0-24.853 20.147-45 45-45s45 20.147 45 45-20.147 45-45 45-45-20.147-45-45" fill="#F78248"/><path d="M464.92 458.231c-3.664-4.385-3.914-9.835-.556-12.173 3.357-2.336 9.05-.675 12.715 3.711 3.665 4.386 3.915 9.836.557 12.172-3.357 2.337-9.05.676-12.715-3.71" fill="#FFC9A1"/><path d="M447 227.69c-1.07 0-1.939 1.385-1.939 3.087v8.446c0 1.702.87 3.087 1.939 3.087 1.07 0 1.939-1.385 1.939-3.087v-8.446c0-1.702-.87-3.087-1.939-3.087m0 16.31c-1.654 0-3-2.143-3-4.777v-8.446c0-2.634 1.346-4.777 3-4.777s3 2.143 3 4.777v8.446c0 2.634-1.346 4.777-3 4.777m-.735 180h1.47V245h-1.47zM333 433h18v-3h-18z" fill="#2B478B"/><path d="M342 420.667a6.34 6.34 0 00-6.333 6.333 6.34 6.34 0 006.333 6.333 6.34 6.34 0 006.333-6.333 6.34 6.34 0 00-6.333-6.333M342 436c-4.963 0-9-4.037-9-9s4.037-9 9-9 9 4.037 9 9-4.037 9-9 9" fill="#2B478B"/><path d="M303 484c0-24.853 20.147-45 45-45s45 20.147 45 45-20.147 45-45 45-45-20.147-45-45" fill="#F78248"/><path d="M356.92 458.231c-3.664-4.385-3.914-9.835-.556-12.173 3.357-2.336 9.05-.675 12.715 3.711 3.665 4.386 3.915 9.836.557 12.172-3.357 2.337-9.05.676-12.715-3.71" fill="#FFC9A1"/><path d="M345 227.69c-1.07 0-1.939 1.385-1.939 3.087v8.446c0 1.702.87 3.087 1.939 3.087 1.07 0 1.939-1.385 1.939-3.087v-8.446c0-1.702-.87-3.087-1.939-3.087m0 16.31c-1.654 0-3-2.143-3-4.777v-8.446c0-2.634 1.346-4.777 3-4.777s3 2.143 3 4.777v8.446c0 2.634-1.346 4.777-3 4.777m-.735 180h1.47V245h-1.47zm-274.578-3L54 414.252 56.312 409 72 415.748z" fill="#2B478B"/><path d="M65.527 406.193a6.34 6.34 0 00-8.335 3.28 6.34 6.34 0 003.28 8.334 6.34 6.34 0 008.335-3.28 6.34 6.34 0 00-3.28-8.334m-6.118 14.06c-4.551-1.981-6.642-7.294-4.662-11.844 1.98-4.55 7.294-6.642 11.844-4.662 4.551 1.981 6.642 7.294 4.662 11.845-1.98 4.55-7.294 6.64-11.844 4.66" fill="#2B478B"/><path d="M3.748 439.048c9.915-22.783 36.422-33.214 59.205-23.3 22.782 9.915 33.213 36.422 23.299 59.204-9.915 22.783-36.422 33.214-59.205 23.3-22.782-9.916-33.213-36.422-23.299-59.204" fill="#F78248"/><path d="M66.513 448.277c-1.65-5.714.813-11.142 5.5-12.124 4.687-.981 9.824 2.855 11.474 8.57 1.65 5.714-.813 11.142-5.5 12.124-4.687.981-9.825-2.855-11.474-8.57" fill="#FFC9A1"/><path d="M126 227.69c-1.07 0-1.939 1.385-1.939 3.087v8.446c0 1.702.87 3.087 1.939 3.087 1.07 0 1.939-1.385 1.939-3.087v-8.446c0-1.702-.87-3.087-1.939-3.087m0 16.31c-1.654 0-3-2.143-3-4.777v-8.446c0-2.634 1.346-4.777 3-4.777s3 2.143 3 4.777v8.446c0 2.634-1.346 4.777-3 4.777M70.474 409L69 407.998c.107-.254 10.793-25.795 22.906-58.636 11.17-30.288 25.874-73.154 32.478-105.362l1.616.537c-6.637 32.368-21.384 75.367-32.586 105.739-12.13 32.889-22.834 58.47-22.94 58.724l65.273-153.772M569.313 421L585 414.252 582.687 409 567 415.748z" fill="#2B478B"/><path d="M567.193 414.527a6.34 6.34 0 008.334 3.28 6.34 6.34 0 003.28-8.334 6.34 6.34 0 00-8.334-3.28 6.34 6.34 0 00-3.28 8.334m-2.445 1.064c-1.981-4.55.11-9.863 4.66-11.844 4.552-1.98 9.864.11 11.845 4.662 1.98 4.55-.11 9.863-4.662 11.844-4.55 1.98-9.863-.11-11.843-4.662" fill="#2B478B"/><path d="M632.251 439.048c-9.914-22.783-36.42-33.214-59.204-23.3-22.782 9.915-33.213 36.422-23.298 59.204 9.914 22.783 36.42 33.214 59.204 23.3 22.782-9.916 33.213-36.422 23.298-59.204" fill="#F78248"/><path d="M575.487 448.277c1.65-5.714-.813-11.142-5.5-12.124-4.688-.981-9.825 2.855-11.474 8.57-1.65 5.714.813 11.142 5.5 12.124 4.688.981 9.825-2.855 11.474-8.57" fill="#FFC9A1"/><path d="M513 227.69c-1.069 0-1.939 1.385-1.939 3.087v8.446c0 1.702.87 3.087 1.94 3.087 1.068 0 1.938-1.385 1.938-3.087v-8.446c0-1.702-.87-3.087-1.939-3.087m0 16.31c-1.654 0-3-2.143-3-4.777v-8.446c0-2.634 1.346-4.777 3-4.777s3 2.143 3 4.777v8.446c0 2.634-1.346 4.777-3 4.777m52.604 165c-.101-.253-10.24-25.679-21.733-58.368-10.613-30.188-24.583-72.926-30.871-105.098l1.531-.534c3.454 17.671 11.596 50.186 30.773 104.733 11.474 32.64 21.595 58.02 21.696 58.271l-1.396.996z" fill="#2B478B"/><path d="M167.413 372.757c-.026-.71-.568-8.358-12.064-8.757 0 0 5.653.683 6.63 3.201 0 0-3.85-3.112-6.984-2.111-3.135 1.001-4.976 6.567-4.995 8.397-.018 1.83 1.723 7.731 3.713 8.233.754.19 1.622.14 2.41.003a27.624 27.624 0 00-1.544 2.794c-4.588 9.541.143 18.867 4.027 17.837 2.49-.66 3.195 3.646 3.195 3.646L186 386.149s-8.888-18.636-18.587-13.392L130.5 394" fill="#2C3A64"/><path d="M174 653.046L168.892 655s-22.187-31.61-24.919-59.42c-.488-4.965-.325-9.776.73-14.218 0 0-.217-1.272-.596-3.521-.176-1.05-.392-2.314-.638-3.762a11837.65 11837.65 0 00-2.849-16.668c-2.61-15.22-5.993-34.678-8.62-48.982l1.376-.454 14.893-4.935 3.077-10.04 11.09-2.999s2.477 4.978 4.691 28.492c.409 3.085.78 6.486 1.06 10.174.863 11.258.925 25.224-1.056 41.19a221.275 221.275 0 01-1.947 12.641c-.584 3.178-.672 7.51-.426 12.483 1.118 22.735 9.242 58.066 9.242 58.066" fill="#AEC3FF"/><path d="M168 531.296L144.044 580c-.174-1.04-.39-2.29-.635-3.725-.717-4.205-1.705-9.958-2.833-16.509-2.597-15.075-5.962-34.346-8.576-48.513l1.37-.45 14.815-4.887 3.062-9.946 11.032-2.97s2.464 4.93 4.667 28.22c.407 3.054.776 6.423 1.054 10.076" fill="#94B0ED"/><path d="M156 492.972l-.594-4.886c-9.954 2.536-36.55-7.086-36.55-7.086s-9.643 8.13-8.377 27.617c.618 9.511 1.746 49.93 2.925 61.889a354.93 354.93 0 00.955 8.664c.047.376-.09.73-.289 1.059a55.148 55.148 0 00-4.351 8.777C98.147 618.58 111.5 655 111.5 655l3.465-1.34s7.6-40.53 13.774-58.437c1.048-3.037 2.053-5.423 2.974-6.85 2.684-4.155 5.176-10.945 7.437-19.022 4.274-15.268 7.715-35.13 10.004-50.462.316.014 6.845-25.917 6.845-25.917" fill="#AEC3FF"/><path d="M221.316 481s-.305 0-.836-.039c-1.673-.114-5.74-.344-10.339-.842-6.918-.688-15.128-1.913-18.397-3.941-4.98-3.06-13.151-12.437-18.473-21.814a6.152 6.152 0 01-.38-.688c-2.774-4.975-4.713-9.912-4.865-13.853-.114-2.411.152-4.478.646-6.276a16.042 16.042 0 012.813-5.664c.152-.23.304-.46.532-.65 1.824-2.182 3.611-3.1 3.611-3.1.912-.383 1.9.077 2.927 1.186v.038c.836.88 1.748 2.22 2.622 3.904.038.038.077.076.077.115.19.344.38.727.608 1.147.076.077.114.192.152.269.418.88.836 1.798 1.254 2.755 4.675 10.255 9.654 25.793 13.798 30.423 1.786 1.99 9.958 5.894 16.458 8.802a308.082 308.082 0 008.476 3.597l-.684 4.631z" fill="#FFB27D"/><path d="M171 439.327c-2.826 1.42-6.24 2.388-10.368 2.632-15.479.92-18.993-13.79-19.632-23.552 2.231-.876 4.185-.794 5.31-.728a45.2 45.2 0 013.19.314c1.892-1.072 5.294-6.28 7.26-14.993l.667.336 11.169 5.691s-1.186 3.94-2.063 7.71c-.683 2.951-1.173 5.801-.763 6.6.88.387 1.407.631 1.407.631s0 .004.004.013c.112.31 2.54 7.017 3.819 15.346" fill="#FFB27D"/><path d="M178.33 446.625c-3.89 8.55-11.089 43.965-11.089 43.965 1.025 6.367-46.879-1.25-47.003-7.048-1.687-6.147 5.987-16.024 10.314-20.979a14.069 14.069 0 001.452-1.995 14.108 14.108 0 001.962-5.846c.85-8.218.527-15.92.598-20.604.846-.64 1.664-1.23 2.426-1.792 1.164-.867 2.193-1.677 2.95-2.5.834-.895 1.357-1.811 1.417-2.845.044-.782.02-1.584-.06-2.386a21.93 21.93 0 00-.14-1.136c-.598-3.978-2.225-7.585-2.225-7.585 4.12-1.701 14.61-.395 14.61-.395s.843 8.2 12.514 8.524c4.197.116 3.626-3.532 3.626-3.532 6.573 2.634 10.318 5.435 10.318 5.435-3.96 2.621 1.775 11.493-1.288 19.786a15.54 15.54 0 01-.383.933z" fill="#F99746"/><path d="M168 408.097s-1.276 3.524-2.216 6.903c-7.013-1.768-9.143-8.429-9.784-12l12 5.097z" fill="#ED985F"/><path d="M172.814 408.977s-16.02-3.814-13.557-14.042c2.462-10.228 2.053-17.609 12.386-15.606 10.332 2.003 11.372 6.41 11.357 10.03-.015 3.62-5.955 20.347-10.186 19.618" fill="#FFB27D"/><path d="M188.278 387.988c-1.743-3.46-3.794-3.275-5.078-2.661-7.618-6.688-15.09-1.224-15.09-1.224-2.877 6.592-9.11 9.285-9.11 9.285s2.49 2.42 9.71 2.367c2.205-.017 4.422-.977 6.44-2.3-3.892 3.718-8.454 5.981-8.454 5.981 9.036-1.64 15.097-11.566 15.718-12.62.765 1.072 2.23 3.355 2.353 5.283.167 2.62-.783 7.708.798 7.901 0 0 5.327-6.823 2.713-12.012" fill="#2C3A64"/><path d="M186 435.38s-2.128-.19-2.988 3.62c0 0-.206-11.102 1.101-12 0 0 1.008 1.44 1.887 8.38z" fill="#F99746"/><path d="M126 463.973a15.366 15.366 0 002.214-6.46c.958-9.083.594-17.595.674-22.77.954-.708 1.876-1.36 2.736-1.98 1.314-.96 2.475-1.855 3.33-2.763 8.729 14.753 30.699 54.153 16.247 54-10.66-.113-19.685-11.181-25.201-20.027z" fill="#ED7D2B"/><path d="M129 658h-23.87s-.571-4.867.676-8.56c1.194-3.543 3.066-5.153 2.618-9.44 1.516 2.09 3.988 4.43 7.439 3.808.423.917 2.729 5.825 4.141 7.183 1.56 1.5 8.516.965 8.996 7.009m63 0h-23.748s-.888-3.69.671-6.2c1.38-2.22.851-3.486-.17-5.324 1.075.43 2.466.82 3.999.734 1.183-.066 2.434-.59 3.532-1.21 1.022 1.135 5.398 5.966 6.766 6.923 1.552 1.086 8.472.7 8.95 5.077" fill="#233862"/><path d="M192 489.19l-1.014 3.81s-12.593-2.571-15.36-3.162h-.037c-4.737-1.107-10.04-2.435-14.512-3.911-3.145-1.07-5.873-2.214-7.73-3.358a4.68 4.68 0 01-.53-.37c-4.433-3.135-9.7-12.36-13.792-22.25-.568-1.365-1.099-2.73-1.63-4.058-1.894-4.945-3.409-9.815-4.318-14.022-.569-2.51-.948-4.797-1.023-6.679-.038-.664-.076-1.29-.038-1.882.075-10.7 5.532-12.176 5.532-12.176.113-.037.227-.074.378-.11.948-.149 1.933.479 2.956 1.697 1.288 1.512 2.652 3.984 4.054 6.973 2.16 4.76 4.433 10.923 6.555 17.048 1.174 3.358 2.311 6.715 3.448 9.815a203.867 203.867 0 001.894 5.277c1.175 3.1 2.236 5.608 3.183 7.195.606 1.033 2.349 2.472 4.66 4.096 4.017 2.84 27.324 16.066 27.324 16.066" fill="#FFB27D"/><path d="M141 429.493c-6.775-1.914-12 3.507-12 3.507.085-10.443 5.156-11.872 5.156-11.872 2.04-.866 4.405 2.756 6.844 8.365" fill="#F99746"/><path fill="#2B478B" d="M257.615 433L240 432.52l.385-2.52 17.615.48z"/><path d="M249.408 420.68a6.34 6.34 0 00-6.728 5.912 6.34 6.34 0 005.912 6.728 6.34 6.34 0 006.728-5.911 6.34 6.34 0 00-5.912-6.729m-.988 15.301c-4.952-.32-8.72-4.608-8.401-9.56.32-4.953 4.609-8.722 9.56-8.402 4.953.32 8.722 4.609 8.402 9.561-.32 4.952-4.608 8.72-9.56 8.401" fill="#2B478B"/><path d="M198.095 481.1c1.601-24.8 23.004-43.606 47.804-42.005 24.8 1.601 43.607 23.004 42.006 47.805-1.601 24.8-23.004 43.606-47.805 42.005-24.8-1.601-43.606-23.004-42.005-47.805" fill="#F78248"/><path d="M260.483 459.924c-3.428-5.257-3.29-11.5.31-13.943 3.6-2.444 9.296-.163 12.724 5.094 3.428 5.258 3.29 11.5-.31 13.945-3.6 2.443-9.297.162-12.724-5.096" fill="#FFC9A1"/><path d="M261.16 227.691c-.957 0-1.766 1.258-1.829 2.892l-.323 8.436c-.065 1.7.703 3.173 1.712 3.283 1.01.11 1.884-1.184 1.949-2.884l.323-8.437c.065-1.7-.703-3.173-1.712-3.283a1.105 1.105 0 00-.12-.007M260.84 244a1.67 1.67 0 01-.185-.01c-1.561-.17-2.75-2.449-2.649-5.08l.323-8.437c.101-2.63 1.453-4.633 3.016-4.463 1.561.17 2.75 2.449 2.649 5.08l-.323 8.436c-.097 2.527-1.348 4.474-2.83 4.474m-10.016 180l-1.825-.134L259.175 245l1.825.134z" fill="#2B478B"/><path d="M191.725 481s6.722 2.502 8.024 3.476c1.302.973 3.803 4.155 4.251 5.833 0 0-.023.687-.693.686-.67 0-2.177-2.458-3.278-2.065 0 0 1.4 3.255 2.226 4.08.824.823 1.294 4.968 1.126 5.868-.167.9-5.83-3.391-8.2-5.34-1.264-1.04-1.227-3.56-1.618-6.406-.342-2.498-7.563-3.942-7.563-3.942l5.725-2.19z" fill="#FFB27D"/><path d="M37.96 658h39.41c2.112-1.72-1.461-5.626-5.195-5.889-1.621-.118-3.672.209-6.015.684-.542-6.917-3.64-38.007-15.311-36.758-13.124 1.398 0 13.692 3.71 20.97 2.748 5.39 5.647 13.122 6.972 16.77-1.065.222-2.169.44-3.295.638-1.74-5.128-8.212-22.378-16.443-21.373-9.664 1.177-5.78 8.093 1.07 12.198 5.025 3.02 11.196 7.31 14.128 9.384-2.484.389-5.077.651-7.707.592-6.75-.154-10.046 1.757-11.324 2.784m602.08 0h-39.41c-2.112-1.72 1.461-5.626 5.195-5.889 1.621-.117 3.672.208 6.015.684.542-6.917 3.64-38.007 15.311-36.758 13.125 1.398 0 13.692-3.71 20.97-2.748 5.391-5.647 13.122-6.972 16.77 1.066.222 2.169.439 3.295.638 1.74-5.128 8.213-22.378 16.443-21.373 9.664 1.177 5.78 8.093-1.07 12.199-5.025 3.018-11.196 7.31-14.128 9.383 2.484.389 5.077.651 7.708.592 6.75-.154 10.045 1.757 11.323 2.784m-165.325-36.288c3.044.615 13.92.118 14.272-.315.353-.433-6.761-4.564-9.805-5.18-3.044-.614-6.511.117-7.745 1.635-1.234 1.517.234 3.245 3.278 3.86m24.205 6.297c-.787 2.957-1.143 14.445-.774 14.96.369.514 4.666-5.477 5.453-8.435.788-2.957.379-6.816-.914-8.617-1.292-1.802-2.977-.866-3.765 2.092" fill="#A8D29F"/><path d="M487.066 639.854c3.072.503 13.647-.416 13.926-.866.28-.45-7.303-4.342-10.376-4.845-3.072-.503-6.358.367-7.338 1.944-.98 1.577.716 3.263 3.788 3.767" fill="#A8D29F"/><path d="M503.668 652c-.008-.196-.962-19.693-11.668-29.76l.228-.24c10.804 10.16 11.764 29.789 11.772 29.986l-.332.014zm27.345-30.055c-.185-.175 1.712-2.315 2.689-2.722.977-.408 2.295-.24 2.943.373.649.614.383 1.442-.594 1.85-.977.407-4.853.675-5.038.5zm-9.054 15.027c-.277.246-4.418-1.184-5.319-2.113a2.23 2.23 0 01.126-3.246c.97-.862 2.487-.808 3.388.12.9.93 2.082 4.992 1.805 5.239zm7.986-.343c-.994.378-4.778.464-4.936.271-.16-.193 1.93-2.343 2.923-2.721.994-.379 2.25-.137 2.805.54.556.676.201 1.532-.792 1.91" fill="#A8D29F"/><path d="M525.407 645.966c-.015-.129-1.422-12.9 2.593-20.84l-.128-.126c-4.052 8.014-2.635 20.871-2.62 21l.155-.034zm-10.277 8.926c-3.421-34.518-16.94-59.29-17.13-59.626l.791-.266c.189.34 13.807 25.274 17.209 60l-.87-.108z" fill="#A8D29F"/><path d="M495.61 586.765c.89.938 5.056 2.447 5.343 2.21.288-.236-.804-4.27-1.693-5.209-.89-.938-2.428-1.027-3.436-.199-1.009.828-1.104 2.26-.215 3.198" fill="#FFF"/><path d="M499.37 583.875c-.849.963-1.619 4.904-1.294 5.108.325.205 4.566-1.546 5.414-2.509.849-.963.614-2.325-.524-3.043s-2.748-.519-3.596.444m10.784 5.173c-2.057-.218-8.99.358-9.15.587-.16.228 5.063 2.094 7.12 2.312 2.056.218 4.178-.254 4.74-1.055.56-.8-.654-1.626-2.71-1.844" fill="#FFF"/><path d="M506.993 596.856c-.08-2.079-1.574-7.913-1.81-7.856-.235.058-1.258 6.505-1.179 8.583.08 2.078.814 3.6 1.64 3.4.824-.202 1.429-2.05 1.349-4.127m-9.001-2.02c.999-.366 3.15-2.51 3-2.71-.15-.199-3.9-.18-4.899.185-.998.367-1.383 1.228-.859 1.926.525.697 1.76.965 2.758.6" fill="#FFF"/><path d="M498.019 590.264a1.5 1.5 0 112.962.472 1.5 1.5 0 01-2.962-.472" fill="#163560"/><path d="M514.69 612.457c-2.611 2.853-5.43 14.82-4.513 15.482.917.662 13.531-4.229 16.143-7.082 2.611-2.852 2.125-7.045-1.087-9.364-3.21-2.32-7.931-1.888-10.543.964M474 658l-.567-.013c-5.937-24.645-17.275-41.507-17.433-41.736l.478-.251c.157.232 11.577 17.204 17.522 42" fill="#A8D29F"/><path d="M456.388 612.145c.47.443 2.483.976 2.6.83.117-.145-.648-2.231-1.119-2.675a1.069 1.069 0 00-1.592.12c-.409.51-.36 1.282.11 1.725m5.982-1.617c-.378.497-.462 2.389-.269 2.468.194.079 2.344-.967 2.722-1.463.378-.497.135-1.125-.542-1.402-.678-.278-1.533-.1-1.911.397m1.81 5.482c-.519-.112-2.159.813-2.179 1.048-.02.234 1.406 1.817 1.925 1.928.519.111.996-.465 1.066-1.287.07-.822-.293-1.578-.812-1.69m-2.219 4.815c-.187-.515-1.974-1.858-2.205-1.823-.23.034-.91 1.74-.723 2.257.188.515.995.837 1.804.717s1.312-.635 1.125-1.15m-4.266-2.065c.485-.416 1.396-2.547 1.298-2.715-.098-.169-2.053.163-2.538.58-.485.416-.6 1.232-.258 1.822.342.59 1.013.73 1.498.313" fill="#FFF"/><path d="M461.265 615.98a.734.734 0 011.47.04.734.734 0 01-.755.712.734.734 0 01-.715-.751" fill="#163560"/><path d="M471.94 629.995c-.79 1.97-1.165 9.638-.799 9.984.367.345 4.663-3.628 5.454-5.598.79-1.97.389-4.549-.897-5.76-1.285-1.211-2.968-.596-3.759 1.374M552 649l.58-.103c2.28-32.792 11.293-56.324 11.42-56.644l-.528-.253c-.125.323-9.204 24.01-11.472 57" fill="#A8D29F"/><path d="M569.39 592.765c-.889.937-5.055 2.446-5.343 2.21-.288-.236.804-4.27 1.694-5.209.89-.938 2.428-1.027 3.436-.199 1.007.828 1.104 2.26.214 3.198" fill="#FFF"/><path d="M563.315 589.875c.424.963.81 4.904.647 5.109-.162.204-2.283-1.547-2.707-2.51-.424-.963-.307-2.325.262-3.043.57-.718 1.374-.519 1.798.444m-3.892 8.173c1.029-.218 4.495.359 4.575.587.08.228-2.531 2.094-3.56 2.312-1.028.218-2.09-.254-2.37-1.055-.28-.8.327-1.626 1.355-1.844" fill="#FFF"/><path d="M561.007 601.928c.08-1.04 1.574-3.957 1.81-3.928.235.029 1.258 3.253 1.179 4.292-.08 1.039-.814 1.8-1.64 1.7-.824-.101-1.429-1.025-1.349-2.064m9.001-1.092c-.999-.366-3.15-2.51-3-2.71.15-.199 3.9-.18 4.899.185.998.366 1.383 1.228.859 1.926-.525.697-1.76.965-2.758.6" fill="#FFF"/><path d="M566.981 593.264a1.5 1.5 0 10-2.962.472 1.5 1.5 0 002.962-.472" fill="#163560"/><path d="M551.873 630.457c1.741 2.853 3.62 14.82 3.01 15.482-.612.662-9.022-4.23-10.763-7.08-1.741-2.854-1.417-7.046.724-9.367 2.141-2.32 5.288-1.887 7.03.965M444 658s3.76-11.719 17.414-12.455c13.653-.736 23.054 8.829 34.335 4.415 11.28-4.415 29.95-14.382 47.612-7.743C561.022 648.856 564 658 564 658H444zm-138-9l-.869-.102c-3.422-32.793-16.941-56.325-17.131-56.645l.792-.253c.188.324 13.806 24.01 17.208 57" fill="#A8D29F"/><path d="M279.61 589.765c.889.938 5.055 2.447 5.343 2.21.288-.236-.804-4.27-1.693-5.209-.89-.938-2.429-1.027-3.436-.199-1.009.828-1.104 2.26-.215 3.198m12.761-2.89c-.848.963-1.619 4.904-1.294 5.108.325.206 4.566-1.546 5.415-2.509.848-.962.613-2.325-.525-3.043s-2.748-.519-3.596.444m1.784 11.173c-2.057-.218-8.99.359-9.15.587-.16.228 5.063 2.093 7.12 2.312 2.056.218 4.179-.254 4.74-1.054.56-.8-.653-1.626-2.71-1.845" fill="#FFF"/><path d="M287.993 599.855c-.08-2.077-1.574-7.912-1.81-7.855-.235.058-1.258 6.505-1.179 8.583.08 2.078.814 3.6 1.639 3.4.825-.202 1.43-2.05 1.35-4.128m-6.001.981c.999-.366 3.15-2.51 3-2.71-.15-.199-3.9-.18-4.899.185-.998.367-1.383 1.229-.858 1.926.524.697 1.759.965 2.757.6" fill="#FFF"/><path d="M285.019 593.264a1.5 1.5 0 112.961.47 1.5 1.5 0 01-2.961-.47" fill="#F78248"/><path d="M306.127 603.457c-1.741 2.853-3.62 14.82-3.01 15.482.612.662 9.022-4.229 10.763-7.082 1.741-2.852 1.417-7.044-.724-9.364-2.141-2.32-5.288-1.889-7.03.964m-15.307 30.837c2.008.7 6.448 4.963 6.168 5.374-.279.41-7.706.531-9.714-.17-2.008-.7-2.842-2.434-1.863-3.87.98-1.438 3.4-2.035 5.409-1.334M321 655l.869-.119c3.422-37.97 16.941-65.218 17.131-65.588l-.792-.293c-.188.375-13.807 27.802-17.208 66" fill="#A8D29F"/><path d="M347.39 580.765c-.889.938-5.055 2.447-5.343 2.21-.288-.236.804-4.27 1.694-5.209.89-.938 2.428-1.027 3.435-.199 1.009.828 1.104 2.26.215 3.198m-12.761-2.015c.849 1.927 1.619 9.807 1.294 10.217-.325.41-4.566-3.092-5.415-5.018-.848-1.926-.613-4.651.525-6.087 1.138-1.435 2.748-1.038 3.596.889" fill="#FFF"/><path d="M332.846 586.097c2.057-.436 8.99.716 9.15 1.173.16.457-5.063 4.187-7.12 4.623-2.057.437-4.179-.507-4.74-2.108-.56-1.6.653-3.252 2.71-3.688" fill="#FFF"/><path d="M333.014 596.855c.16-2.078 3.149-7.912 3.62-7.855.47.058 2.517 6.505 2.357 8.583-.16 2.078-1.627 3.6-3.277 3.4-1.65-.202-2.86-2.05-2.7-4.128m9.002-5.182c-1.998-.733-6.3-5.023-6.001-5.42.3-.399 7.8-.362 9.798.37 1.997.732 2.767 2.456 1.718 3.85-1.049 1.395-3.518 1.932-5.515 1.2" fill="#FFF"/><path d="M338.981 587.264a1.5 1.5 0 10-2.962.472 1.5 1.5 0 002.962-.472" fill="#F78248"/><path d="M325.31 609.457c2.611 2.853 5.43 14.82 4.513 15.482-.916.662-13.531-4.229-16.143-7.081-2.611-2.853-2.125-7.046 1.086-9.366 3.212-2.32 7.932-1.887 10.544.965m10.871 24.836c-2.008.701-6.448 4.965-6.168 5.375.28.41 7.706.531 9.714-.17 2.008-.7 2.842-2.433 1.863-3.87-.98-1.438-3.4-2.035-5.409-1.335M282 658s8.286-4.183 26.115-2.67c17.828 1.513 27.62-2.923 30.885 2.67h-57z" fill="#A8D29F"/></g></svg>