<svg width="840" height="754" viewBox="0 0 840 754" xmlns="http://www.w3.org/2000/svg"><defs><linearGradient x1="50.924%" y1="-120.336%" x2="50.015%" y2="88.341%" id="a"><stop stop-color="#DCE078" offset="0%"/><stop stop-color="#97A100" offset="100%"/></linearGradient><linearGradient x1="-594.065%" y1="200.289%" x2="-210.243%" y2="110.726%" id="b"><stop stop-color="#FDAE91" offset=".644%"/><stop stop-color="#FE393B" offset="92.92%"/></linearGradient><linearGradient x1="-593.11%" y1="196.816%" x2="-194.513%" y2="105.911%" id="c"><stop stop-color="#FDAE91" offset=".644%"/><stop stop-color="#FE393B" offset="92.92%"/></linearGradient><linearGradient x1="-495.024%" y1="172.133%" x2="-133.5%" y2="91.12%" id="d"><stop stop-color="#FDAE91" offset=".644%"/><stop stop-color="#FE393B" offset="92.92%"/></linearGradient><linearGradient x1="-406.837%" y1="143.847%" x2="-79.564%" y2="77.457%" id="e"><stop stop-color="#FDAE91" offset=".644%"/><stop stop-color="#FE393B" offset="92.92%"/></linearGradient><linearGradient x1="-329.016%" y1="117.857%" x2="-32.92%" y2="66.647%" id="f"><stop stop-color="#FDAE91" offset=".644%"/><stop stop-color="#FE393B" offset="92.92%"/></linearGradient><linearGradient x1="-275.842%" y1="101.866%" x2="4.25%" y2="59.784%" id="g"><stop stop-color="#FDAE91" offset=".644%"/><stop stop-color="#FE393B" offset="92.92%"/></linearGradient><linearGradient x1="-232.05%" y1="95.294%" x2="38.3%" y2="54.346%" id="h"><stop stop-color="#FDAE91" offset=".644%"/><stop stop-color="#FE393B" offset="92.92%"/></linearGradient><linearGradient x1="-188.912%" y1="92.758%" x2="70.175%" y2="47.949%" id="i"><stop stop-color="#FDAE91" offset=".644%"/><stop stop-color="#FE393B" offset="92.92%"/></linearGradient><linearGradient x1="-151.366%" y1="86.879%" x2="99.365%" y2="41.917%" id="j"><stop stop-color="#FDAE91" offset=".644%"/><stop stop-color="#FE393B" offset="92.92%"/></linearGradient><linearGradient x1="-115.86%" y1="79.389%" x2="127.03%" y2="37.898%" id="k"><stop stop-color="#FDAE91" offset=".644%"/><stop stop-color="#FE393B" offset="92.92%"/></linearGradient><linearGradient x1="0%" y1="50%" x2="100%" y2="50%" id="m"><stop stop-color="#7E2E23" offset=".644%"/><stop stop-color="#AD5C38" offset="100%"/></linearGradient><linearGradient x1="100%" y1="50%" x2="0%" y2="50%" id="n"><stop stop-color="#7E2E23" offset=".644%"/><stop stop-color="#AD5C38" offset="100%"/></linearGradient><linearGradient x1="0%" y1="50%" x2="100%" y2="50%" id="o"><stop stop-color="#7E2E23" offset=".644%"/><stop stop-color="#AD5C38" offset="100%"/></linearGradient><linearGradient x1="50%" y1="0%" x2="50%" y2="100%" id="p"><stop stop-color="#2B0073" offset="0%"/><stop stop-color="#2C539C" offset="100%"/></linearGradient><linearGradient x1="139.285%" y1="109.698%" x2="-110.987%" y2="-47.052%" id="q"><stop stop-color="#2B0073" offset="0%"/><stop stop-color="#2C539C" offset="100%"/></linearGradient><linearGradient x1="42.95%" y1="-17.846%" x2="51.148%" y2="63.39%" id="r"><stop stop-color="#2B0073" offset="0%"/><stop stop-color="#2B0676" offset="18.82%"/><stop stop-color="#2B197F" offset="45.11%"/><stop stop-color="#2C368E" offset="75.63%"/><stop stop-color="#2C539C" offset="100%"/></linearGradient><linearGradient x1="166.626%" y1="63.135%" x2="15.515%" y2="45.363%" id="s"><stop stop-color="#2B0073" offset="0%"/><stop stop-color="#2C539C" offset="100%"/></linearGradient><linearGradient x1="12.356%" y1="17.763%" x2="117.543%" y2="112.137%" id="t"><stop stop-color="#00D4BF" offset="0%"/><stop stop-color="#06C2BB" offset="5.418%"/><stop stop-color="#1B88AF" offset="24.26%"/><stop stop-color="#2C57A6" offset="42.47%"/><stop stop-color="#39319E" offset="59.59%"/><stop stop-color="#421698" offset="75.38%"/><stop stop-color="#480695" offset="89.33%"/><stop stop-color="#4A0094" offset="100%"/></linearGradient><linearGradient x1="241.261%" y1="119.222%" x2="-132.989%" y2="-20.035%" id="u"><stop stop-color="#2B0073" offset="0%"/><stop stop-color="#2C539C" offset="100%"/></linearGradient><linearGradient x1="50%" y1="2.687%" x2="50%" y2="171.631%" id="v"><stop stop-color="#2B0073" offset="0%"/><stop stop-color="#2C539C" offset="100%"/></linearGradient><linearGradient x1="62.201%" y1="54.385%" x2="22.667%" y2="40.316%" id="w"><stop stop-color="#00D4BF" offset="0%"/><stop stop-color="#05C6BE" offset="1.387%"/><stop stop-color="#139DBA" offset="5.898%"/><stop stop-color="#2077B6" offset="10.96%"/><stop stop-color="#2C57B3" offset="16.47%"/><stop stop-color="#353BB1" offset="22.56%"/><stop stop-color="#3D25AF" offset="29.43%"/><stop stop-color="#4314AD" offset="37.46%"/><stop stop-color="#4709AC" offset="47.4%"/><stop stop-color="#4902AB" offset="61.33%"/><stop stop-color="#4A00AB" offset="100%"/></linearGradient><linearGradient x1="58.068%" y1="105.6%" x2="36.874%" y2="-2.996%" id="y"><stop stop-color="#545C1E" offset="0%"/><stop stop-color="#8A8706" offset="100%"/></linearGradient><linearGradient x1="50%" y1="100%" x2="50%" y2=".205%" id="z"><stop stop-color="#545C1E" offset="0%"/><stop stop-color="#DBC206" offset="100%"/></linearGradient><linearGradient x1="43.687%" y1="50.108%" x2="66.558%" y2="32.287%" id="A"><stop stop-color="#42BEB8" offset="0%"/><stop stop-color="#2C2A6C" offset="100%"/></linearGradient><linearGradient x1=".177%" y1="50%" x2="100%" y2="50%" id="B"><stop stop-color="#42BEB8" offset="0%"/><stop stop-color="#2C2A6C" offset="100%"/></linearGradient><linearGradient x1="109.343%" y1="62.528%" x2="6.094%" y2="21.153%" id="C"><stop stop-color="#42BEB8" offset="0%"/><stop stop-color="#2C2A6C" offset="100%"/></linearGradient><linearGradient x1="76.043%" y1="59.058%" x2="20.761%" y2="41.294%" id="D"><stop stop-color="#42BEB8" offset="0%"/><stop stop-color="#2C2A6C" offset="100%"/></linearGradient><linearGradient x1="63.099%" y1="-.904%" x2="33.411%" y2="96.768%" id="E"><stop stop-color="#42BEB8" offset="0%"/><stop stop-color="#2C2A6C" offset="100%"/></linearGradient><linearGradient x1="0%" y1="50%" x2="100%" y2="50%" id="F"><stop stop-color="#42BEB8" offset="0%"/><stop stop-color="#2C2A6C" offset="100%"/></linearGradient><linearGradient x1=".154%" y1="50%" x2="100.01%" y2="50%" id="G"><stop stop-color="#42BEB8" offset="0%"/><stop stop-color="#2C2A6C" offset="100%"/></linearGradient><linearGradient x1="3.464%" y1="50%" x2="101.282%" y2="50%" id="H"><stop stop-color="#6252D2" offset="0%"/><stop stop-color="#5044AD" offset="100%"/></linearGradient><linearGradient x1="50.003%" y1="-1.879%" x2="50.003%" y2="88.609%" id="I"><stop stop-color="#0A76E8" offset="0%"/><stop stop-color="#FFF5D3" stop-opacity=".781" offset="2.402%"/><stop stop-color="#FFFBEB" stop-opacity=".49" offset="38.75%"/><stop stop-color="#FFFEFA" stop-opacity=".222" offset="72.25%"/><stop stop-color="#FFF" stop-opacity="0" offset="100%"/></linearGradient><radialGradient cx="-791.362%" cy="-306.2%" fx="-791.362%" fy="-306.2%" r="1234.078%" gradientTransform="matrix(1 0 0 .42305 0 -1.767)" id="l"><stop stop-color="#FFF" offset="0%"/><stop offset="100%"/></radialGradient><radialGradient cx="-71.45%" cy="18.1%" fx="-71.45%" fy="18.1%" r="131.81%" gradientTransform="scale(1 .99929)" id="x"><stop stop-color="#FFF" offset="0%"/><stop offset="100%"/></radialGradient></defs><g fill="none" fill-rule="evenodd"><g fill-rule="nonzero"><path fill="#B6ACE5" d="M732.052 750.714H.465l123.869-84.127 493.614 2.978z"/><path fill="#7767E8" d="M184.036 666.96l-86.485 83.754H44.823l3.162-2.699h-10.23l1.675-1.489h10.229l3.906-2.699h-10.23l1.674-1.396h10.23l3.626-2.978h-9.95l1.674-1.21h10.043l3.627-2.884h-9.95l1.953-1.49h9.671l3.906-2.884h-9.95l1.673-1.21h9.95l3.72-2.978h-9.764l1.674-1.489h9.764l3.627-2.885h-9.485l1.674-1.21h9.485l3.906-2.884H76.44l1.953-1.49h9.486l3.627-2.884H82.02l1.674-1.303h9.485l3.627-2.885H87.6l1.674-1.489h9.3l3.905-2.885h-9.3l1.767-1.21h9.207l46.404-37.596zm369.094 2.233l82.58 81.52h52.82l-3.44-2.698h10.23l-1.674-1.489h-10.23l-3.627-2.699h9.95l-1.673-1.396h-10.044l-3.905-2.978h10.23l-1.675-1.21h-10.23l-3.626-2.884h9.95l-1.673-1.49h-9.95l-3.72-2.884h9.764l-1.674-1.21h-9.765l-3.905-2.978h9.764l-1.767-1.489h-9.671l-3.627-2.885h9.671l-1.673-1.21h-9.765l-3.627-2.884h9.486l-1.674-1.49h-9.486l-3.905-2.884h9.485l-1.674-1.303h-9.485l-3.72-2.885h9.3l-1.767-1.489H634.5l-3.627-2.885h9.207l-1.953-1.21h-9.207l-35.8-34.803zm-446.837 81.521h14.6l82.486-83.755h-11.996zm521.141 0h-14.322L538.531 669.1l9.95.093z"/><path fill="#321967" d="M.465 750.714h731.587v2.42H.465z"/></g><g transform="translate(42.777 337.9)"><path d="M481.34 202.407c6.416 41.04 4.184 58.256 4.184 58.256l-7.254 3.536 3.07-61.792z" fill="url(#a)" fill-rule="nonzero"/><path d="M479.851 261.873c0 4.653-1.023 13.866-1.023 13.866l-.837.372.744-7.538c.186-1.489 0-2.978-.372-4.467l1.488-2.233zm-1.953.744c0 4.653-1.022 13.866-1.022 13.866l-.837.372.744-7.538c.186-1.488 0-2.977-.372-4.466l1.487-2.234zm-1.952.745c0 4.653-1.023 13.866-1.023 13.866l-.837.372.744-7.538c.186-1.489 0-2.978-.372-4.467l1.488-2.233zm-1.86.744c0 4.653-1.023 13.866-1.023 13.866l-.837.372.744-7.538c.186-1.489 0-2.977-.28-4.466l1.396-2.234zm-1.953.744c0 4.654-1.023 13.867-1.023 13.867l-.837.372.744-7.538c.186-1.489 0-2.978-.28-4.467l1.396-2.233zm-1.86.745c0 4.653-1.116 13.866-1.116 13.866l-.837.372.744-7.538c.186-1.489 0-2.978-.279-4.466l1.488-2.234zm-1.953.745c0 4.653-1.116 13.866-1.116 13.866l-.837.372.744-7.538c.186-1.489 0-2.978-.279-4.467l1.488-2.233zm-1.86.744c0 4.653-1.116 13.866-1.116 13.866l-.837.372.744-7.538c.186-1.489 0-2.978-.279-4.467l1.488-2.233zm-1.86.745c0 4.653-1.116 13.866-1.116 13.866l-.837.372.744-7.538c.186-1.49 0-2.978-.279-4.467l1.488-2.233zm-1.953.744c0 4.653-1.116 13.866-1.116 13.866l-.837.372.744-7.538c.186-1.489 0-2.978-.279-4.467l1.488-2.233zm-1.86.744c0 4.654-1.115 13.867-1.115 13.867l-.837.372.744-7.538a12.094 12.094 0 00-.28-4.467l1.488-2.234zm-1.952.745c0 4.653-1.116 13.866-1.116 13.866l-.837.372.744-7.538a12.094 12.094 0 00-.28-4.467l1.489-2.233zm-1.86.744c0 4.653-1.116 13.867-1.116 13.867l-.837.372.744-7.538a12.094 12.094 0 00-.28-4.467l1.489-2.234zm-1.86.652c0 4.653-1.116 13.866-1.116 13.866l-.837.372.744-7.538a12.094 12.094 0 00-.28-4.467l1.489-2.233zm-1.953.744c0 4.653-1.116 13.866-1.116 13.866l-.837.373.837-7.538a12.094 12.094 0 00-.279-4.467l1.395-2.234zm-1.86.745c-.093 4.653-1.209 13.866-1.209 13.866l-.837.372.837-7.538a12.094 12.094 0 00-.279-4.467l1.488-2.233zm-1.86.744c-.093 4.653-1.209 13.866-1.209 13.866l-.837.373.837-7.538a12.094 12.094 0 00-.279-4.467l1.488-2.234zm-1.952.745c-.094 4.653-1.21 13.866-1.21 13.866l-.837.372.837-7.538a12.094 12.094 0 00-.279-4.467l1.488-2.233zm-1.86.744c-.094 4.653-1.21 13.866-1.21 13.866l-.837.28.837-7.538a12.094 12.094 0 00-.279-4.467l1.488-2.14zm-1.86.745c-.094 4.653-1.21 13.866-1.21 13.866l-.836.372.837-7.538a12.094 12.094 0 00-.28-4.467l1.488-2.233zm-1.953.651c-.093 4.653-1.21 13.866-1.21 13.866l-.836.373.837-7.538a12.094 12.094 0 00-.28-4.467l1.489-2.234zm-1.86.744c-.093 4.654-1.21 13.867-1.21 13.867l-.836.372.837-7.538a12.094 12.094 0 00-.28-4.467l1.489-2.233zm-1.86.745c-.093 4.653-1.21 13.866-1.21 13.866l-.836.372.837-7.537a12.094 12.094 0 00-.28-4.467l1.489-2.234zm-1.86.745c-.093 4.653-1.209 13.866-1.209 13.866l-.837.372.837-7.538a12.094 12.094 0 00-.279-4.467l1.488-2.233zm-1.86.744c-.093 4.653-1.209 13.773-1.209 13.773l-.837.372.837-7.538a12.094 12.094 0 00-.279-4.466l1.488-2.14zm-1.86.652c-.093 4.653-1.209 13.773-1.209 13.773l-.837.372.837-7.538a12.094 12.094 0 00-.279-4.467l1.488-2.14z" fill="#FFBCA1" fill-rule="nonzero"/><g fill-rule="nonzero"><path d="M8.792 4.797L2.096 1.912C1.817 1.261 1.631.61 1.26.051l6.696 2.792c.279.651.65 1.303.837 1.954z" fill="url(#b)" transform="translate(416.379 181.231)"/><path fill="url(#c)" d="M10.373 15.034l-7.254-2.978.093-1.49 7.068 2.886z" transform="translate(416.379 181.231)"/><path fill="url(#d)" d="M10.838 24.898l-7.998-3.35v-1.489l7.905 3.257z" transform="translate(416.379 181.231)"/><path fill="url(#e)" d="M11.303 34.763l-7.719-3.258-1.116.652v-1.675l1.023-.559 7.068 2.978.65.28z" transform="translate(416.379 181.231)"/><path fill="url(#f)" d="M11.768 44.627l-7.16-2.978-2.605 1.303.093-1.582 2.511-1.303 7.068 2.978z" transform="translate(416.379 181.231)"/><path fill="url(#g)" d="M11.954 52.816v1.49L5.724 51.7 1.63 53.84v-1.675l4-2.047z" transform="translate(416.379 181.231)"/><path fill="url(#h)" d="M11.954 62.402v1.582L6.746 61.75 1.26 64.635v-1.582l5.394-2.792z" transform="translate(416.379 181.231)"/><path fill="url(#i)" d="M11.954 72.08v1.582l-4.185-1.768-6.975 3.63.093-1.676 6.789-3.536z" transform="translate(416.379 181.231)"/><path fill="url(#j)" d="M11.954 81.758v1.49l-3.162-1.304-7.533 4.002-.837-.093.093-1.396h.372L8.7 80.362z" transform="translate(416.379 181.231)"/><path fill="url(#k)" d="M11.954 91.343v1.583l-2.046-.838-7.626 3.909-2.232-.373.093-1.303 1.767.28 7.905-4.095z" transform="translate(416.379 181.231)"/></g><ellipse fill="#2B3172" fill-rule="nonzero" opacity=".068" cx="421.868" cy="363.047" rx="158.811" ry="33.635"/><path d="M430.006 173.651c19.622 7.445 3.627 108.509 3.627 108.509l43.428-21.032s7.347-89.059-11.996-93.433l-35.059 5.956z" fill="url(#l)" fill-rule="nonzero"/><path fill="url(#m)" fill-rule="nonzero" d="M563.453 303.192l13.392 65.887h-8.928l-19.622-50.998z"/><path fill="url(#n)" fill-rule="nonzero" d="M286.516 304.401l-13.391 65.794h8.927l19.622-50.904z"/><path fill="url(#o)" fill-rule="nonzero" d="M462.461 318.454v64.677h-8.927l-11.066-55.837z"/><path d="M428.984 186.773l-.373 84.964c-.093 12.842-6.51 24.661-17.297 31.362l-86.67 26.056-27.62-2.14-12.647-1.303c-6.696-.651-12.182-5.583-13.391-11.912-6.51-34.153-22.133-136.985 24.736-141.824h.28l97.736-15.076h.093c17.948-2.885 35.245 11.633 35.153 29.873z" fill="url(#p)" fill-rule="nonzero"/><path d="M437.446 338.182c-5.208-.279-105.456-8.375-134.47-10.702-4.464-.372-7.905-4.001-7.998-8.468l-.93-50.346s117.638 20.287 126.566 20.287c8.927.093 16.832 49.23 16.832 49.23z" fill="url(#q)" fill-rule="nonzero"/><path d="M540.577 54.999h11.531c3.348 0 6.789.372 10.043 1.21a9.89 9.89 0 012.325.837c10.416 5.025 15.251 15.914 15.251 27.64V220.18l-19.621 59.187-19.622-10.702 7.16-59.931-7.067-153.736z" fill="url(#r)" fill-rule="nonzero"/><path d="M446.001 220.088l-18.227 28.29-.279.652-132.145-9.12c1.302-1.21 2.883-2.047 4.743-2.512l16.553-4.002 55.61-13.308h73.745z" fill="url(#s)" fill-rule="nonzero"/><path d="M546.993 220.088H372.257l20.83-141.359c2.046-13.68 13.764-23.823 27.527-23.823H545.69c6.231 0 11.16 5.211 10.788 11.446l-9.486 153.736z" fill="url(#t)" fill-rule="nonzero"/><path d="M437.446 249.03v46.53L308.09 282.533c-7.347-.744-13.206-6.514-13.95-13.866l-2.138-19.729c-.372-3.536.93-6.886 3.44-9.12l132.331 8.562 9.672.651z" fill="url(#u)" fill-rule="nonzero"/><path d="M444.327 63.84s13.02 8.933 4.93 30.244c-8.091 21.218 10.972 16.1 18.133 41.598l-79.696-2.047s16.832-28.011 17.204-38.992c.186-10.981-4.929-34.247 17.204-32.478l22.225 1.675z" fill="#18203D" fill-rule="nonzero"/><g fill-rule="nonzero"><path fill="#1BA4C9" d="M314.88 99.389l38.22-5.49 6.603 49.88-33.107-4.746z"/><path fill="#5AC2EF" d="M314.88 99.389l6.23 46.623 32.92 5.305-6.789-48.764z"/><path fill="#FFF" d="M320.18 109.718l.558 5.491 22.319 1.954-.93-6.235z"/><path d="M340.825 158.575s2.046-13.773-4.93-19.45c-.557-.558-1.487-.744-2.23-.93-1.117 0-1.86.93-1.489 1.861l1.86 7.166-15.158-12.656c-.93-.745-2.418-.745-3.255.186-.744.93-.93 2.233-.186 3.07l2.604 3.444v10.237c0 2.047.744 4.187 2.232 5.676 2.232 2.234 6.045 4.747 13.577 5.491l6.975-4.095z" fill="#EAA990"/><path fill="#ED705F" d="M343.242 154.574l37.012 32.478-26.596 14.052-30.781-35.177z"/><path d="M394.482 115.21s-12.275 2.605-18.133 30.244c-5.86 27.639-8.463 38.155-8.463 38.155l27.247 5.862 4.185-41.598-4.836-32.664z" fill="#ED705F"/></g><path d="M404.06 113.348s-20.737-1.49-20.737 22.707c0 24.382 5.115 59.745 5.115 59.745h54.402l13.019-62.351c.744-5.49-7.719-9.306-12.647-11.726-3.255-1.675-7.905-3.257-14.136-4.932l-25.015-3.443z" fill="#F68370" fill-rule="nonzero"/><path d="M389.74 133.728s-7.905 12.47-3.813 28.942c3.813 16.286 5.487 18.147 5.487 18.147" stroke="#ED5F4C" stroke-width=".936"/><path d="M378.394 188.634s-23.62-9.306-30.78 15.541h35.895l-5.115-15.541z" fill="#EAA990" fill-rule="nonzero"/><path d="M447.954 125.26s-20.552-2.606-14.507 51.648l-58.586 5.119 3.068 21.962h66.584c10.788-.372 16.646-8.469 17.39-19.078 1.674-22.055.93-58.349-13.949-59.651z" fill="#ED705F" fill-rule="nonzero"/><path stroke="#ED5F4C" stroke-width=".936" d="M375.698 187.796l-.93-5.583 58.586-5.119-3.348-34.804"/><g fill-rule="nonzero"><path d="M384.811 336.973l-3.069 12.47c-.372 1.303.186 2.792 1.488 3.257.93.372 2.232.186 3.813-1.675 3.813-4.188 17.204-25.871 17.204-25.871l2.046 1.675 6.602-9.678s-9.671-9.306-13.39-7.91l-14.694 27.732z" fill="#171B3C"/><path d="M386.67 313.987l-1.859 22.893s5.115 1.86 8.277-7.166c3.068-8.934 6.416-20.753 6.416-20.753l-7.16-4.001-5.673 9.027z" fill="#E7A78C"/><path fill="#E7A78C" d="M399.504 309.054l-32.827-37.875-10.601 15.169 32.92 32.478z"/><path d="M354.216 204.268h-39.15c-8.463 0-16.275 4.374-20.553 11.726-6.044 10.236-3.812 23.265 5.301 30.803l65.933 63.746 21.017-22.706-35.896-49.136 3.348-34.433z" fill="#EFB04B"/></g><g fill-rule="nonzero"><path d="M328.456 362.006l-8.09 10.05c-.93 1.117-.93 2.606 0 3.63.744.744 2.046 1.117 4.185 0 5.114-2.42 26.41-16.472 26.41-16.472l1.116 2.42 10.043-6.235s-4.928-12.47-8.927-12.657l-24.737 19.264z" fill="#171B3C"/><path d="M339.616 341.905l-10.974 20.008s4 3.815 10.416-3.071c6.416-6.794 14.32-16.1 14.32-16.1l-4.928-6.607-8.834 5.77z" fill="#E7A78C"/><path fill="#E7A78C" d="M353.1 342.65l-14.042-48.02-16.181 9.492 17.11 43.087z"/></g><path d="M447.117 204.082s13.205 34.99-17.948 44.204h-84.997l9.858 80.311-29.48 8.934-23.248-96.783c-6.045-17.96 7.16-36.48 26.038-36.48l119.777-.186z" fill="#E8A436" fill-rule="nonzero"/><path d="M346.032 250.24l-14.507-12.842" stroke="#EFB04B" stroke-width=".662"/><g transform="translate(391.507 45.6)"><path d="M15.81 6.142S47.705.838 54.773 17.309c5.114 11.912-4.371 31.734-19.622 35.922-14.507 4.001-5.859-40.668-5.859-40.668L15.81 6.142z" fill="#18203D" fill-rule="nonzero"/><ellipse fill="#D78973" fill-rule="nonzero" cx="9.206" cy="34.432" rx="6.789" ry="6.793"/><path d="M17.111 53.79l-.372 14.889c-.186 5.118 2.976 8.096 8.09 8.282 4.371 0 8.649-2.233 9.114-6.421l-.558-23.451-16.274 6.7z" fill="#EAA990" fill-rule="nonzero"/><path fill="#D78973" fill-rule="nonzero" d="M16.739 64.491l18.692-13.773-18.32 1.675z"/><path d="M21.296 56.58c-8.835-.744-15.344-8.282-14.972-15.354l.93-16.844c.372-8.934 7.904-15.913 16.832-15.727 9.113.186 18.133 7.724 17.947 16.844l-.93 13.586c-.557 10.516-9.113 17.682-19.807 17.496z" fill="#EAA990" fill-rule="nonzero"/><path fill="#18203D" fill-rule="nonzero" d="M32.641 18.612l5.208 18.147L50.96 24.103z"/><g transform="translate(0 24.054)"><path stroke="#18203D" stroke-width=".977" stroke-linecap="round" stroke-linejoin="round" d="M15.81 13.077l-.559 3.537 2.232.279"/><path d="M27.34 3.399s-3.626-.744-3.812.93c0 0-.186 1.117 3.068 1.676 3.255.558 4.185.372 4.557-.559.28-1.116-2.139-1.86-3.813-2.047zM11.624 2.096s3.07 0 3.255 1.49c0 0 0 1.116-2.79.93-2.79 0-3.627-.559-3.812-1.303-.093-.93 1.86-1.117 3.347-1.117z" fill="#18203D" fill-rule="nonzero"/><ellipse fill="#18203D" fill-rule="nonzero" cx="11.438" cy="9.82" rx="1.86" ry="1.861"/><ellipse fill="#18203D" fill-rule="nonzero" cx="25.387" cy="10.844" rx="1.86" ry="1.861"/><g stroke="#FFF"><ellipse stroke-width=".912" cx="26.317" cy="10.192" rx="8.091" ry="8.096"/><ellipse stroke-width=".922" transform="rotate(92.142 8.427 8.404)" cx="8.427" cy="8.404" rx="8.096" ry="7.533"/><path d="M15.623 9.82l2.604.186m16.273.559l2.79-.745" stroke-width=".912"/></g><path d="M13.484 19.126s2.046 2.234 7.16.93" stroke="#18203D" stroke-width=".977" stroke-linecap="round" stroke-linejoin="round"/></g><path d="M15.81 6.142S4.463 8.375 7.532 21.683c0 0 12.275-6.049 16.46-13.028l-8.184-2.513z" fill="#18203D" fill-rule="nonzero"/><path d="M15.809 6.142s-.186 20.194 28.177 20.753c0 0 3.627-9.307-3.068-15.17-6.696-5.862-25.109-5.583-25.109-5.583z" fill="#18203D" fill-rule="nonzero"/><g transform="translate(35.338 30.71)"><ellipse fill="#EAA990" fill-rule="nonzero" cx="7.44" cy="6.98" rx="6.789" ry="6.793"/><path d="M5.022 9.027s0-4.932 4.742-4.002" stroke="#18203D" stroke-width="1.093" stroke-linecap="round" stroke-linejoin="round"/><ellipse fill="#FFF" fill-rule="nonzero" cx="5.022" cy="13.401" rx="1.86" ry="1.861"/></g><path d="M44.916 12.75s10.23-21.405 21.389-8.097C77.65 18.24 62.492 23.544 49.287 22.986l-4.37-10.237z" fill="#18203D" fill-rule="nonzero"/><path d="M32.641 69.982l8.928 2.605s-8.463 10.237-23.435 8.469c-14.507-1.861-6.23-13.029-6.23-13.029l8.09-.558 12.647 2.513z" fill="#EAA990" fill-rule="nonzero"/></g><path d="M540.577 165.741l-86.857 15.262-10.694 131.215-5.58 25.871 26.968 1.49 89.926-7.91c5.022-.466 9.857-2.141 14.042-4.933 7.254-4.932 11.624-10.423 11.996-28.849l2.232-108.974c.465-19.822-8.09-30.338-27.34-26.057 0 .186-14.693 2.885-14.693 2.885z" fill="url(#v)" fill-rule="nonzero"/><path d="M421.544 337.252l42.87 2.42s39.058-163.043-10.694-158.67c-50.403 4.375-32.176 156.25-32.176 156.25z" fill="url(#w)" fill-rule="nonzero"/><path d="M410.85 253.311l-.094.28.093-.28c-.093.093-.093 0 0 0z" fill="url(#x)" fill-rule="nonzero"/></g><g transform="translate(145.071 600.886)"><path d="M26.41 72.308l-3.533 9.678-1.674-.558c-.28-.093-.558-.28-.837-.372a45.067 45.067 0 01-2.14-1.117l-.836-.558C4.743 71.005 8.648 52.114 8.648 52.114 13.391 67.19 26.41 72.308 26.41 72.308z" fill="#EDD0B4" fill-rule="nonzero"/><path d="M22.784 73.797l-1.488 7.538c-.28-.093-.558-.28-.837-.372a45.607 45.607 0 01-2.14-1.117c.93-3.443 4.465-6.049 4.465-6.049z" fill="#E2C3AA" fill-rule="nonzero"/><ellipse fill="#2B3172" fill-rule="nonzero" opacity=".082" cx="63.48" cy="113.162" rx="50.626" ry="10.981"/><path d="M53.75 104.414c-.557 0-1.115.093-1.673.28l-8.277-1.769 9.95-11.167s20.18-1.954 30.596-10.33H26.503v29.128h33.385c-.093-3.35-2.79-6.142-6.137-6.142z" fill="#D6B499" fill-rule="nonzero"/><path d="M91.042 104.693c-.558 0-1.116.093-1.581.186l4.463-70.167-11.81-1.303-2.325 77.333h17.39c0-3.257-2.697-6.049-6.137-6.049z" fill="#D6B499" fill-rule="nonzero"/><path fill="#89563F" fill-rule="nonzero" d="M78.673 14.052V.093L99.225 12.75z"/><path d="M110.756 33.502c-6.044 1.489-13.763 2.42-23.713 2.42v-24.94h43.521s5.58 16.285-19.808 22.52z" fill="#EDD0B4" fill-rule="nonzero"/><path d="M110.756 33.502c19.343-10.33 15.716-16.751 15.716-16.751-1.952-1.303-2.231-4.188-2.324-5.77h6.416s5.58 16.286-19.808 22.52z" fill="#E2C3AA" fill-rule="nonzero"/><ellipse fill="#594A42" fill-rule="nonzero" cx="130.936" cy="10.981" rx="4.464" ry="4.467"/><ellipse fill="#594A42" fill-rule="nonzero" cx="97.644" cy="18.333" rx="1.674" ry="1.675"/><path fill="#EDD0B4" fill-rule="nonzero" d="M89.329 11.336L62.12 4.095l10.137 19.263v12.47H86.95z"/><path fill="#EDD0B4" fill-rule="nonzero" d="M92.53 32.571l-13.857 80.684h-8.741l2.325-77.427z"/><path d="M75.14 113.255c0-3.35 2.696-6.142 6.137-6.142 3.44 0 6.138 2.699 6.138 6.142H75.14zm-34.501 0c0-3.35 2.696-6.142 6.137-6.142a6.134 6.134 0 016.138 6.142H40.639zm63.515-81.801s-.093 1.303-.465 3.35c-.28 1.676-.651 3.91-1.302 6.422-.744 2.978-1.674 6.235-2.976 9.492-1.116 2.885-2.604 5.677-4.278 8.19-2.976 4.187-6.881 7.444-11.903 8.096-.65.093-1.302.093-2.046.093-9.3 0-9.206-8.655-6.602-17.775.836-3.07 2.045-6.142 3.254-8.934.372-.837.744-1.768 1.116-2.512 2.418-5.212 4.557-9.12 4.557-9.12l20.645 2.698z" fill="#EDD0B4" fill-rule="nonzero"/><path d="M83.137 74.17c-.558 6.327-6.045 10.794-12.461 13.865-3.813 1.769-7.905 3.071-11.625 4.002-6.788 1.768-12.368 2.233-12.368 2.233l-9.95 11.168 8.462 1.86v5.864h-25.76v-22.8c0-1.954.094-3.816.373-5.677C21.76 69.89 30.968 56.86 44.73 50.345c0 0 2.14-1.302 5.208-3.35 4.557-3.07 11.066-7.91 15.902-13.028 1.209-1.303 2.325-2.513 3.255-3.815 1.674-2.327 2.883-4.653 3.162-6.794.837-6.421 3.998 2.14 6.695 14.425.28 1.302.558 2.698.837 4.001.93 4.374 1.674 9.12 2.325 13.587.558 4.095.93 8.003 1.116 11.447.186 2.884.186 5.397-.093 7.351z" fill="#EDD0B4" fill-rule="nonzero"/><path d="M96.528 56.86c1.21-1.954 2.14-4.002 2.976-6.142-4.836-1.21-12.647-3.722-19.622-8.84-.65-.466-1.302-.931-1.953-1.49-3.347-2.698-6.416-6.049-8.834-10.143-.744.93-1.488 1.954-2.418 2.885 2.51 5.397 11.066 20.38 29.851 23.73zM70.676 69.33v18.798C66.863 89.897 62.77 91.2 59.05 92.13c-6.788 1.675-12.368 2.233-12.368 2.233L42.87 77.52c22.877 18.519 27.806-8.19 27.806-8.19z" fill="#E2C3AA" fill-rule="nonzero"/><path d="M2.883 55.371s.837-6.142 9.857-7.538M.465 53.324s.837-6.142 9.857-7.538" stroke="#EDD0B4" stroke-width=".936"/><path d="M101.643 50.718c-.372 1.024-1.302 2.14-3.534 3.071 0 0-14.135-.186-25.015-13.308a49.268 49.268 0 01-5.487-8.468s-.465-6.328 3.999-6.421c0 0 3.162 20.566 29.107 21.497.093 0 1.58 1.675.93 3.629z" fill="#F26522" fill-rule="nonzero"/><path d="M123.776 24.289l3.44 4.839c1.023 1.396.744 3.35-.744 4.374-1.394 1.023-3.347.744-4.37-.745l-3.441-4.839 5.115-3.63z" fill="#F9968C" fill-rule="nonzero"/><path d="M125.635 21.218s-3.068 6.886-9.764 7.538" stroke="#594A42" stroke-width="1.873" stroke-linecap="round" stroke-linejoin="round"/><path d="M103.689 34.805c-.28 1.675-.651 3.908-1.302 6.42-8.556-.558-15.81-5.49-15.81-5.49l17.112-.93z" fill="#E2C3AA" fill-rule="nonzero"/><path fill="#89563F" fill-rule="nonzero" d="M63.05 5.956l14.6 10.702-5.393 6.7z"/><path d="M101.643 50.718c-.372 1.024-1.302 2.14-3.534 3.071 0 0-14.135-.186-25.015-13.308.837.745 15.623 12.843 28.549 10.237z" fill="#D8501A" fill-rule="nonzero"/><path d="M49.938 46.996c-.837 4.001-2.79 10.702-6.882 12.935-5.951 3.257 5.022 28.477-22.04 24.94-.464-.093-.836-.093-1.208-.186C21.76 69.89 30.968 56.86 44.73 50.345c0 .094 2.14-1.209 5.208-3.35z" fill="#89563F" fill-rule="nonzero"/></g><g fill-rule="nonzero"><path d="M823.758 524.42c0 3.03-17.282 5.486-38.576 5.486-21.295 0-38.577-2.457-38.577-5.486 0-3.03 17.282-5.486 38.577-5.486 21.294 0 38.576 2.456 38.576 5.486z" fill="#292C6B" opacity=".38"/><g transform="translate(749.226 457.526)"><path d="M.164 24.4C.9 42.821 6.47 59.77 12.859 64.19c7.617 5.24 36.529 6.223 48.404-.409 4.014-2.947 7.617-10.153 9.993-19.323 3.03-11.626 4.259-26.364 2.293-39.628L1.802 4.094h-.328C.246 10.644-.164 17.604.164 24.399z" fill="#232360"/><path d="M.164 24.4c27.601 27.674 71.092 20.06 71.092 20.06 3.03-11.627 4.259-26.365 2.293-39.63L1.802 4.095h-.328C.246 10.644-.164 17.604.164 24.399z" fill="#2B3172"/><ellipse fill="#2D2D84" cx="37.43" cy="4.339" rx="36.119" ry="3.93"/><path d="M65.932 4.34c0 1.228-8.764 2.21-20.803 2.456h-.082c-.983 0-2.048.082-3.03.082h-8.764C19.493 6.714 8.927 5.65 8.927 4.339c0-1.31 10.484-2.374 24.162-2.538h8.6c.982 0 1.965 0 2.948.082h.082c12.204.246 21.213 1.228 21.213 2.456z" fill="#A39CD8"/></g><path d="M788.458 459.164s-10.156-28.657-6.716-46.834l6.306 14.329s3.686-21.861 8.518-30.786c0 0 6.389 27.02 6.389 34.798l2.948-5.895s.737 23.99-2.293 35.616l-15.152-1.228z" fill="#2D2D84"/><path d="M26.045 64.6S15.07 40.939 5.733 31.605c0 0 1.556 23.008 8.928 32.26l11.384.737z" fill="url(#y)" transform="translate(773.797 395.3)"/><path d="M794.846 460.31s7.126-28.657 18.265-37.417c0 0 .9 27.019-7.126 37.99l-11.139-.573z" fill="#232360"/><path d="M14.005 65.174S1.475 53.466.082 43.722c0 0 20.394 9.416 32.106 21.78 0 0-13.35 3.029-18.183-.328z" fill="url(#z)" transform="translate(773.797 395.3)"/><path d="M819.417 435.665s-17.855 9.17-24.817 25.955c0 0 9.337 2.047 13.433-1.965 4.095-4.094 11.384-23.99 11.384-23.99z" fill="#232366"/><path d="M775.599 461.21s-10.156-28.656-6.716-46.833l6.306 14.329s3.686-21.861 8.518-30.786c0 0 6.389 27.02 6.389 34.798l2.948-5.895s.737 23.99-2.293 35.616l-15.152-1.228z" fill="#2D2D84"/><path d="M783.707 462.112s-6.552-38.237 3.195-59.443c.081 0 10.893 30.786-3.195 59.443z" fill="#232366"/><path d="M786.983 461.948s-10.975-23.663-20.312-32.997c0 0 1.557 23.008 8.928 32.26l11.384.737z" fill="#232360"/><path d="M782.07 462.357s7.125-28.657 18.264-37.418c0 0 .9 27.02-7.126 37.991l-11.139-.573z" fill="#232360"/><path d="M774.944 462.603s-12.531-11.709-13.924-21.452c0 0 20.394 9.416 32.106 21.78 0 0-13.35 2.947-18.182-.328z" fill="#2D2D84"/><path d="M806.558 437.794s-17.855 9.17-24.816 25.955c0 0 9.337 2.047 13.432-1.965 4.095-4.012 11.384-23.99 11.384-23.99z" fill="#2D2D84"/></g><path d="M653.694 362.477s-4.506 3.103.246 6.942c4.753 3.838 6.227 9.065 7.047 13.639 1.065 5.798 4.26 17.15 18.6 12.658 0 0 6.145-3.92.246-13.393-5.9-9.474-7.62-3.022-13.11-12.333-5.49-9.31-11.062-7.758-13.029-7.513z" fill="#30308C" fill-rule="nonzero"/><path d="M687.043 416.134s3.36-21.316-29.907-49.655" stroke="#A39CD8" stroke-width=".823"/><path d="M716.705 380.852s2.54 2.532-.983 4.492c-3.524 1.96-5.08 5.146-6.146 8.004-1.393 3.675-4.752 10.617-13.438 6.044 0 0-3.523-3.186 1.393-8.657 4.917-5.472 5.326-1.062 9.915-6.452 4.588-5.39 7.948-3.839 9.259-3.43z" fill="#30308C" fill-rule="nonzero"/><path d="M687.617 417.196s-2.376-14.946 20.894-29.81" stroke="#A39CD8" stroke-width=".823"/><path d="M690.567 362.313s-3.606-.081-2.54 3.757c1.065 3.839-.246 7.269-1.557 9.964-1.721 3.512-4.425 10.78 4.916 13.884 0 0 4.752.327 5.326-7.024.492-7.35-2.868-4.573-2.13-11.597.737-7.024-2.868-8.33-4.015-8.984z" fill="#30308C" fill-rule="nonzero"/><path d="M687.043 415.48s5.244-18.784 3.851-49.737" stroke="#A39CD8" stroke-width=".823"/><path d="M687.535 420.462l.328-2.041c.081-.572.163-1.062.327-1.552l.902-2.123h-4.097l.901 2.123c.164.49.328 1.062.328 1.552l.328 2.041c-9.341 7.514-8.358 27.85-8.358 27.85h17.616c0 .082 1.065-20.336-8.276-27.85z" fill="#232360" fill-rule="nonzero"/><g fill-rule="nonzero"><path fill="#2B3172" d="M701.283 490.414l-28.967-40.699 1.27-.898 28.967 40.699z"/><path fill="#2B3172" d="M673.53 490.47l-1.27-.897 28.947-40.714 1.27.897z"/><path fill="#A39CD8" d="M667.296 447.904h40.15v2.858h-40.15z"/></g><g fill-rule="nonzero"><path fill="#9B92EB" d="M576.145 228.98l263.482-.246v12.951l-263.482.164z"/><path fill="#DBC3F4" d="M576.145 228.98l263.482-.574v1.558l-263.482.491z"/><path fill="#A59DE8" d="M728.412 112.997H831.04v113.61H728.41z"/><path d="M832.84 228.656H726.531V111.03h106.39l-.081 117.626zm-102.629-4.016h98.949V114.964h-98.949V224.64z" fill="#391F7A"/><path fill="#6A57DD" d="M738.47 120.703h82.43v97.052h-82.43z"/><g transform="translate(749.85 134.986)"><ellipse fill="#E5E1F8" cx="11.53" cy="11.476" rx="11.367" ry="11.394"/><ellipse fill="#2A2A6C" cx="42.769" cy="47.378" rx="19.381" ry="19.427"/><path fill="#2A2450" d="M29.112 5.738h22.652v10.164H29.112z"/><path fill="#5AC2EF" d="M7.278 36.64h10.14v22.706H7.278z"/></g><path d="M586.04 228.938h-6.215c-.736 0-1.39-.66-1.39-1.402l-.082-43.135c0-.742.654-1.402 1.39-1.402h6.215c.736 0 1.39.66 1.39 1.402l.082 43.052c0 .825-.654 1.485-1.39 1.485z" fill="#FFEE9F"/><path d="M597.08 228.938h-6.215c-.736 0-1.39-.661-1.39-1.405l-.082-43.13c0-.743.654-1.404 1.39-1.404h6.215c.736 0 1.39.661 1.39 1.405l.082 43.129c0 .744-.572 1.405-1.39 1.405z" fill="#5AC2EF"/><path d="M607.956 228.938h-6.215c-.736 0-1.39-.661-1.39-1.405l-.082-43.13c0-.743.654-1.404 1.39-1.404h6.215c.736 0 1.39.661 1.39 1.405l.082 43.129c-.081.744-.572 1.405-1.39 1.405z" fill="#F3856D"/><path d="M637.723 225.295l-5.561 3.525c-.654.328-1.39.082-1.8-.574l-19.789-36.968c-.327-.656-.082-1.557.49-1.885l5.561-3.525c.655-.328 1.39-.082 1.8.574l19.79 36.968c.245.656.163 1.476-.491 1.885z" fill="#373788"/><path d="M649.417 225.295l-5.561 3.525c-.654.328-1.39.082-1.8-.574l-19.79-36.968c-.326-.656-.08-1.557.492-1.885l5.56-3.525c.655-.328 1.39-.082 1.8 2.131l19.79 36.969c.49-.902.245-.082-.491.327z" fill="#F68370"/><path d="M663.318 192.426l2.29 33.033c0 2.05 1.554 3.771 3.517 3.771h28.458c1.962 0 3.516-1.721 3.516-3.77l2.29-33.034h-40.07z" fill="#232360"/><path d="M698.319 192.426c-.082 2.623-.164 5.164-.491 7.705-.818 5.902-3.108 11.312-6.787 15.984-3.108 4.016-7.115 7.95-11.45 10.656a23.196 23.196 0 01-4.987 2.377h23.06c1.963 0 3.517-1.721 3.517-3.77l2.29-33.034h-5.152v.082z" fill="#2D2D84"/><path d="M705.024 194.639a.909.909 0 01-.9.902H662.91c-.491 0-.9-.41-.9-.902v-3.853c0-.492.409-.901.9-.901h41.215c.49 0 .9.41.9.901v3.853z" fill="#A39CD8"/><path d="M676.32 174.72s-.244-14.017-6.705-19.59c0 0 11.612 1.885 16.437 13.033 0 0-5.56 13.689-6.705 17.131l-3.026-10.574z" fill="#2C2A6C"/><path d="M4.334 6.148c5.316 2.95 8.995 8.688 8.995 15.082 0 .492 0 .984-.081 1.476 1.799-4.509 3.68-9.099 3.68-9.099C12.103 2.377.49.574.49.574c1.635 1.393 2.862 3.443 3.843 5.574z" fill="url(#A)" transform="translate(669.125 154.556)"/><path d="M665.608 186.196s-7.278-11.968-20.198-13.853c0 0 11.203-4.344 23.306-1.885 0 0 6.869 11.066 3.843 15.082l-6.95.656z" fill="#2C2A6C"/><path d="M11.122 4.017c7.523 0 13.983 5 16.355 11.803 2.208-4.344-4.17-14.59-4.17-14.59C11.202-1.23 0 3.115 0 3.115c2.126.328 4.17.902 6.051 1.721 1.636-.574 3.353-.82 5.07-.82z" fill="url(#B)" transform="translate(645.41 169.31)"/><path d="M689.65 190.049s18.482-1.23 25.596 12.54c0 0 3.925-25.164-26.986-19.098l1.39 6.558z" fill="#2C2A6C"/><path d="M47.594 31.558c1.635-.082 3.27.164 4.824.574 3.026.82 6.297 2.131 8.832 3.935 2.453 1.721 4.58 3.852 6.215 6.393 1.063 1.64 1.8 3.361 2.535 5.164.327-4.918-.245-23.197-27.15-17.869l.573 2.541c1.39-.082 2.78-.656 4.17-.738z" fill="url(#C)" transform="translate(645.41 153.736)"/><path d="M690.305 190.049s9.976-16.558 30.91-20.001c0 0-31.483-7.541-37.861 20.083l6.95-.082z" fill="#2C2A6C"/><path d="M44.895 28.28c2.862-2.46 5.888-4.919 9.24-6.804 3.272-1.885 7.033-3.443 10.795-4.098 2.617-.492 5.316-.902 8.014-.902.818 0 1.636 0 2.453-.082.164 0 .328-.082.41-.082 0 0-31.484-7.541-37.863 20.082h.245c2.127-2.786 4.007-5.82 6.706-8.114z" fill="url(#D)" transform="translate(645.41 153.736)"/><path d="M685.97 190.13s4.58-23.197 12.349-36.312c0 0-21.508 9.672-19.054 36.476l6.705-.163z" fill="#2C2A6C"/><path d="M38.844 21.476c1.39-6.23 3.925-11.804 8.34-16.558 1.473-1.557 3.19-2.787 4.989-3.606.245-.492.49-.902.736-1.312 0 0-21.507 9.672-19.054 36.476l3.108-.082c-.164-1.639 0-6.475 1.88-14.918z" fill="url(#E)" transform="translate(645.41 153.736)"/><path d="M679.265 190.294s-19.381-.901-29.358 8.361c0 0 2.944-20 29.521-14.426l-.163 6.065z" fill="#2C2A6C"/><path d="M25.105 31.968c3.108 0 6.133.656 8.832 1.803l.082-3.278C8.505 25.165 4.825 43.362 4.579 44.837c3.762-7.54 11.613-12.869 20.526-12.869z" fill="url(#F)" transform="translate(645.41 153.736)"/><path d="M679.51 190.458s3.353-17.131-12.021-26.558c0 0-3.762 15.82 6.787 23.444 1.145.901 5.234 3.114 5.234 3.114z" fill="#2C2A6C"/><path d="M13.002 25.41c.41-4.344.491-17.377-12.184-25.082 0 0-.736 3.033-.654 7.05 7.36 2.786 12.675 9.836 12.838 18.033z" fill="url(#G)" transform="translate(666.671 163.572)"/></g><g fill-rule="nonzero"><path fill="url(#H)" d="M188.624 1.235h1v136.398h-1z" transform="translate(285.2)"/><path fill="#391F7A" d="M474.397.833h.9v136.8h-.9z"/><path fill="url(#I)" opacity=".25" d="M212.6 174.393h-46.89L.656 373.013H386.33z" transform="translate(285.2)"/><path d="M501.565 157.61c-.246 2.374-1.064 6.795-1.882 10.479a215.624 215.624 0 00-1.391 6.959c-3.028.41-6.056.737-9.166.982-4.91.41-9.983.655-14.975.655-8.02 0-16.12-.49-24.059-1.555 0 0-2.7-12.772-3.273-17.52-.49-4.75 6.628-8.76 6.628-8.76h41.571c.082.081 7.12 4.093 6.547 8.76z" fill="#F68370"/><path d="M495.1 148.931c-3.11.327-6.055.655-9.165.819-3.846.245-7.774.327-11.62.327-6.956 0-13.83-.327-20.786-1.228 0 0 14.648-7.286 16.94-8.842 2.29-1.474 1.882-6.058 1.882-6.058h4.173s-.409 4.666 1.882 6.058c1.146.737 5.401 2.947 9.33 4.912 3.6 2.21 7.364 4.012 7.364 4.012z" fill="#373788"/><path d="M495.1 148.931c-3.11.327-6.055.655-9.165.819-3.028-2.375-10.31-7.778-10.966-9.17-.654-1.31-.163-5.567 0-6.631h1.473s-.409 4.666 1.883 6.058c1.145.737 5.4 2.947 9.328 4.912 3.683 2.21 7.447 4.012 7.447 4.012z" fill="#2A2450"/><path d="M501.565 157.61c-.246 2.374-1.064 6.795-1.882 10.479a215.624 215.624 0 00-1.391 6.959c-8.02 1.064-16.04 1.556-24.06 1.556-8.019 0-16.12-.492-24.058-1.556 0 0-2.7-12.772-3.273-17.52a109.4 109.4 0 0054.664.081z" fill="#2A2A6C"/></g><g fill-rule="nonzero"><path fill="#131313" opacity=".146" d="M351.245 96.32h47.565v76.055h-47.565z"/><g transform="translate(352.345 95.05)"><path fill="#391F7A" d="M.016.164h47.565v76.055H.016z"/><path fill="#271152" d="M4.062 4.016h39.473v68.351H4.062z"/><path fill="#A59DE8" d="M5.879 5.573h35.839V70.81H5.879z"/><path fill="#6A57DD" d="M9.017 9.917H38.58v56.632H9.017z"/><ellipse fill="#E5E1F8" cx="30.157" cy="20.489" rx="3.881" ry="3.852"/><path d="M24.954 59.336c4.047-3.524 9.332-5.245 13.626-4.835v-6.557c-5.78 5.246-16.186 4.262-20.067-6.31-2.725-7.376-6.11-9.917-9.579-8.442v22.784c4.294 4.098 10.983 7.786 16.02 3.36z" fill="#5AC2EF"/><path d="M24.954 59.336c-5.037 4.344-11.726.656-16.02-3.36v10.49h29.563V54.501c-4.211-.41-9.414 1.311-13.543 4.835z" fill="#2A2450"/></g></g><g fill-rule="nonzero"><path fill="#391F7A" d="M278.254 150.639h44.574v71.543h-44.574z"/><path fill="#271152" d="M281.935 154.387h37.131v64.128h-37.131z"/><path fill="#FFF" d="M283.734 155.772h33.533v61.276h-33.533z"/><path fill="#6A57DD" d="M286.678 159.847h27.726v53.209h-27.726z"/><g transform="translate(286.597 165.632)"><ellipse fill="#C6C4F7" cx="19.874" cy="4.156" rx="3.599" ry="3.585"/><path d="M15.049 32.756c-6.707 0-12.105 2.608-14.967 4.808v9.86h27.726V36.178c-2.127-1.63-6.053-3.423-12.76-3.423z" fill="#5AC2EF"/><ellipse fill="#2A2450" cx="8.179" cy="18.171" rx="2.208" ry="7.822"/><path fill="#2A2450" d="M7.77 23.549h1v11h-1z"/><ellipse fill="#2A2450" cx="13.577" cy="24.282" rx="1.227" ry="4.4"/><path fill="#2A2450" d="M13.331 27.297h1v6.193h-1z"/><ellipse fill="#2A2450" cx="18.975" cy="22.245" rx="1.636" ry="5.704"/><path fill="#2A2450" d="M18.648 26.156h1v7.904h-1z"/></g></g></g></svg>