<svg width="152" height="60" viewBox="0 0 152 60" xmlns="http://www.w3.org/2000/svg"><g fill="none"><path d="M0 37.677h1.099v-5.76c0-.876.099-1.87.387-2.802.576-1.972 1.855-3.733 3.89-3.733.288 0 .603.056.603.056v-1.134s-.369-.083-.756-.083c-2.062 0-3.521 1.687-4.17 3.742H.992s.108-.48.108-1.097v-2.534H0v13.345zm6.727-6.645c0 4.24 3.052 6.968 6.726 6.968 2.819 0 4.638-1.843 4.638-1.843l-.604-.931s-1.54 1.677-4.043 1.677c-3.026 0-5.583-2.212-5.583-6.083h10.455s.054-.424.054-.719c0-3.225-1.774-6.083-5.322-6.083-3.323 0-6.321 2.507-6.321 7.014zM7.95 29.78c.468-3.125 2.684-4.72 5.088-4.72 2.161 0 4.07 1.466 4.196 4.72H7.951zm12.409 6.295s1.567 1.917 4.718 1.917c2.395 0 4.17-1.466 4.17-3.604 0-4.433-7.168-3.392-7.168-6.857 0-1.733 1.458-2.433 2.944-2.433 2.215 0 3.287 1.253 3.287 1.253l.648-.912S27.762 24 25.096 24c-2.215 0-4.169 1.226-4.169 3.604 0 4.35 7.168 3.391 7.168 6.774 0 1.659-1.405 2.507-2.999 2.507-2.584 0-4.043-1.678-4.043-1.678l-.693.867zm10.832-5.143c0 3.972 3.026 7.069 6.754 7.069 3.728 0 6.754-3.097 6.754-7.07 0-3.898-3.026-6.912-6.754-6.912-3.728 0-6.754 3.014-6.754 6.913zm1.144 0c0-3.309 2.503-5.816 5.601-5.816 3.107 0 5.61 2.507 5.61 5.816 0 3.392-2.503 5.981-5.61 5.981-3.098-.009-5.601-2.599-5.601-5.981zm15.47 6.746h1.099v-6.506c0-.646.054-1.254.207-1.816.648-2.48 2.818-4.24 5.268-4.24 2.917 0 3.205 2.194 3.205 4.516v8.056h1.099v-8.461c0-3.152-.91-5.208-4.304-5.208-3.26 0-5.088 2.507-5.53 3.76h-.053s.099-.478.099-1.096v-2.35h-1.099v13.345h.01zM61.43 34.13c0 2.673 2.324 3.871 4.43 3.871 3.386 0 4.593-3.281 4.566-3.281h.054s-.099.48-.099 1.198v1.76h1.099V29.06c0-3.336-1.621-5.042-4.62-5.042-2.845 0-4.403 1.466-4.403 1.466l.621.912s1.459-1.28 3.728-1.28c2.09 0 3.575 1.013 3.575 3.98v.452h-.864c-2.324-.009-8.087.046-8.087 4.581zm1.144-.083c0-3.465 4.745-3.465 6.96-3.465h.838v.719c0 2.645-1.62 5.659-4.457 5.659-2.215 0-3.341-1.494-3.341-2.913zm12.733 3.631h1.098v-6.506c0-.646.054-1.254.207-1.816.658-2.48 2.819-4.24 5.268-4.24 2.918 0 3.206 2.194 3.206 4.516v8.056h1.098v-8.461c0-3.152-.91-5.208-4.304-5.208-3.26 0-5.088 2.507-5.529 3.76h-.054s.108-.478.108-1.096v-2.35h-1.098v13.345zm13.912-6.645c0 4.24 3.053 6.968 6.726 6.968 3.233 0 4.926-2.083 4.926-2.083l-.576-.93s-1.486 1.916-4.359 1.916c-3.052 0-5.582-2.322-5.582-5.87 0-3.604 2.53-5.927 5.582-5.927 2.504 0 3.99 1.705 3.99 1.705l.675-.903s-1.567-1.899-4.665-1.899c-3.61.01-6.717 2.784-6.717 7.023zm13.138 0c0 4.24 3.052 6.968 6.726 6.968 2.819 0 4.638-1.843 4.638-1.843l-.603-.931s-1.54 1.677-4.044 1.677c-3.025 0-5.583-2.212-5.583-6.083h10.455s.054-.424.054-.719c0-3.225-1.774-6.083-5.322-6.083-3.323 0-6.321 2.507-6.321 7.014zm1.225-1.253c.468-3.125 2.683-4.72 5.087-4.72 2.161 0 4.07 1.466 4.196 4.72h-9.283z" fill="#5C5958"/><path fill="#A4A6A8" d="M112.4 0L104 6.844l1.596 10.495L115.601 21 124 14.165l-1.605-10.504z"/><path fill="#FFF" d="M129.602 39l-10.004-3.664L118 24.841 126.398 18l10.004 3.655L138 32.159z"/><path d="M130.189 39l-.119-.045-10.386-3.794-1.684-11L126.811 17l10.505 3.839 1.684 11L130.189 39zm-10.086-4.165l10.004 3.658 8.41-6.835-1.602-10.484-10.013-3.658-8.41 6.835 1.61 10.484z" fill="#A4A6A8"/><path fill="#00A2CD" d="M132 41.914l1.68 10.5 10 3.586 8.32-6.914-1.68-10.5-10-3.586z"/><path fill="#DADADB" d="M110 45.08l1.819 10.996L121.823 60 130 52.928l-1.828-11.004L118.177 38z"/></g></svg>