
<svg width="1448px" height="1853px" viewBox="0 0 1448 1853" version="1.1" xmlns="http://www.w3.org/2000/svg" xmlns:xlink="http://www.w3.org/1999/xlink">
    <defs>
        <path d="M11.8268781,-112 L33.1297873,-112 L33.1297873,-112 L1466.25413,-112 C1539.02937,-112 1598.02537,-53.0040051 1598.02537,19.7712427 L1598.02537,1351.90009 L1598.02537,1351.90009 L1598.02537,1721.22876 C1598.02537,1794.00401 1539.02937,1853 1466.25413,1853 L11.7966118,1853 C-60.978636,1853.00203 -119.974631,1794.00603 -119.974631,1721.23079 C-119.974631,1721.23011 -119.974631,1721.22943 -119.972601,1721.22876 L-119.946394,19.7712427 C-119.943244,-53.0032125 -60.9475771,-111.99797 11.8268781,-112 Z" id="path-1"></path>
        <path d="M310.855428,113.993988 L310.855428,637.222745 L310.855428,637.222745 C354.493198,411.692293 477.190357,308.356618 678.946907,327.215718 C1017.0611,358.820787 932.09155,81.9422976 1194.03265,114.801179 C1334.4595,132.416853 1445.73376,88.2240419 1527.85543,-17.777255 L442.62667,-17.777255 C369.851422,-17.777255 310.855428,41.2187399 310.855428,113.993988 Z" id="path-3"></path>
    </defs>
    <g id="Alice.si...kalokairi" stroke="none" stroke-width="1" fill="none" fill-rule="evenodd">
        <g id="Alice.si" transform="translate(8.000000, 0.000000)">
            <mask id="mask-2" fill="white">
                <use xlink:href="#path-1"></use>
            </mask>
            <use id="Mask" fill="#EA4C89" xlink:href="#path-1"></use>
            <path d="M-100.175005,88.3890299 L-133.562091,706.109926 L-133.562091,706.109926 C-54.0081672,892.160675 101.255372,967.186818 332.228528,931.188356 C678.688261,877.190662 634.552543,573.79523 1088.50234,543.589487 C1391.13553,523.452325 1569.78072,324.569971 1624.43791,-53.0575764 L30.0162917,-36.2632032 C-39.4562008,-35.5314351 -96.4253631,19.0139415 -100.175005,88.3890299 Z" id="Path-blue-1" fill="#2FB9EF" mask="url(#mask-2)" transform="translate(745.437909, 443.442424) rotate(7.000000) translate(-745.437909, -443.442424) "></path>
            <g id="Path-yellow-1-" mask="url(#mask-2)" transform="translate(919.355428, 309.722745) scale(-1, 1) translate(-919.355428, -309.722745) ">
                <use fill="#FF3C38" xlink:href="#path-3"></use>
                <use fill="#FFC800" xlink:href="#path-3"></use>
            </g>
            <!-- <g id="Use-case-1" transform="translate(-212.000000, 1500.000000)" fill="#ffffff">
                <path d="M0,139.434624 L0,562.889992 L0,562.889992 C176.35674,705.626202 380.021688,763.524155 610.994843,736.583849 C957.454576,696.173392 915.071026,396.376586 1364.86247,429.296993 C1467.43351,436.804206 1577.80428,508.72936 1655.15809,467.708297 C1745.09952,420.011965 1827.78156,264.109199 1903.20422,0 L131.201285,7.6646141 C58.6491995,7.97843059 -3.73068605e-14,66.8818597 0,139.434624 Z" 
                id="Path-white" 
                transform="translate(1200.602112, 371.500000) scale(1, -1) translate(-951.602112, -371.500000) "></path>
            </g> -->
        </g>
    </g>
</svg>



