
<svg width="1440px" height="2240px" viewBox="0 0 1440 2240" version="1.1" xmlns="http://www.w3.org/2000/svg" xmlns:xlink="http://www.w3.org/1999/xlink">
    <defs>
        <path d="M131.826878,0 L153.129787,0 L153.129787,0 L1586.25413,0 C1659.02937,8.74845036e-14 1718.02537,58.9959949 1718.02537,131.771243 L1718.02537,1463.90009 L1718.02537,1463.90009 L1718.02537,1833.22876 C1718.02537,1906.00401 1659.02937,1965 1586.25413,1965 L131.796612,1965 C59.021364,1965.00203 0.0253691448,1906.00603 0.0253691448,1833.23079 C0.0253691448,1833.23011 0.0253691501,1833.22943 0.0273987751,1833.22876 L0.0536057806,131.771243 C0.0567563481,58.9967875 59.0524229,0.0020296459 131.826878,0 Z" id="path-1"></path>
        <path d="M430.855428,225.993988 L430.855428,749.222745 L430.855428,749.222745 C474.493198,523.692293 597.190357,420.356618 798.946907,439.215718 C1137.0611,470.820787 1052.09155,193.942298 1314.03265,226.801179 C1454.4595,244.416853 1565.73376,200.224042 1647.85543,94.222745 L562.62667,94.222745 C489.851422,94.222745 430.855428,153.21874 430.855428,225.993988 Z" id="path-3"></path>
    </defs>
    <g id="Alice.si...kalokairi" stroke="none" stroke-width="1" fill="none" fill-rule="evenodd">
        <g id="Alice.si">
            <g id="Background" transform="translate(-120.000000, -112.000000)">
                <mask id="mask-2" fill="white">
                    <use xlink:href="#path-1"></use>
                </mask>
                <use id="Mask" fill="#EA4C89" xlink:href="#path-1"></use>
                <path d="M19.8249952,200.38903 L-13.5620911,818.109926 L-13.5620911,818.109926 C65.9918328,1004.16067 221.255372,1079.18682 452.228528,1043.18836 C798.688261,989.190662 754.552543,685.79523 1208.50234,655.589487 C1511.13553,635.452325 1689.78072,436.569971 1744.43791,58.9424236 L150.016292,75.7367968 C80.5437992,76.4685649 23.5746369,131.013941 19.8249952,200.38903 Z" id="Path-blue-1" fill="#2FB9EF" mask="url(#mask-2)" transform="translate(865.437909, 555.442424) rotate(7.000000) translate(-865.437909, -555.442424) "></path>
                <g id="Path-yellow-1-" mask="url(#mask-2)" transform="translate(1039.355428, 421.722745) scale(-1, 1) translate(-1039.355428, -421.722745) ">
                    <use fill="#FF3C38" xlink:href="#path-3"></use>
                    <use fill="#FFC800" xlink:href="#path-3"></use>
                </g>
            </g>
            <path d="M-136,1637.43462 L-136,2060.88999 L-136,2060.88999 C40.3567402,2203.6262 244.021688,2261.52415 474.994843,2234.58385 C821.454576,2194.17339 779.071026,1894.37659 1228.86247,1927.29699 C1331.43351,1934.80421 1441.80428,2006.72936 1519.15809,1965.7083 C1609.09952,1918.01196 1691.78156,1762.1092 1767.20422,1498 L-4.79871475,1505.66461 C-77.3508005,1505.97843 -136,1564.88186 -136,1637.43462 Z" id="Path-white" fill="#FFFFFF" transform="translate(815.602112, 1869.500000) scale(1, -1) translate(-815.602112, -1869.500000) "></path>
        </g>
    </g>
</svg>