
<svg width="1440px" height="1200px" viewBox="0 0 1440 1200" version="1.1" xmlns="http://www.w3.org/2000/svg" xmlns:xlink="http://www.w3.org/1999/xlink">
    <defs>
        <path d="M131.826878,0 L153.129787,0 L153.129787,0 L1586.25413,0 C1659.02937,8.74845036e-14 1718.02537,58.9959949 1718.02537,131.771243 L1718.02537,1463.90009 L1718.02537,1463.90009 L1718.02537,1833.22876 C1718.02537,1906.00401 1659.02937,1965 1586.25413,1965 L131.796612,1965 C59.021364,1965.00203 0.0253691448,1906.00603 0.0253691448,1833.23079 C0.0253691448,1833.23011 0.0253691501,1833.22943 0.0273987751,1833.22876 L0.0536057806,131.771243 C0.0567563481,58.9967875 59.0524229,0.0020296459 131.826878,0 Z" id="path-1"></path>
    </defs>
    <g id="Alice.si...kalokairi" stroke="none" stroke-width="1" fill="none" fill-rule="evenodd">
        <g id="Alice.si">
            <g id="Use-case-1" transform="translate(-212.000000, 50.000000)" fill="yellow">
                <path d="M0,139.434624 L0,562.889992 L0,562.889992 C176.35674,705.626202 380.021688,763.524155 610.994843,736.583849 C957.454576,696.173392 915.071026,396.376586 1364.86247,429.296993 C1467.43351,436.804206 1577.80428,508.72936 1655.15809,467.708297 C1745.09952,420.011965 1827.78156,264.109199 1903.20422,0 L131.201285,7.6646141 C58.6491995,7.97843059 -3.73068605e-14,66.8818597 0,139.434624 Z" id="Path-white" transform="translate(951.602112, 371.500000) scale(1, -1) translate(-951.602112, -371.500000) "></path>
            </g>
        </g>
    </g>
</svg>