
<svg width="660px" height="658px" viewBox="0 0 660 658" version="1.1" xmlns="http://www.w3.org/2000/svg" xmlns:xlink="http://www.w3.org/1999/xlink">
    <g id="Alice.si...kalokairi" stroke="none" stroke-width="1" fill="none" fill-rule="evenodd">
        <g id="Alice.si" transform="translate(-39.000000, -2310.000000)">
            <g id="Use-case-2" transform="translate(0.000000, 2241.000000)">
                <g id="Education-illustration" transform="translate(39.000000, 69.000000)">
                    <path d="M92,22.527778 C92,22.527778 100.249923,9.27743644 119.978301,10.7496585 C119.978301,10.7496585 148.620072,-11.3350454 179.16305,7.80521443 C179.16305,7.80521443 211.630207,3.06264713 235.674394,11.9114329 C251.705256,17.8113103 257,24 257,24 L92,22.527778 Z" id="Fill-3" fill="#F8FCFF"></path>
                    <path d="M32,220.60747 C32,220.60747 44.1501524,199.075831 73.2042849,201.467984 C73.2042849,201.467984 115.385932,165.580788 160.367444,196.683301 C160.367444,196.683301 208.182354,188.976594 243.592959,203.355911 C267.202442,212.943002 275,223 275,223 L32,220.60747 Z" id="Fill-5" fill="#F8FCFF"></path>
                    <path d="M212,106.423475 C212,106.423475 225.65028,83.2354731 258.291231,85.8119982 C258.291231,85.8119982 305.680658,47.1637593 356.215205,80.658948 C356.215205,80.658948 409.933361,72.3597487 449.715757,87.8449725 C476.239473,98.1695414 485,109 485,109 L212,106.423475 Z" id="Fill-7" fill="#F8FCFF"></path>
                    <polygon id="Fill-9" fill="#2B478B" points="105 229 660 229 660 223 105 223"></polygon>
                    <polygon id="Fill-11" fill="#2B478B" points="441 433 459 433 459 430 441 430"></polygon>
                    <path d="M450,420.666878 C446.507931,420.666878 443.666402,423.508407 443.666402,427.000476 C443.666402,430.492069 446.507931,433.333122 450,433.333122 C453.492069,433.333122 456.333598,430.492069 456.333598,427.000476 C456.333598,423.508407 453.492069,420.666878 450,420.666878 M450,436 C445.036961,436 441,431.962563 441,427.000476 C441,422.037437 445.036961,418 450,418 C454.963039,418 459,422.037437 459,427.000476 C459,431.962563 454.963039,436 450,436" id="Fill-12" fill="#2B478B"></path>
                    <path d="M402,483.999823 C402,459.147142 422.147221,439 447,439 C471.852779,439 492,459.147142 492,483.999823 C492,508.852504 471.852779,529 447,529 C422.147221,529 402,508.852504 402,483.999823" id="Fill-13" fill="#F78248"></path>
                    <path d="M464.920875,458.231169 C461.255515,453.845643 461.006122,448.395599 464.36366,446.058473 C467.720842,443.721996 473.414121,445.382826 477.079125,449.769002 C480.744485,454.154529 480.993878,459.604573 477.63634,461.941374 C474.279158,464.278175 468.585879,462.617021 464.920875,458.231169" id="Fill-14" fill="#FFC9A1"></path>
                    <path d="M447,227.689571 C445.930927,227.689571 445.061339,229.074549 445.061339,230.776796 L445.061339,239.223204 C445.061339,240.925451 445.930927,242.310429 447,242.310429 C448.069073,242.310429 448.938661,240.925451 448.938661,239.223204 L448.938661,230.776796 C448.938661,229.074549 448.069073,227.689571 447,227.689571 M447,244 C445.345894,244 444,241.857341 444,239.223204 L444,230.776796 C444,228.142659 445.345894,226 447,226 C448.654106,226 450,228.142659 450,230.776796 L450,239.223204 C450,241.857341 448.654106,244 447,244" id="Fill-15" fill="#2B478B"></path>
                    <polygon id="Fill-16" fill="#2B478B" points="446.264931 424 447.735069 424 447.735069 245 446.264931 245"></polygon>
                    <polygon id="Fill-17" fill="#2B478B" points="333 433 351 433 351 430 333 430"></polygon>
                    <path d="M342,420.666878 C338.507931,420.666878 335.666878,423.508407 335.666878,427.000476 C335.666878,430.492069 338.507931,433.333122 342,433.333122 C345.492069,433.333122 348.333122,430.492069 348.333122,427.000476 C348.333122,423.508407 345.492069,420.666878 342,420.666878 M342,436 C337.037437,436 333,431.962563 333,427.000476 C333,422.037437 337.037437,418 342,418 C346.962563,418 351,422.037437 351,427.000476 C351,431.962563 346.962563,436 342,436" id="Fill-18" fill="#2B478B"></path>
                    <path d="M303,483.999823 C303,459.147142 323.147142,439 347.999823,439 C372.852504,439 393,459.147142 393,483.999823 C393,508.852504 372.852504,529 347.999823,529 C323.147142,529 303,508.852504 303,483.999823" id="Fill-19" fill="#F78248"></path>
                    <path d="M356.920875,458.231169 C353.255515,453.845643 353.006122,448.395599 356.36366,446.058473 C359.720842,443.721996 365.413765,445.382826 369.079125,449.769002 C372.744485,454.154529 372.993878,459.604573 369.63634,461.941374 C366.279158,464.278175 360.586235,462.617021 356.920875,458.231169" id="Fill-20" fill="#FFC9A1"></path>
                    <path d="M345,227.689571 C343.930927,227.689571 343.061112,229.074549 343.061112,230.776796 L343.061112,239.223204 C343.061112,240.925451 343.930927,242.310429 345,242.310429 C346.069073,242.310429 346.938888,240.925451 346.938888,239.223204 L346.938888,230.776796 C346.938888,229.074549 346.069073,227.689571 345,227.689571 M345,244 C343.345667,244 342,241.857341 342,239.223204 L342,230.776796 C342,228.142659 343.345667,226 345,226 C346.654333,226 348,228.142659 348,230.776796 L348,239.223204 C348,241.857341 346.654333,244 345,244" id="Fill-21" fill="#2B478B"></path>
                    <polygon id="Fill-22" fill="#2B478B" points="344.264931 424 345.735069 424 345.735069 245 344.264931 245"></polygon>
                    <polygon id="Fill-23" fill="#2B478B" points="69.6874083 421 54 414.251947 56.3121977 409 72 415.748442"></polygon>
                    <path d="M65.5273179,406.193041 C62.3249222,404.799132 58.5861765,406.270612 57.1922373,409.472937 C55.7987741,412.674786 57.2702865,416.413925 60.4726821,417.806881 C63.6746018,419.20079 67.4138235,417.72931 68.8072867,414.527461 C70.20075,411.325612 68.7297135,407.586473 65.5273179,406.193041 M59.4085483,420.252527 C54.8579008,418.271835 52.76723,412.958898 54.7474898,408.408827 C56.7277496,403.85828 62.0408042,401.76718 66.5914517,403.747396 C71.1420992,405.728087 73.23277,411.0415 71.2525102,415.591571 C69.2722504,420.142118 63.9591958,422.232743 59.4085483,420.252527" id="Fill-24" fill="#2B478B"></path>
                    <path d="M3.74846033,439.047528 C13.6631685,416.265037 40.1701121,405.833773 62.9527024,415.748438 C85.7349381,425.663457 96.1662478,452.16993 86.2515397,474.95242 C76.3368315,497.735265 49.8302424,508.166175 27.0472976,498.25151 C4.2650619,488.336491 -6.16624781,461.830018 3.74846033,439.047528" id="Fill-25" fill="#F78248"></path>
                    <path d="M66.5126544,448.277065 C64.863163,442.562567 67.3255889,437.134592 72.0129952,436.153269 C76.7004016,435.1716 81.837447,439.00809 83.4873456,444.722935 C85.136837,450.437433 82.6744111,455.865408 77.9870048,456.846731 C73.2995984,457.8284 68.1621457,453.99191 66.5126544,448.277065" id="Fill-26" fill="#FFC9A1"></path>
                    <path d="M126,227.689571 C124.930927,227.689571 124.061112,229.074549 124.061112,230.776796 L124.061112,239.223204 C124.061112,240.925451 124.930927,242.310429 126,242.310429 C127.069073,242.310429 127.938888,240.925451 127.938888,239.223204 L127.938888,230.776796 C127.938888,229.074549 127.069073,227.689571 126,227.689571 M126,244 C124.345667,244 123,241.857341 123,239.223204 L123,230.776796 C123,228.142659 124.345667,226 126,226 C127.654106,226 129,228.142659 129,230.776796 L129,239.223204 C129,241.857341 127.654106,244 126,244" id="Fill-27" fill="#2B478B"></path>
                    <path d="M70.4737027,409 L69,407.998403 C69.1066967,407.744015 79.7928316,382.203063 91.9057657,349.361896 C103.07669,319.07373 117.779703,276.207931 124.383796,244 L126,244.537498 C119.362967,276.904992 104.616273,319.903912 93.4138405,350.275962 C81.2833623,383.164541 70.5803994,408.745156 70.4737027,409 L135.74711,255.22819" id="Fill-28" fill="#2B478B"></path>
                    <polygon id="Fill-29" fill="#2B478B" points="569.312592 421 585 414.251947 582.687408 409 567 415.748442"></polygon>
                    <path d="M567.192797,414.527315 C568.586208,417.729712 572.325291,419.200749 575.527091,417.807285 C578.729367,416.413821 580.200825,412.674598 578.807414,409.472677 C577.414002,406.27028 573.67492,404.799243 570.473119,406.192707 C567.270843,407.586171 565.799385,411.325394 567.192797,414.527315 M564.747664,415.591449 C562.767002,411.041276 564.858071,405.728219 569.408549,403.747482 C573.959503,401.767221 579.271884,403.857893 581.252546,408.409019 C583.232732,412.958716 581.142139,418.271773 576.591185,420.25251 C572.041183,422.232771 566.72785,420.142099 564.747664,415.591449" id="Fill-30" fill="#2B478B"></path>
                    <path d="M632.251339,439.047528 C622.336636,416.265037 595.830062,405.833773 573.047485,415.748438 C550.264908,425.663457 539.833604,452.16993 549.748661,474.95242 C559.663364,497.735265 586.169938,508.166175 608.952515,498.25151 C631.735092,488.336491 642.166396,461.830018 632.251339,439.047528" id="Fill-31" fill="#F78248"></path>
                    <path d="M575.487183,448.277065 C577.137089,442.562567 574.674244,437.134592 569.986815,436.153269 C565.299387,435.1716 560.162317,439.00809 558.512817,444.722935 C556.862911,450.437433 559.325756,455.865408 564.013185,456.846731 C568.700613,457.8284 573.837683,453.99191 575.487183,448.277065" id="Fill-32" fill="#FFC9A1"></path>
                    <path d="M513.000114,227.689571 C511.931082,227.689571 511.061299,229.074549 511.061299,230.776796 L511.061299,239.223204 C511.061299,240.925451 511.931082,242.310429 513.000114,242.310429 C514.069146,242.310429 514.938701,240.925451 514.938701,239.223204 L514.938701,230.776796 C514.938701,229.074549 514.069146,227.689571 513.000114,227.689571 M513.000114,244 C511.345843,244 510,241.857341 510,239.223204 L510,230.776796 C510,228.142659 511.345843,226 513.000114,226 C514.654157,226 516,228.142659 516,230.776796 L516,239.223204 C516,241.857341 514.654157,244 513.000114,244" id="Fill-33" fill="#2B478B"></path>
                    <path d="M565.6042,409 C565.50278,408.7467 555.36313,383.32112 543.871098,350.631865 C533.258268,320.443888 519.287715,277.705568 513,245.53424 L514.53114,245 C517.984855,262.671166 526.126967,295.185966 545.303532,349.733308 C556.778265,382.373625 566.899258,407.75208 567,408.004473 L565.6042,409 Z" id="Fill-34" fill="#2B478B"></path>
                    <path d="M167.413092,372.757294 C167.387497,372.047511 166.845495,364.399324 155.348652,364 C155.348652,364 161.002035,364.682704 161.979144,367.201079 C161.979144,367.201079 158.129424,364.089247 154.994845,365.090037 C151.85989,366.091209 150.018588,371.656578 150.000145,373.48691 C149.981702,375.317242 151.72326,381.218242 153.71286,381.720162 C154.466769,381.910099 155.334726,381.859373 156.122511,381.722832 C155.593306,382.560765 155.07464,383.484512 154.578557,384.516577 C149.991112,394.058408 154.721962,403.383987 158.605934,402.353829 C161.096509,401.693247 161.801112,406 161.801112,406 L186,386.148582 C186,386.148582 177.111918,367.512682 167.413092,372.757294 L130.5,394" id="Fill-47" fill="#2C3A64"></path>
                    <path d="M174,653.046185 L168.891907,655 C168.891907,655 146.704844,623.390456 143.973121,595.579805 C143.48498,590.615154 143.647694,585.804196 144.702902,581.362099 C144.702902,581.362099 144.485951,580.089526 144.106659,577.840621 C143.931227,576.790901 143.71465,575.527165 143.468522,574.078998 C142.74697,569.834012 141.754602,564.024821 140.620094,557.41105 C138.009565,542.190118 134.627361,522.733036 132,508.429263 L133.376148,507.975102 L148.268767,503.040421 L151.346491,492.998924 L162.435346,490 C162.435346,490 164.912712,494.978099 167.127116,518.492277 C167.535958,521.5765 167.907021,524.977715 168.18644,528.665949 C169.049758,539.924306 169.112225,553.889572 167.131231,569.855145 C166.622516,573.942212 165.980264,578.161454 165.183901,582.497118 C164.600002,585.675478 164.512473,590.006916 164.758227,594.98002 C165.875903,617.714593 174,653.046185 174,653.046185" id="Fill-48" fill="#AEC3FF"></path>
                    <path d="M168,531.29609 L144.044283,580 C143.869755,578.960702 143.654293,577.709054 143.409433,576.274739 C142.691599,572.070359 141.704345,566.316736 140.575681,559.766229 C137.978603,544.690892 134.613825,525.419928 132,511.252978 L133.369058,510.803161 L148.184947,505.915683 L151.246814,495.970238 L162.278538,493 C162.278538,493 164.743139,497.930481 166.946135,521.219353 C167.35287,524.274455 167.722021,527.643135 168,531.29609" id="Fill-49" fill="#94B0ED"></path>
                    <path d="M156,492.972047 L155.405952,488.085724 C145.451867,490.621611 118.855677,481 118.855677,481 C118.855677,481 109.21257,489.129598 110.478808,508.616772 C111.096777,518.128259 112.225468,558.546059 113.404393,570.505871 C113.830592,574.840815 114.203766,577.925787 114.356065,579.157788 C114.359255,579.163905 114.359255,579.166964 114.359255,579.170023 C114.405901,579.545512 114.269151,579.900735 114.070205,580.22881 C112.33431,583.054152 110.897432,585.995352 109.718507,589.005762 C98.1465387,618.579893 111.50065,655 111.50065,655 L114.96606,653.660553 C114.96606,653.660553 122.565086,613.129189 128.739992,595.22312 C129.788147,592.186327 130.792845,589.799565 131.713818,588.37332 C134.398196,584.217708 136.889607,577.427557 139.151374,569.351492 C143.425327,554.083021 146.865621,534.220358 149.155296,518.888796 C149.471058,518.902944 156,492.972047 156,492.972047" id="Fill-50" fill="#AEC3FF"></path>
                    <path d="M221.315541,481 C221.315541,481 221.011378,481 220.479553,480.961489 C218.80684,480.847067 214.739808,480.617483 210.140951,480.119432 C203.223173,479.431049 195.012977,478.206104 191.744052,476.177984 C186.764899,473.117104 178.592953,463.740798 173.271387,454.364492 C173.11949,454.135278 173.005474,453.906063 172.891459,453.676109 C170.116845,448.70116 168.178219,443.763982 168.026322,439.822904 C167.911939,437.411896 168.178219,435.345265 168.672162,433.54673 C169.318371,431.174233 170.382758,429.299046 171.485027,427.883398 C171.636925,427.653073 171.78919,427.423859 172.01722,427.232415 C173.841463,425.051362 175.628191,424.133024 175.628191,424.133024 C176.540312,423.749766 177.528567,424.209675 178.554703,425.319087 L178.554703,425.357228 C179.39106,426.237795 180.303181,427.576421 181.17742,429.260535 C181.215302,429.299046 181.253552,429.337186 181.253552,429.375697 C181.443333,429.719704 181.633848,430.102592 181.861879,430.52325 C181.937644,430.599901 181.975526,430.715064 182.013776,430.791715 C182.431954,431.671543 182.849765,432.589881 183.267943,433.54673 C187.943301,443.802493 192.922454,459.339811 197.065618,463.970383 C198.851978,465.960362 207.024291,469.86404 213.523524,472.771987 C218.198881,474.838618 222,476.369428 222,476.369428 L221.315541,481 Z" id="Fill-51" fill="#FFB27D"></path>
                    <path d="M171,439.326864 C168.173628,440.74743 164.760563,441.714932 160.631709,441.95886 C145.153014,442.878671 141.639341,428.169514 141,418.40654 C143.231384,417.530511 145.185468,417.613384 146.310896,417.679057 C147.408558,417.744339 148.55418,417.866693 149.499309,417.992957 C151.392451,416.920691 154.793978,411.712208 156.759962,403 L157.42743,403.335792 L168.595889,409.027439 C168.595889,409.027439 167.40988,412.96742 166.533265,416.737746 C165.849931,419.688333 165.359517,422.538457 165.769517,423.336304 C166.650099,423.724087 167.176573,423.968015 167.176573,423.968015 C167.176573,423.968015 167.176573,423.972315 167.18054,423.980915 C167.293407,424.290515 169.721678,430.997747 171,439.326864" id="Fill-52" fill="#FFB27D"></path>
                    <path d="M178.329052,446.624531 C174.440191,455.174082 167.241272,490.589739 167.241272,490.589739 C168.266163,496.957078 120.362086,489.339787 120.238312,483.542101 C118.551266,477.394589 126.224891,467.518037 130.552327,462.563146 C131.095,461.940179 131.581152,461.272662 132.004345,460.568263 C133.072878,458.801242 133.750773,456.806359 133.966483,454.722011 C134.816087,446.503662 134.493059,438.801288 134.564247,434.118078 C135.410273,433.478313 136.227682,432.887845 136.989643,432.32586 C138.154405,431.458599 139.183231,430.648668 139.940899,429.826322 C140.774405,428.930944 141.297046,428.014751 141.356787,426.98061 C141.400787,426.198797 141.376819,425.3969 141.297046,424.595003 C141.261273,424.215964 141.213338,423.837291 141.157532,423.458617 C140.559053,419.481267 138.931748,415.874191 138.931748,415.874191 C143.051702,414.172533 153.541361,415.47945 153.541361,415.47945 C153.541361,415.47945 154.384526,423.67808 166.056119,424.00271 C170.253342,424.119196 169.68205,420.470857 169.68205,420.470857 C176.254945,423.104775 180,425.905572 180,425.905572 C176.039593,428.527439 181.775047,437.398698 178.711821,445.691905 C178.596275,446.005215 178.468566,446.310856 178.329052,446.624531 Z" id="Fill-53" fill="#F99746"></path>
                    <path d="M168,408.096605 C168,408.096605 166.724262,411.620931 165.784407,415 C158.770751,413.231712 156.640775,406.571229 156,403 L168,408.096605 Z" id="Fill-54" fill="#ED985F"></path>
                    <path d="M172.814401,408.976897 C172.814401,408.976897 156.794868,405.162709 159.257363,394.934841 C161.719488,384.706973 161.310428,377.325951 171.6427,379.329132 C181.974971,381.331932 183.015004,385.739768 183,389.359117 C182.985045,392.978467 177.044803,409.705638 172.814401,408.976897" id="Fill-55" fill="#FFB27D"></path>
                    <path d="M188.278259,387.988281 C186.534979,384.528709 184.483622,384.713035 183.200401,385.326744 C175.581929,378.638808 168.109823,384.102523 168.109823,384.102523 C165.233431,390.694567 159,393.388067 159,393.388067 C159,393.388067 161.490827,395.808098 168.709883,395.754824 C170.915092,395.738132 173.132279,394.777791 175.149572,393.454126 C171.258357,397.172606 166.695584,399.436368 166.695584,399.436368 C175.732412,397.795549 181.792526,387.869659 182.413548,386.815202 C183.178689,387.888127 184.643463,390.171067 184.76662,392.099207 C184.933948,394.719191 183.983885,399.80715 185.565077,400 C185.565077,400 190.892242,393.17675 188.278259,387.988281" id="Fill-56" fill="#2C3A64"></path>
                    <path d="M186,435.379778 C186,435.379778 183.871533,435.189278 183.011836,439 C183.011836,439 182.805804,427.898278 184.112978,427 C184.112978,427 185.121258,428.440835 186,435.379778 Z" id="Fill-57" fill="#F99746"></path>
                    <path d="M126,463.97349 C127.205847,462.020721 127.970599,459.816139 128.213545,457.512284 C129.172411,448.430034 128.80759,439.918401 128.887899,434.742495 C129.842326,434.035479 130.764468,433.382942 131.624058,432.762286 C132.93806,431.803859 134.098708,430.908386 134.953455,430 C143.682528,444.752905 165.652916,484.152501 151.200912,484 C140.541595,483.886966 131.516306,472.818857 126,463.97349 Z" id="Fill-58" fill="#ED7D2B"></path>
                    <path d="M129,658 L105.130914,658 C105.130914,658 104.559008,653.133328 105.805888,649.440378 C107.000366,645.897392 108.871553,644.28724 108.423537,640 C109.940059,642.089298 112.411955,644.429312 115.862824,643.808094 C116.285507,644.725064 118.59187,649.633057 120.004283,650.990637 C121.564183,652.490289 128.51971,651.955893 129,658" id="Fill-59" fill="#233862"></path>
                    <path d="M192,658 L168.251818,658 C168.251818,658 167.363764,654.310615 168.923037,651.800247 C170.303111,649.579083 169.774146,648.313642 168.752125,646.47618 C169.82801,646.90528 171.219478,647.29537 172.751819,647.209954 C173.935085,647.143706 175.18637,646.620782 176.283662,646 C177.305683,647.134962 181.68242,651.966035 183.050064,652.923103 C184.60174,654.009304 191.522136,653.62224 192,658" id="Fill-60" fill="#233862"></path>
                    <path d="M192,489.189248 L190.985537,493 C190.985537,493 178.392559,490.428554 175.626342,489.838 L175.588579,489.838 C170.852463,488.730801 165.548073,487.402946 161.076663,485.926561 C157.932085,484.856494 155.203998,483.712875 153.347387,482.5689 C153.158207,482.457859 153.006789,482.347531 152.816875,482.199714 C148.383962,479.063779 143.116967,469.839138 139.025386,459.949676 C138.456744,458.584332 137.926232,457.219345 137.395719,455.890777 C135.501346,450.946046 133.986068,446.075581 133.076828,441.869222 C132.508186,439.359902 132.129458,437.071951 132.053566,435.190319 C132.015803,434.525856 131.977674,433.89924 132.015803,433.307972 C132.091329,422.607659 137.547504,421.131988 137.547504,421.131988 C137.661159,421.094855 137.774814,421.05808 137.926232,421.021304 C138.873601,420.873487 139.858734,421.500817 140.881996,422.718701 C142.169964,424.230791 143.534191,426.703334 144.936181,429.692167 C147.095627,434.451948 149.369094,440.614562 151.490777,446.740044 C152.665457,450.097705 153.802008,453.455366 154.938925,456.554883 C155.583092,458.436872 156.227259,460.207821 156.833297,461.831666 C158.007977,464.931183 159.068635,467.439788 160.016005,469.026858 C160.62241,470.060149 162.364998,471.499045 164.676595,473.122533 C168.692651,475.963905 192,489.189248 192,489.189248" id="Fill-61" fill="#FFB27D"></path>
                    <path d="M141,429.49285 C134.225356,427.578559 129,433 129,433 C129.084785,422.557426 134.156234,421.127553 134.156234,421.127553 C136.196867,420.262021 138.561319,423.883644 141,429.49285" id="Fill-62" fill="#F99746"></path>
                    <polygon id="Fill-63" fill="#2B478B" points="257.614669 433 240 432.519712 240.384925 430 258 430.48046"></polygon>
                    <path d="M249.408067,420.680135 C245.923191,420.455037 242.905154,423.107667 242.680062,426.592159 C242.454971,430.077127 245.107055,433.095243 248.591931,433.320341 C252.076807,433.545438 255.09532,430.893284 255.319935,427.408792 C255.545027,423.923349 252.892943,420.905233 249.408067,420.680135 M248.420138,435.981061 C243.468121,435.661261 239.699144,431.372509 240.018936,426.420838 C240.338728,421.467739 244.627843,417.699138 249.57986,418.018939 C254.532353,418.338739 258.300854,422.627967 257.981062,427.580114 C257.66127,432.532261 253.372631,436.300861 248.420138,435.981061" id="Fill-64" fill="#2B478B"></path>
                    <path d="M198.095153,481.100443 C199.696359,456.299931 221.09932,437.493589 245.89939,439.095155 C270.699815,440.696012 289.506092,462.099047 287.904886,486.899559 C286.30368,511.699716 264.90072,530.506413 240.100294,528.904847 C215.300224,527.303635 196.493593,505.900955 198.095153,481.100443" id="Fill-65" fill="#F78248"></path>
                    <path d="M260.48263,459.924452 C257.054764,454.667398 257.193746,448.424298 260.793425,445.980585 C264.392739,443.536872 270.08919,445.817919 273.517055,451.075345 C276.945286,456.332771 276.806304,462.575498 273.206625,465.019584 C269.607311,467.462924 263.910496,465.18225 260.48263,459.924452" id="Fill-66" fill="#FFC9A1"></path>
                    <path d="M261.160526,227.691463 C260.202535,227.691463 259.393881,228.949424 259.331478,230.582598 L259.008059,239.019273 C258.942644,240.719876 259.710844,242.192452 260.720263,242.301934 C261.729252,242.411417 262.603537,241.117929 262.668737,239.417688 L262.992156,230.98065 C263.057356,229.280409 262.289156,227.807834 261.279952,227.697989 C261.239928,227.693639 261.200119,227.691463 261.160526,227.691463 M260.840335,244 C260.779008,244 260.717466,243.996737 260.655493,243.989849 C259.093702,243.820188 257.905251,241.541357 258.005956,238.910153 L258.329375,230.473478 C258.430295,227.842636 259.782069,225.84005 261.344507,226.010074 C262.906298,226.180098 264.094749,228.458566 263.994044,231.08977 L263.670625,239.526445 C263.573793,242.053242 262.322509,244 260.840335,244" id="Fill-67" fill="#2B478B"></path>
                    <polygon id="Fill-68" fill="#2B478B" points="250.824511 424 249 423.866126 259.175489 245 261 245.133874"></polygon>
                    <path d="M191.724757,481 C191.724757,481 198.447463,483.502201 199.749103,484.47585 C201.051128,485.449132 203.551768,488.631016 204,490.30857 C204,490.30857 203.976935,490.99596 203.306894,490.995226 C202.637237,490.994492 201.130318,488.536697 200.029344,488.929754 C200.029344,488.929754 201.42978,492.185037 202.254741,493.009318 C203.079318,493.833231 203.549462,497.978121 203.381471,498.877636 C203.213865,499.777152 197.551768,495.48693 195.180292,493.537063 C193.917478,492.498455 193.954382,489.978271 193.563429,487.131824 C193.220528,484.634394 186,483.190252 186,483.190252 L191.724757,481 Z" id="Fill-69" fill="#FFB27D"></path>
                    <path d="M37.9603008,658 L77.3702966,658 C79.4822248,656.280313 75.9089869,652.373834 72.1753074,652.111419 C70.5539249,651.993491 68.5032228,652.319651 66.1600374,652.794902 C65.6178553,645.878263 62.5207787,614.787559 50.8487426,616.036598 C37.7246176,617.435437 50.8487426,629.728577 54.5588169,637.007144 C57.3069791,642.397809 60.2059933,650.128609 61.5308354,653.776923 C60.4656506,653.998612 59.3624761,654.216052 58.2356964,654.415076 C56.4962879,649.286826 50.023667,632.037193 41.7928271,633.041878 C32.1287088,634.219027 36.0132403,641.134959 42.8628068,645.240463 C47.8881336,648.259476 54.0590505,652.550194 56.9912595,654.623663 C54.5068117,655.012505 51.9142963,655.275274 49.2837913,655.216487 C42.5330716,655.062438 39.2379326,656.97265 37.9603008,658" id="Fill-84" fill="#A8D29F"></path>
                    <path d="M640.039886,658 L600.629617,658 C598.517833,656.28015 602.091214,652.37387 605.824688,652.111397 C607.446378,651.993937 609.496994,652.319491 611.839854,652.795132 C612.382053,645.87839 615.479311,614.78767 627.151323,616.036592 C640.275872,617.435239 627.151323,629.729052 623.44126,637.007239 C620.69326,642.398085 617.793853,650.128711 616.468938,653.777231 C617.534836,653.9991 618.637736,654.215894 619.764423,654.415286 C621.503916,649.286913 627.976705,632.037291 636.207488,633.041867 C645.871173,634.218645 641.986669,641.135025 635.137437,645.240696 C630.111898,648.259498 623.941171,652.550423 621.009292,654.623742 C623.493365,655.012739 626.086181,655.275212 628.716754,655.216481 C635.467061,655.062406 638.762169,656.972585 640.039886,658" id="Fill-85" fill="#A8D29F"></path>
                    <path d="M474.714868,621.712238 C477.759435,622.327153 488.635687,621.829862 488.987386,621.396606 C489.339541,620.963577 482.225833,616.832659 479.182177,616.217745 C476.138065,615.603057 472.67073,616.334234 471.43705,617.851765 C470.203369,619.369069 471.670756,621.097324 474.714868,621.712238" id="Fill-86" fill="#A8D29F"></path>
                    <path d="M498.920065,628.008589 C498.132825,630.966261 497.777298,642.453962 498.146048,642.968925 C498.514797,643.482927 502.812188,637.491683 503.599427,634.534491 C504.386876,631.577299 503.977621,627.718442 502.685214,625.916554 C501.393226,624.114665 499.707514,625.051397 498.920065,628.008589" id="Fill-87" fill="#A8D29F"></path>
                    <path d="M487.065876,639.853549 C490.138204,640.356614 500.712862,639.438194 500.992449,638.987939 C501.272484,638.538143 493.688737,634.645651 490.61641,634.142587 C487.543635,633.639522 484.258373,634.509955 483.277805,636.087111 C482.297684,637.664037 483.993548,639.350485 487.065876,639.853549" id="Fill-88" fill="#A8D29F"></path>
                    <path d="M503.668363,652 C503.660054,651.804395 502.705964,632.307277 492,622.240634 L492.227594,622 C503.032182,632.159582 503.991691,651.788905 504,651.985951 L503.668363,652 Z" id="Fill-89" fill="#A8D29F"></path>
                    <path d="M531.0126,621.945434 C530.827624,621.770247 532.725033,619.630104 533.702023,619.222809 C534.679014,618.815219 535.996848,618.982591 536.645436,619.596188 C537.294024,620.209932 537.027828,621.037794 536.050838,621.445237 C535.073847,621.852679 531.19781,622.120621 531.0126,621.945434 Z" id="Fill-90" fill="#A8D29F"></path>
                    <path d="M521.958944,636.971943 C521.682293,637.218187 517.541267,635.787939 516.640295,634.858557 C515.739588,633.929175 515.796031,632.476333 516.766166,631.613208 C517.736301,630.750591 519.252849,630.804663 520.153556,631.733792 C521.053998,632.663174 522.235861,636.725445 521.958944,636.971943 Z" id="Fill-91" fill="#A8D29F"></path>
                    <path d="M529.944589,636.629016 C528.950955,637.007334 525.167166,637.093457 525.00855,636.900418 C524.849933,636.707225 526.938617,634.557266 527.932023,634.178948 C528.925658,633.80032 530.181831,634.042239 530.737446,634.718649 C531.293061,635.39537 530.937996,636.250543 529.944589,636.629016" id="Fill-92" fill="#A8D29F"></path>
                    <path d="M525.407211,645.965589 C525.392391,645.837236 523.985463,633.066626 528,625.126288 L527.871559,625 C523.819724,633.013633 525.237273,645.871303 525.251846,646 L525.407211,645.965589 Z" id="Fill-93" fill="#A8D29F"></path>
                    <path d="M515.130942,654.891863 C511.708625,620.37381 498.189847,595.602838 498,595.266212 L498.791183,595 C498.979648,595.340578 512.597957,620.274295 516,655 L515.130942,654.891863 Z" id="Fill-94" fill="#A8D29F"></path>
                    <path d="M495.60937,586.764602 C496.499073,587.702625 500.665533,589.211608 500.953003,588.975214 C501.240718,588.738821 500.149368,584.704339 499.259664,583.766316 C498.36996,582.828294 496.831544,582.739045 495.823558,583.566995 C494.815325,584.395174 494.719666,585.826351 495.60937,586.764602" id="Fill-95" fill="#FFFFFF"></path>
                    <path d="M499.369545,583.875307 C498.521484,584.838374 497.75104,588.778515 498.076039,588.983474 C498.400778,589.188434 502.642377,587.437382 503.490437,586.474315 C504.338757,585.511248 504.103574,584.148806 502.965818,583.431119 C501.827803,582.713431 500.217605,582.91224 499.369545,583.875307" id="Fill-96" fill="#FFFFFF"></path>
                    <path d="M510.153783,589.048399 C508.096793,588.83037 501.16347,589.406471 501.00359,589.63497 C500.84371,589.863317 506.067099,591.72863 508.123699,591.946811 C510.180299,592.16484 512.302411,591.692822 512.86316,590.892319 C513.423909,590.092119 512.210382,589.266429 510.153783,589.048399" id="Fill-97" fill="#FFFFFF"></path>
                    <path d="M506.992953,596.855633 C506.913186,594.777459 505.418693,588.942761 505.183032,589.000424 C504.947522,589.057706 503.924655,595.504934 504.004422,597.583109 C504.084037,599.661283 504.817711,601.183063 505.643133,600.982195 C506.468402,600.781328 507.072569,598.933426 506.992953,596.855633" id="Fill-98" fill="#FFFFFF"></path>
                    <path d="M497.992181,594.836316 C498.990933,594.470191 501.142346,592.325151 500.992565,592.126245 C500.842783,591.927196 497.092045,591.945488 496.093499,592.311468 C495.094746,592.677593 494.710182,593.539469 495.234419,594.236718 C495.758862,594.933968 496.993428,595.202296 497.992181,594.836316" id="Fill-99" fill="#FFFFFF"></path>
                    <path d="M498.018863,590.264172 C498.149052,589.446233 498.917767,588.888673 499.735706,589.018863 C500.554105,589.149052 501.111665,589.917767 500.981016,590.735706 C500.850826,591.554105 500.081651,592.111665 499.264172,591.981016 C498.446233,591.850826 497.888673,591.082111 498.018863,590.264172" id="Fill-100" fill="#163560"></path>
                    <path d="M514.690304,612.457166 C512.078685,615.30958 509.260273,627.276781 510.176766,627.93911 C511.093746,628.601008 523.708156,623.710293 526.319775,620.857449 C528.931394,618.005035 528.444992,613.812009 525.233381,611.492563 C522.022254,609.172686 517.301923,609.604752 514.690304,612.457166" id="Fill-101" fill="#A8D29F"></path>
                    <path d="M474,658 L473.432641,657.986721 C467.49647,633.341764 456.158168,616.479589 456,616.25073 L456.478057,616 C456.635336,616.231593 468.0545,633.203902 474,658" id="Fill-102" fill="#A8D29F"></path>
                    <path d="M456.387711,612.144773 C456.857947,612.587948 458.871224,613.120977 458.988059,612.975589 C459.104724,612.8302 458.339505,610.743659 457.869439,610.300299 C457.399204,609.857124 456.686441,609.91063 456.277348,610.420042 C455.868084,610.929269 455.917475,611.701597 456.387711,612.144773" id="Fill-103" fill="#FFFFFF"></path>
                    <path d="M462.368803,610.528489 C461.990864,611.025455 461.907136,612.916599 462.100451,612.995746 C462.293766,613.074894 464.443758,612.029493 464.821697,611.532683 C465.199636,611.035717 464.957145,610.408135 464.279695,610.13073 C463.602245,609.85348 462.746742,610.031679 462.368803,610.528489" id="Fill-104" fill="#FFFFFF"></path>
                    <path d="M464.179043,616.009218 C463.660301,615.898142 462.020097,616.823022 462.000212,617.057642 C461.98004,617.292263 463.405937,618.874987 463.924822,618.98629 C464.443564,619.097366 464.921104,618.521356 464.991348,617.699165 C465.061448,616.8772 464.697928,616.120521 464.179043,616.009218" id="Fill-105" fill="#FFFFFF"></path>
                    <path d="M461.96087,620.824288 C461.773269,620.308538 459.985727,618.966488 459.754798,619.00064 C459.524096,619.034936 458.844921,620.741658 459.032295,621.257553 C459.219896,621.773448 460.027466,622.094562 460.83617,621.97503 C461.644647,621.855354 462.148244,621.340183 461.96087,620.824288" id="Fill-106" fill="#FFFFFF"></path>
                    <path d="M457.695192,618.760402 C458.18009,618.343839 459.090672,616.21327 458.992687,616.044751 C458.895026,615.876429 456.939861,616.207745 456.454801,616.624506 C455.969903,617.041069 455.854559,617.857027 456.197021,618.446845 C456.539484,619.036467 457.210294,619.176965 457.695192,618.760402" id="Fill-107" fill="#FFFFFF"></path>
                    <path d="M461.265195,615.980685 C461.27564,615.576083 461.613558,615.257102 462.019533,615.267511 C462.42517,615.278256 462.745906,615.614697 462.734788,616.019299 C462.724344,616.423901 462.386425,616.743218 461.980451,616.732473 C461.574814,616.721729 461.254414,616.384952 461.265195,615.980685" id="Fill-108" fill="#163560"></path>
                    <path d="M471.939441,629.995059 C471.149374,631.964666 470.7747,639.63321 471.141441,639.978834 C471.508447,640.324457 475.804372,636.350801 476.594704,634.380789 C477.3853,632.410776 476.98392,629.832174 475.698342,628.620669 C474.412764,627.409569 472.729773,628.025046 471.939441,629.995059" id="Fill-109" fill="#A8D29F"></path>
                    <path d="M552,649 L552.579132,648.897295 C554.860477,616.105126 563.873412,592.572545 564,592.252548 L563.472262,592 C563.346709,592.323062 554.267548,616.010468 552,649" id="Fill-110" fill="#A8D29F"></path>
                    <path d="M569.390602,592.764543 C568.500965,593.702399 564.334692,595.211191 564.046982,594.975314 C563.759272,594.738923 564.851024,590.704344 565.740661,589.766231 C566.630298,588.828375 568.168525,588.738957 569.176614,589.567097 C570.184427,590.39498 570.280515,591.826687 569.390602,592.764543" id="Fill-111" fill="#FFFFFF"></path>
                    <path d="M563.315197,589.875358 C563.739293,590.838332 564.124476,594.778533 563.961979,594.98351 C563.799628,595.188241 561.678712,593.437177 561.254762,592.47445 C560.830666,591.511476 560.94813,590.148661 561.517235,589.431117 C562.086193,588.713326 562.891247,588.912384 563.315197,589.875358" id="Fill-112" fill="#FFFFFF"></path>
                    <path d="M559.423144,598.048409 C560.451693,597.830344 563.918286,598.406513 563.998197,598.63497 C564.078326,598.863427 561.466669,600.728564 560.43812,600.9468 C559.40957,601.164865 558.348618,600.692788 558.068384,599.892421 C557.788149,599.092225 558.394594,598.266474 559.423144,598.048409" id="Fill-113" fill="#FFFFFF"></path>
                    <path d="M561.007086,601.927871 C561.086775,600.888657 562.581111,597.971481 562.816772,598.000211 C563.052262,598.028726 564.075276,601.2525 563.995587,602.2915 C563.915728,603.330714 563.182012,604.091633 562.356858,603.991078 C561.531534,603.890737 560.927227,602.967086 561.007086,601.927871" id="Fill-114" fill="#FFFFFF"></path>
                    <path d="M570.007887,600.836245 C569.008968,600.470111 566.857771,598.325384 567.007424,598.126146 C567.157076,597.927231 570.907887,597.945505 571.906575,598.311477 C572.905262,598.677448 573.289818,599.539414 572.765571,600.236588 C572.241324,600.933923 571.006575,601.202378 570.007887,600.836245" id="Fill-115" fill="#FFFFFF"></path>
                    <path d="M566.981012,593.264371 C566.85083,592.446087 566.082139,591.888683 565.263855,592.018865 C564.446088,592.149563 563.888683,592.917737 564.018865,593.736021 C564.149047,594.553789 564.917738,595.11171 565.736022,594.981012 C566.553789,594.85083 567.11171,594.082139 566.981012,593.264371" id="Fill-116" fill="#163560"></path>
                    <path d="M551.873222,630.457362 C553.61422,633.310066 555.493305,645.276703 554.882085,645.939041 C554.271227,646.60138 545.861311,641.709855 544.120313,638.858119 C542.378952,636.005416 542.703459,631.812542 544.844184,629.49242 C546.985274,627.172783 550.132224,627.604658 551.873222,630.457362" id="Fill-117" fill="#A8D29F"></path>
                    <path d="M444,658 C444,658 447.759991,646.281303 461.413777,645.545392 C475.067166,644.80948 484.467737,654.373981 495.748502,649.959921 C507.02887,645.545392 525.698486,635.577948 543.360658,642.217118 C561.022433,648.855819 564,658 564,658 L444,658 Z" id="Fill-118" fill="#A8D29F"></path>
                    <path d="M306,649 L305.131088,648.897659 C301.708957,616.105281 288.18974,592.572605 288,592.25297 L288.791556,592 C288.980323,592.32396 302.598303,616.010507 306,649" id="Fill-119" fill="#A8D29F"></path>
                    <path d="M279.609359,589.764663 C280.498857,590.702626 284.665166,592.211534 284.953098,591.975231 C285.24051,591.738928 284.149018,587.704623 283.25952,586.766418 C282.369763,585.828213 280.831445,585.739055 279.823555,586.567082 C278.815406,587.394868 278.719602,588.826458 279.609359,589.764663" id="Fill-120" fill="#FFFFFF"></path>
                    <path d="M292.369591,586.875178 C291.521599,587.838244 290.751171,591.778881 291.075951,591.983463 C291.400731,592.188508 295.642336,590.437269 296.490602,589.474435 C297.338594,588.511601 297.10371,587.148882 295.965746,586.431222 C294.827781,585.713329 293.217857,585.912344 292.369591,586.875178" id="Fill-121" fill="#FFFFFF"></path>
                    <path d="M294.15373,598.04839 C292.096759,597.830364 285.163745,598.406587 285.003584,598.635026 C284.843835,598.863464 290.066961,600.728459 292.123521,600.946806 C294.180492,601.164832 296.302516,600.692896 296.863283,599.89256 C297.423639,599.092223 296.210701,598.266576 294.15373,598.04839" id="Fill-122" fill="#FFFFFF"></path>
                    <path d="M287.992934,599.855354 C287.913038,597.777614 286.418699,591.942765 286.183173,592.000424 C285.947646,592.05768 284.924682,598.504601 285.004418,600.583148 C285.084155,602.661291 285.817794,604.183005 286.643018,603.982206 C287.468403,603.781408 288.072671,601.933901 287.992934,599.855354" id="Fill-123" fill="#FFFFFF"></path>
                    <path d="M281.992312,600.836298 C282.990875,600.470266 285.142231,598.325324 284.992577,598.126265 C284.842923,597.927206 281.092211,597.945454 280.09343,598.311486 C279.094649,598.67767 278.710167,599.5396 279.2345,600.236688 C279.758833,600.933927 280.993531,601.20233 281.992312,600.836298" id="Fill-124" fill="#FFFFFF"></path>
                    <path d="M285.018869,593.263993 C285.149522,592.445494 285.917897,591.888332 286.735813,592.019 C287.553729,592.149183 288.111311,592.917649 287.981144,593.736148 C287.850977,594.553676 287.082116,595.111324 286.263714,594.981141 C285.445798,594.850958 284.888702,594.082006 285.018869,593.263993" id="Fill-125" fill="#F78248"></path>
                    <path d="M306.126839,603.457224 C304.385878,606.309953 302.506869,618.276756 303.117829,618.939176 C303.72913,619.600685 312.138709,614.710162 313.879671,611.857432 C315.620974,609.005158 315.296701,604.812566 313.155608,602.492504 C311.014858,600.172898 307.867801,600.604495 306.126839,603.457224" id="Fill-126" fill="#A8D29F"></path>
                    <path d="M290.81886,634.293576 C292.826589,634.994486 297.266744,639.257264 296.987408,639.667757 C296.708072,640.07798 289.281372,640.199416 287.273263,639.498507 C285.265155,638.797869 284.430942,637.064341 285.410136,635.627206 C286.389331,634.189798 288.810751,633.592667 290.81886,634.293576" id="Fill-127" fill="#A8D29F"></path>
                    <path d="M321,655 L321.868685,654.88116 C325.29088,616.910762 338.810161,589.662889 339,589.292558 L338.208437,589 C338.019869,589.374692 324.401431,616.801735 321,655" id="Fill-128" fill="#A8D29F"></path>
                    <path d="M347.390594,580.764677 C346.50097,581.702645 342.334842,583.211559 342.04697,582.975225 C341.759323,582.738892 342.850888,578.704389 343.740512,577.766421 C344.630136,576.828242 346.168548,576.739012 347.176442,577.567126 C348.184562,578.39503 348.280445,579.826499 347.390594,580.764677" id="Fill-129" fill="#FFFFFF"></path>
                    <path d="M334.630372,578.750852 C335.478545,580.676907 336.248895,588.557285 335.923996,588.966981 C335.599098,589.376677 331.357518,585.87487 330.509345,583.948815 C329.661411,582.023165 329.896312,579.297921 331.034291,577.86237 C332.17227,576.426819 333.782199,576.824394 334.630372,578.750852" id="Fill-130" fill="#FFFFFF"></path>
                    <path d="M332.846351,586.096748 C334.903289,585.660851 341.836129,586.812826 341.996423,587.269932 C342.156001,587.726759 336.932972,591.457281 334.876394,591.893457 C332.819456,592.329913 330.697253,591.38584 330.136759,589.785132 C329.576265,588.184144 330.789414,586.532925 332.846351,586.096748" id="Fill-131" fill="#FFFFFF"></path>
                    <path d="M333.014143,596.855405 C333.173686,594.777435 336.162611,588.943175 336.63371,589.000418 C337.104809,589.057662 339.150699,595.504742 338.991156,597.583063 C338.831613,599.661033 337.364485,601.183075 335.713826,600.982196 C334.063168,600.781317 332.8546,598.933726 333.014143,596.855405" id="Fill-132" fill="#FFFFFF"></path>
                    <path d="M342.015596,591.67259 C340.018132,590.940388 335.715463,586.650491 336.014855,586.252336 C336.314247,585.854446 343.815743,585.891003 345.813207,586.62294 C347.810292,587.354877 348.579832,589.07889 347.531012,590.473358 C346.482191,591.867561 344.013061,592.404792 342.015596,591.67259" id="Fill-133" fill="#FFFFFF"></path>
                    <path d="M338.981108,587.263985 C338.850808,586.445776 338.082121,585.888599 337.263936,586.018903 C336.446175,586.149207 335.888591,586.917918 336.018892,587.735704 C336.149192,588.553913 336.918302,589.11109 337.736064,588.981209 C338.553825,588.850482 339.111409,588.082194 338.981108,587.263985" id="Fill-134" fill="#F78248"></path>
                    <path d="M325.309715,609.457069 C327.921311,612.309828 330.740048,624.276821 329.823088,624.939054 C328.906574,625.601287 316.291899,620.710278 313.680304,617.857916 C311.068709,615.005157 311.554868,610.81207 314.76646,608.49227 C317.977606,606.172867 322.69812,606.604707 325.309715,609.457069" id="Fill-135" fill="#A8D29F"></path>
                    <path d="M336.181381,634.293432 C334.173492,634.994313 329.733259,639.257575 330.012591,639.667882 C330.292255,640.077952 337.718868,640.19934 339.726758,639.498695 C341.734978,638.797814 342.56901,637.06454 341.589858,635.627284 C340.610705,634.189791 338.189271,633.592787 336.181381,634.293432" id="Fill-136" fill="#A8D29F"></path>
                    <path d="M282,658 C282,658 290.286426,653.816902 308.114646,655.329784 C325.942867,656.842842 335.735812,652.407216 339,658 L282,658 Z" id="Fill-137" fill="#A8D29F"></path>
                </g>
            </g>
        </g>
    </g>
</svg>