
<svg width="840px" height="754px" viewBox="0 0 840 754" version="1.1" xmlns="http://www.w3.org/2000/svg" xmlns:xlink="http://www.w3.org/1999/xlink">
    <defs>
        <linearGradient x1="50.9244272%" y1="-120.336145%" x2="50.0146841%" y2="88.3406627%" id="linearGradient-1">
            <stop stop-color="#DCE078" offset="0%"></stop>
            <stop stop-color="#97A100" offset="100%"></stop>
        </linearGradient>
        <linearGradient x1="-594.065432%" y1="200.288678%" x2="-210.24321%" y2="110.725914%" id="linearGradient-2">
            <stop stop-color="#FDAE91" offset="0.643777%"></stop>
            <stop stop-color="#FE393B" offset="92.92%"></stop>
        </linearGradient>
        <linearGradient x1="-593.110256%" y1="196.815502%" x2="-194.512821%" y2="105.910678%" id="linearGradient-3">
            <stop stop-color="#FDAE91" offset="0.643777%"></stop>
            <stop stop-color="#FE393B" offset="92.92%"></stop>
        </linearGradient>
        <linearGradient x1="-495.024419%" y1="172.132536%" x2="-133.5%" y2="91.119918%" id="linearGradient-4">
            <stop stop-color="#FDAE91" offset="0.643777%"></stop>
            <stop stop-color="#FE393B" offset="92.92%"></stop>
        </linearGradient>
        <linearGradient x1="-406.836842%" y1="143.846973%" x2="-79.5642105%" y2="77.4570208%" id="linearGradient-5">
            <stop stop-color="#FDAE91" offset="0.643777%"></stop>
            <stop stop-color="#FE393B" offset="92.92%"></stop>
        </linearGradient>
        <linearGradient x1="-329.01619%" y1="117.856503%" x2="-32.92%" y2="66.6467856%" id="linearGradient-6">
            <stop stop-color="#FDAE91" offset="0.643777%"></stop>
            <stop stop-color="#FE393B" offset="92.92%"></stop>
        </linearGradient>
        <linearGradient x1="-275.842342%" y1="101.866312%" x2="4.24954955%" y2="59.7838193%" id="linearGradient-7">
            <stop stop-color="#FDAE91" offset="0.643777%"></stop>
            <stop stop-color="#FE393B" offset="92.92%"></stop>
        </linearGradient>
        <linearGradient x1="-232.050435%" y1="95.2942307%" x2="38.3%" y2="54.3458175%" id="linearGradient-8">
            <stop stop-color="#FDAE91" offset="0.643777%"></stop>
            <stop stop-color="#FE393B" offset="92.92%"></stop>
        </linearGradient>
        <linearGradient x1="-188.9125%" y1="92.7576975%" x2="70.175%" y2="47.9488051%" id="linearGradient-9">
            <stop stop-color="#FDAE91" offset="0.643777%"></stop>
            <stop stop-color="#FE393B" offset="92.92%"></stop>
        </linearGradient>
        <linearGradient x1="-151.366129%" y1="86.8793216%" x2="99.3645161%" y2="41.9168343%" id="linearGradient-10">
            <stop stop-color="#FDAE91" offset="0.643777%"></stop>
            <stop stop-color="#FE393B" offset="92.92%"></stop>
        </linearGradient>
        <linearGradient x1="-115.860156%" y1="79.3891107%" x2="127.029687%" y2="37.8975833%" id="linearGradient-11">
            <stop stop-color="#FDAE91" offset="0.643777%"></stop>
            <stop stop-color="#FE393B" offset="92.92%"></stop>
        </linearGradient>
        <radialGradient cx="-791.361553%" cy="-306.200081%" fx="-791.361553%" fy="-306.200081%" r="1234.07823%" gradientTransform="translate(-7.913616,-3.062001),scale(1.000000,0.423050),translate(7.913616,3.062001)" id="radialGradient-12">
            <stop stop-color="#FFFFFF" offset="0%"></stop>
            <stop stop-color="#000000" offset="100%"></stop>
        </radialGradient>
        <linearGradient x1="0%" y1="50%" x2="100%" y2="50%" id="linearGradient-13">
            <stop stop-color="#7E2E23" offset="0.643777%"></stop>
            <stop stop-color="#AD5C38" offset="100%"></stop>
        </linearGradient>
        <linearGradient x1="100%" y1="50%" x2="0%" y2="50%" id="linearGradient-14">
            <stop stop-color="#7E2E23" offset="0.643777%"></stop>
            <stop stop-color="#AD5C38" offset="100%"></stop>
        </linearGradient>
        <linearGradient x1="0%" y1="50%" x2="100%" y2="50%" id="linearGradient-15">
            <stop stop-color="#7E2E23" offset="0.643777%"></stop>
            <stop stop-color="#AD5C38" offset="100%"></stop>
        </linearGradient>
        <linearGradient x1="49.9999519%" y1="1.99248104e-05%" x2="49.9999519%" y2="100%" id="linearGradient-16">
            <stop stop-color="#2B0073" offset="0%"></stop>
            <stop stop-color="#2C539C" offset="100%"></stop>
        </linearGradient>
        <linearGradient x1="139.285279%" y1="109.698276%" x2="-110.98716%" y2="-47.0518557%" id="linearGradient-17">
            <stop stop-color="#2B0073" offset="0%"></stop>
            <stop stop-color="#2C539C" offset="100%"></stop>
        </linearGradient>
        <linearGradient x1="42.9501813%" y1="-17.8458316%" x2="51.1477412%" y2="63.3901286%" id="linearGradient-18">
            <stop stop-color="#2B0073" offset="0%"></stop>
            <stop stop-color="#2B0676" offset="18.82%"></stop>
            <stop stop-color="#2B197F" offset="45.11%"></stop>
            <stop stop-color="#2C368E" offset="75.63%"></stop>
            <stop stop-color="#2C539C" offset="100%"></stop>
        </linearGradient>
        <linearGradient x1="166.626358%" y1="63.1350258%" x2="15.5148765%" y2="45.3626761%" id="linearGradient-19">
            <stop stop-color="#2B0073" offset="0%"></stop>
            <stop stop-color="#2C539C" offset="100%"></stop>
        </linearGradient>
        <linearGradient x1="12.3556665%" y1="17.7630591%" x2="117.543277%" y2="112.136587%" id="linearGradient-20">
            <stop stop-color="#00D4BF" offset="0%"></stop>
            <stop stop-color="#06C2BB" offset="5.41786%"></stop>
            <stop stop-color="#1B88AF" offset="24.26%"></stop>
            <stop stop-color="#2C57A6" offset="42.47%"></stop>
            <stop stop-color="#39319E" offset="59.59%"></stop>
            <stop stop-color="#421698" offset="75.38%"></stop>
            <stop stop-color="#480695" offset="89.33%"></stop>
            <stop stop-color="#4A0094" offset="100%"></stop>
        </linearGradient>
        <linearGradient x1="241.261467%" y1="119.22248%" x2="-132.989091%" y2="-20.035081%" id="linearGradient-21">
            <stop stop-color="#2B0073" offset="0%"></stop>
            <stop stop-color="#2C539C" offset="100%"></stop>
        </linearGradient>
        <linearGradient x1="50.0000323%" y1="2.68668532%" x2="50.0000323%" y2="171.631124%" id="linearGradient-22">
            <stop stop-color="#2B0073" offset="0%"></stop>
            <stop stop-color="#2C539C" offset="100%"></stop>
        </linearGradient>
        <linearGradient x1="62.2014073%" y1="54.3850887%" x2="22.6666688%" y2="40.3163907%" id="linearGradient-23">
            <stop stop-color="#00D4BF" offset="0%"></stop>
            <stop stop-color="#05C6BE" offset="1.38666%"></stop>
            <stop stop-color="#139DBA" offset="5.897558%"></stop>
            <stop stop-color="#2077B6" offset="10.96%"></stop>
            <stop stop-color="#2C57B3" offset="16.47%"></stop>
            <stop stop-color="#353BB1" offset="22.56%"></stop>
            <stop stop-color="#3D25AF" offset="29.43%"></stop>
            <stop stop-color="#4314AD" offset="37.46%"></stop>
            <stop stop-color="#4709AC" offset="47.4%"></stop>
            <stop stop-color="#4902AB" offset="61.33%"></stop>
            <stop stop-color="#4A00AB" offset="100%"></stop>
        </linearGradient>
        <radialGradient cx="-71.45%" cy="18.1%" fx="-71.45%" fy="18.1%" r="131.81%" gradientTransform="translate(-0.714500,0.181000),scale(1.000000,0.999289),translate(0.714500,-0.181000)" id="radialGradient-24">
            <stop stop-color="#FFFFFF" offset="0%"></stop>
            <stop stop-color="#000000" offset="100%"></stop>
        </radialGradient>
        <linearGradient x1="58.0676056%" y1="105.599504%" x2="36.873696%" y2="-2.99578164%" id="linearGradient-25">
            <stop stop-color="#545C1E" offset="0%"></stop>
            <stop stop-color="#8A8706" offset="100%"></stop>
        </linearGradient>
        <linearGradient x1="50%" y1="99.9998656%" x2="50%" y2="0.204748765%" id="linearGradient-26">
            <stop stop-color="#545C1E" offset="0%"></stop>
            <stop stop-color="#DBC206" offset="100%"></stop>
        </linearGradient>
        <linearGradient x1="43.6867193%" y1="50.1081481%" x2="66.5576119%" y2="32.287037%" id="linearGradient-27">
            <stop stop-color="#42BEB8" offset="0%"></stop>
            <stop stop-color="#2C2A6C" offset="100%"></stop>
        </linearGradient>
        <linearGradient x1="0.176772794%" y1="49.9996215%" x2="100.000428%" y2="49.9996215%" id="linearGradient-28">
            <stop stop-color="#42BEB8" offset="0%"></stop>
            <stop stop-color="#2C2A6C" offset="100%"></stop>
        </linearGradient>
        <linearGradient x1="109.342753%" y1="62.5282411%" x2="6.09397389%" y2="21.1534665%" id="linearGradient-29">
            <stop stop-color="#42BEB8" offset="0%"></stop>
            <stop stop-color="#2C2A6C" offset="100%"></stop>
        </linearGradient>
        <linearGradient x1="76.0434125%" y1="59.0582901%" x2="20.7613391%" y2="41.2942684%" id="linearGradient-30">
            <stop stop-color="#42BEB8" offset="0%"></stop>
            <stop stop-color="#2C2A6C" offset="100%"></stop>
        </linearGradient>
        <linearGradient x1="63.0987522%" y1="-0.904494382%" x2="33.4112962%" y2="96.7678652%" id="linearGradient-31">
            <stop stop-color="#42BEB8" offset="0%"></stop>
            <stop stop-color="#2C2A6C" offset="100%"></stop>
        </linearGradient>
        <linearGradient x1="7.89491929e-14%" y1="49.9999167%" x2="100%" y2="49.9999167%" id="linearGradient-32">
            <stop stop-color="#42BEB8" offset="0%"></stop>
            <stop stop-color="#2C2A6C" offset="100%"></stop>
        </linearGradient>
        <linearGradient x1="0.153620027%" y1="50%" x2="100.010099%" y2="50%" id="linearGradient-33">
            <stop stop-color="#42BEB8" offset="0%"></stop>
            <stop stop-color="#2C2A6C" offset="100%"></stop>
        </linearGradient>
        <linearGradient x1="3.46363636%" y1="50%" x2="101.281818%" y2="50%" id="linearGradient-34">
            <stop stop-color="#6252D2" offset="0%"></stop>
            <stop stop-color="#5044AD" offset="100%"></stop>
        </linearGradient>
        <linearGradient x1="50.0030766%" y1="-1.87947238%" x2="50.0030766%" y2="88.6086768%" id="linearGradient-35">
            <stop stop-color="#0A76E8" offset="0%"></stop>
            <stop stop-color="#FFF5D3" stop-opacity="0.7808" offset="2.401763%"></stop>
            <stop stop-color="#FFFBEB" stop-opacity="0.49" offset="38.75%"></stop>
            <stop stop-color="#FFFEFA" stop-opacity="0.222" offset="72.25%"></stop>
            <stop stop-color="#FFFFFF" stop-opacity="0" offset="100%"></stop>
        </linearGradient>
    </defs>
    <g id="Alice.si...kalokairi" stroke="none" stroke-width="1" fill="none" fill-rule="evenodd">
        <g id="Alice.si" transform="translate(-474.000000, -1478.000000)">
            <g id="Section-3" transform="translate(-212.000000, 1448.000000)">
                <g id="Use-case-1">
                    <g id="Illustration" transform="translate(686.000000, 30.000000)">
                        <g id="Armchair-whole" transform="translate(0.000000, 337.900000)">
                            <g id="Group_5_" transform="translate(0.000000, 328.128604)" fill-rule="nonzero">
                                <polygon id="Path_17_" fill="#B6ACE5" points="732.052258 84.6851831 0.464972217 84.6851831 124.333571 0.558363845 617.948076 3.53630435"></polygon>
                                <polygon id="Path_16_" fill="#7767E8" points="184.036003 0.930606408 97.5511711 84.6851831 44.8233217 84.6851831 47.9851328 81.9864246 37.755744 81.9864246 39.429644 80.4974543 49.6590328 80.4974543 53.5647994 77.7986957 43.3354106 77.7986957 45.0093106 76.4027861 55.2386994 76.4027861 58.8654827 73.4248456 48.9150772 73.4248456 50.5889772 72.2150573 60.6323771 72.2150573 64.2591604 69.3301774 54.3087549 69.3301774 56.2616382 67.8412071 65.9330603 67.8412071 69.838827 64.9563273 59.8884215 64.9563273 61.5623215 63.746539 71.5127269 63.746539 75.2325047 60.7685984 65.4680881 60.7685984 67.1419881 59.2796282 76.9064047 59.2796282 80.533188 56.3947483 71.0477547 56.3947483 72.7216547 55.18496 82.2070879 55.18496 86.1128546 52.3000801 76.4414324 52.3000801 78.3943158 50.8111099 87.879749 50.8111099 91.5065323 47.92623 82.021099 47.92623 83.694999 46.623381 93.1804323 46.623381 96.8072155 43.7385012 87.6007657 43.7385012 89.2746656 42.2495309 98.57411 42.2495309 102.479877 39.3646511 93.1804323 39.3646511 94.9473267 38.1548627 104.153777 38.1548627 150.558004 0.558363845"></polygon>
                                <polygon id="Path_15_" fill="#7767E8" points="553.130949 3.16406179 635.710015 84.6851831 688.530859 84.6851831 685.090064 81.9864246 695.319453 81.9864246 693.645553 80.4974543 683.416164 80.4974543 679.789381 77.7986957 689.739786 77.7986957 688.065886 76.4027861 678.022487 76.4027861 674.11672 73.4248456 684.346109 73.4248456 682.672209 72.2150573 672.44282 72.2150573 668.816037 69.3301774 678.766442 69.3301774 677.092542 67.8412071 667.142137 67.8412071 663.422359 64.9563273 673.186776 64.9563273 671.512876 63.746539 661.748459 63.746539 657.842692 60.7685984 667.607109 60.7685984 665.840214 59.2796282 656.168792 59.2796282 652.542009 56.3947483 662.213431 56.3947483 660.539531 55.18496 650.775115 55.18496 647.148331 52.3000801 656.633765 52.3000801 654.959865 50.8111099 645.474431 50.8111099 641.568665 47.92623 651.054098 47.92623 649.380198 46.623381 639.894765 46.623381 636.174987 43.7385012 645.474431 43.7385012 643.707537 42.2495309 634.501087 42.2495309 630.874304 39.3646511 640.080754 39.3646511 638.12787 38.1548627 628.92142 38.1548627 593.11856 3.35018307"></polygon>
                                <polygon id="Path_14_" fill="#7767E8" points="106.292649 84.6851831 120.892776 84.6851831 203.378848 0.930606408 191.382564 0.930606408"></polygon>
                                <polygon id="Path_13_" fill="#7767E8" points="627.433509 84.6851831 613.112365 84.6851831 538.530822 3.07100115 548.481227 3.16406179"></polygon>
                                <rect id="Rectangle_11_" fill="#321967" x="0.464972217" y="84.6851831" width="731.587286" height="2.41957666"></rect>
                            </g>
                            <g id="Group" transform="translate(42.777444, 0.000000)">
                                <path d="M481.339239,202.406894 C487.755855,243.446636 485.523989,260.662855 485.523989,260.662855 L478.270422,264.199159 L481.339239,202.406894 Z" id="Path" fill="url(#linearGradient-1)" fill-rule="nonzero"></path>
                                <g transform="translate(430.461775, 261.500401)" fill="#FFBCA1" fill-rule="nonzero" id="Path">
                                    <path d="M49.3895532,0.372242563 C49.3895532,5.0252746 48.3666143,14.238278 48.3666143,14.238278 L47.5296643,14.6105206 L48.2736198,7.0726087 C48.4596087,5.58363845 48.2736198,4.0946682 47.9016421,2.60569794 L47.9016421,2.60569794 L49.3895532,0.372242563 Z"></path>
                                    <path d="M47.4366699,1.11672769 C47.4366699,5.76975973 46.413731,14.9827632 46.413731,14.9827632 L45.576781,15.3550057 L46.3207365,7.81709383 C46.5067254,6.32812357 46.3207365,4.83915332 45.9487588,3.35018307 L45.9487588,3.35018307 L47.4366699,1.11672769 Z"></path>
                                    <path d="M45.4837865,1.86121282 C45.4837865,6.51424486 44.4608477,15.7272483 44.4608477,15.7272483 L43.6238977,16.0994909 L44.3678532,8.56157895 C44.5538421,7.0726087 44.3678532,5.58363845 43.9958754,4.0946682 L43.9958754,4.0946682 L45.4837865,1.86121282 Z"></path>
                                    <path d="M43.6238977,2.60569794 C43.6238977,7.25872998 42.6009588,16.4717334 42.6009588,16.4717334 L41.7640088,16.843976 L42.5079644,9.30606408 C42.6939532,7.81709383 42.5079644,6.32812357 42.228981,4.83915332 L42.228981,4.83915332 L43.6238977,2.60569794 Z"></path>
                                    <path d="M41.6710144,3.35018307 C41.6710144,8.00321511 40.6480755,17.2162185 40.6480755,17.2162185 L39.8111255,17.5884611 L40.555081,10.0505492 C40.7410699,8.56157895 40.555081,7.0726087 40.2760977,5.58363845 L40.2760977,5.58363845 L41.6710144,3.35018307 Z"></path>
                                    <path d="M39.8111255,4.0946682 C39.8111255,8.74770024 38.6951922,17.9607037 38.6951922,17.9607037 L37.8582422,18.3329462 L38.6021977,10.7950343 C38.7881866,9.30606408 38.6021977,7.81709383 38.3232144,6.32812357 L38.3232144,6.32812357 L39.8111255,4.0946682 Z"></path>
                                    <path d="M37.8582422,4.83915332 C37.8582422,9.49218536 36.7423089,18.7051888 36.7423089,18.7051888 L35.9053589,19.0774314 L36.6493144,11.5395195 C36.8353033,10.0505492 36.6493144,8.56157895 36.3703311,7.0726087 L36.3703311,7.0726087 L37.8582422,4.83915332 Z"></path>
                                    <path d="M35.9983533,5.58363845 C35.9983533,10.2366705 34.88242,19.4496739 34.88242,19.4496739 L34.04547,19.8219165 L34.7894256,12.2840046 C34.9754144,10.7950343 34.7894256,9.30606408 34.5104422,7.81709383 L34.5104422,7.81709383 L35.9983533,5.58363845 Z"></path>
                                    <path d="M34.1384645,6.32812357 C34.1384645,10.9811556 33.0225311,20.1941591 33.0225311,20.1941591 L32.1855811,20.5664016 L32.9295367,13.0284897 C33.1155256,11.5395195 32.9295367,10.0505492 32.6505534,8.56157895 L32.6505534,8.56157895 L34.1384645,6.32812357 Z"></path>
                                    <path d="M32.1855811,7.0726087 C32.1855811,11.7256407 31.0696478,20.9386442 31.0696478,20.9386442 L30.2326978,21.3108867 L30.9766534,13.7729748 C31.1626423,12.2840046 30.9766534,10.7950343 30.69767,9.30606408 L30.69767,9.30606408 L32.1855811,7.0726087 Z"></path>
                                    <path d="M30.3256923,7.81709383 C30.3256923,12.4701259 29.209759,21.6831293 29.209759,21.6831293 L28.372809,22.0553719 L29.1167645,14.51746 C29.3027534,13.0284897 29.209759,11.5395195 28.8377812,10.0505492 L28.8377812,10.0505492 L30.3256923,7.81709383 Z"></path>
                                    <path d="M28.372809,8.56157895 C28.372809,13.214611 27.2568756,22.4276144 27.2568756,22.4276144 L26.4199257,22.799857 L27.1638812,15.2619451 C27.3498701,13.7729748 27.2568756,12.2840046 26.8848979,10.7950343 L26.8848979,10.7950343 L28.372809,8.56157895 Z"></path>
                                    <path d="M26.5129201,9.30606408 C26.5129201,13.9590961 25.3969868,23.1720996 25.3969868,23.1720996 L24.5600368,23.5443421 L25.3039923,16.0064302 C25.4899812,14.51746 25.3969868,13.0284897 25.025009,11.5395195 L25.025009,11.5395195 L26.5129201,9.30606408 Z"></path>
                                    <path d="M24.6530312,9.95748857 C24.6530312,14.6105206 23.5370979,23.823524 23.5370979,23.823524 L22.7001479,24.1957666 L23.4441035,16.6578547 C23.6300924,15.1688845 23.5370979,13.6799142 23.1651201,12.1909439 L23.1651201,12.1909439 L24.6530312,9.95748857 Z"></path>
                                    <path d="M22.7001479,10.7019737 C22.7001479,15.3550057 21.5842146,24.5680092 21.5842146,24.5680092 L20.7472646,24.9402517 L21.5842146,17.4023398 C21.7702035,15.9133696 21.677209,14.4243993 21.3052313,12.9354291 L21.3052313,12.9354291 L22.7001479,10.7019737 Z"></path>
                                    <path d="M20.8402591,11.4464588 C20.7472646,16.0994909 19.6313313,25.3124943 19.6313313,25.3124943 L18.7943813,25.6847369 L19.6313313,18.146825 C19.8173202,16.6578547 19.7243257,15.1688845 19.352348,13.6799142 L19.352348,13.6799142 L20.8402591,11.4464588 Z"></path>
                                    <path d="M18.9803702,12.1909439 C18.8873757,16.843976 17.7714424,26.0569794 17.7714424,26.0569794 L16.9344924,26.429222 L17.7714424,18.8913101 C17.9574313,17.4023398 17.8644369,15.9133696 17.4924591,14.4243993 L17.4924591,14.4243993 L18.9803702,12.1909439 Z"></path>
                                    <path d="M17.0274869,12.9354291 C16.9344924,17.5884611 15.8185591,26.8014646 15.8185591,26.8014646 L14.9816091,27.1737071 L15.8185591,19.6357952 C16.004548,18.146825 15.9115536,16.6578547 15.5395758,15.1688845 L15.5395758,15.1688845 L17.0274869,12.9354291 Z"></path>
                                    <path d="M15.167598,13.6799142 C15.0746036,18.3329462 13.9586702,27.5459497 13.9586702,27.5459497 L13.1217203,27.8251316 L13.9586702,20.2872197 C14.1446591,18.7982494 14.0516647,17.3092792 13.6796869,15.8203089 L13.6796869,15.8203089 L15.167598,13.6799142 Z"></path>
                                    <path d="M13.3077091,14.4243993 C13.2147147,19.0774314 12.0987814,28.2904348 12.0987814,28.2904348 L11.2618314,28.6626774 L12.0987814,21.1247655 C12.2847703,19.6357952 12.1917758,18.146825 11.819798,16.6578547 L11.819798,16.6578547 L13.3077091,14.4243993 Z"></path>
                                    <path d="M11.3548258,15.0758238 C11.2618314,19.7288559 10.1458981,28.9418593 10.1458981,28.9418593 L9.30894807,29.3141019 L10.1458981,21.7761899 C10.331887,20.2872197 10.2388925,18.7982494 9.86691473,17.3092792 L9.86691473,17.3092792 L11.3548258,15.0758238 Z"></path>
                                    <path d="M9.49493696,15.8203089 C9.40194252,20.473341 8.2860092,29.6863444 8.2860092,29.6863444 L7.44905921,30.058587 L8.2860092,22.5206751 C8.47199808,21.0317048 8.37900364,19.5427346 8.00702587,18.0537643 L8.00702587,18.0537643 L9.49493696,15.8203089 Z"></path>
                                    <path d="M7.63504809,16.5647941 C7.54205365,21.2178261 6.42612033,30.4308295 6.42612033,30.4308295 L5.58917034,30.8030721 L6.42612033,23.2651602 C6.61210922,21.7761899 6.51911477,20.2872197 6.147137,18.7982494 L6.147137,18.7982494 L7.63504809,16.5647941 Z"></path>
                                    <path d="M5.77515923,17.3092792 C5.68216478,21.9623112 4.56623146,31.1753147 4.56623146,31.1753147 L3.72928147,31.5475572 L4.56623146,24.0096453 C4.75222035,22.5206751 4.65922591,21.0317048 4.28724813,19.5427346 L4.28724813,19.5427346 L5.77515923,17.3092792 Z"></path>
                                    <path d="M3.91527036,18.0537643 C3.82227591,22.7067964 2.70634259,31.8267392 2.70634259,31.8267392 L1.8693926,32.1989817 L2.70634259,24.6610698 C2.89233148,23.1720996 2.79933704,21.6831293 2.42735926,20.1941591 L2.42735926,20.1941591 L3.91527036,18.0537643 Z"></path>
                                    <path d="M2.05538149,18.7051888 C1.96238705,23.3582208 0.846453727,32.4781636 0.846453727,32.4781636 L0.00950373698,32.8504062 L0.846453727,25.3124943 C1.03244261,23.823524 0.939448171,22.3345538 0.567470397,20.8455835 L0.567470397,20.8455835 L2.05538149,18.7051888 Z"></path>
                                </g>
                                <g transform="translate(416.378662, 181.231143)" fill-rule="nonzero" id="Path">
                                    <path d="M8.79193322,4.79707781 L2.0963333,1.91219794 C1.81734997,1.26077346 1.63136108,0.609348971 1.25938331,0.0509851264 L7.95498323,2.84280435 C8.23396656,3.49422884 8.60594434,4.14565332 8.79193322,4.79707781 Z" fill="url(#linearGradient-2)"></path>
                                    <polygon fill="url(#linearGradient-3)" points="10.3728388 15.0337483 3.11927218 12.0558078 3.21226662 10.5668375 10.2798443 13.4517174"></polygon>
                                    <polygon fill="url(#linearGradient-4)" points="10.837811 24.8981762 2.84028885 21.5479932 2.84028885 21.5479932 2.84028885 20.0590229 10.7448165 23.3161453"></polygon>
                                    <polygon fill="url(#linearGradient-5)" points="11.3027832 34.7626041 3.58424439 31.5054817 2.46831107 32.1569062 2.46831107 30.4818147 3.49124995 29.9234508 10.5588276 32.9013913 11.2097888 33.1805733"></polygon>
                                    <polygon fill="url(#linearGradient-6)" points="11.7677554 44.6270321 4.60718327 41.6490916 2.00333886 42.9519405 2.0963333 41.3699096 4.60718327 40.0670607 11.674761 43.0450012"></polygon>
                                    <polygon fill="url(#linearGradient-7)" points="11.9537443 52.8163685 11.9537443 54.3053387 5.72311659 51.6996408 1.63136108 53.8400355 1.63136108 52.164944 5.63012215 50.1176099"></polygon>
                                    <polygon fill="url(#linearGradient-8)" points="11.9537443 62.4016145 11.9537443 63.9836454 6.74605547 61.75019 1.25938331 64.6350698 1.25938331 63.053039 6.65306103 60.2612197"></polygon>
                                    <polygon fill="url(#linearGradient-9)" points="11.9537443 72.0799211 11.9537443 73.661952 7.76899435 71.8937998 0.794411094 75.5231648 0.887405537 73.8480733 7.6759999 70.3117689"></polygon>
                                    <polygon fill="url(#linearGradient-10)" points="11.9537443 81.7582278 11.9537443 83.247198 8.79193322 81.944349 1.25938331 85.9459566 0.42243332 85.8528959 0.515427764 84.4569863 0.887405537 84.4569863 8.69893878 80.3623181"></polygon>
                                    <polygon fill="url(#linearGradient-11)" points="11.9537443 91.3434738 11.9537443 92.9255047 9.90786654 92.0879589 2.28232219 95.9965058 0.0504555469 95.6242632 0.14344999 94.3214143 1.91034441 94.6005962 9.8148721 90.505928"></polygon>
                                </g>
                                <ellipse id="XMLID_187_" fill="#2B3172" fill-rule="nonzero" opacity="0.0676153274" cx="421.867556" cy="363.04725" rx="158.8115" ry="33.63475"></ellipse>
                                <path d="M430.006306,173.651156 C449.628134,181.096007 433.633089,282.159863 433.633089,282.159863 L477.061494,261.128158 C477.061494,261.128158 484.408055,172.069125 465.065211,167.695275 L430.006306,173.651156 Z" id="Path" fill="url(#radialGradient-12)" fill-rule="nonzero"></path>
                                <g>
                                    <g>
                                        <polygon id="Path" fill="url(#linearGradient-13)" fill-rule="nonzero" points="563.453332 303.191568 576.844532 369.078501 567.917066 369.078501 548.295238 318.08127"></polygon>
                                        <polygon id="Path" fill="url(#linearGradient-14)" fill-rule="nonzero" points="286.51588 304.401356 273.12468 370.195229 282.052147 370.195229 301.673974 319.291059"></polygon>
                                        <polygon id="Path" fill="url(#linearGradient-15)" fill-rule="nonzero" points="462.461367 318.453513 462.461367 383.130658 453.5339 383.130658 442.467562 327.294274"></polygon>
                                        <path d="M428.983741,186.772706 L428.611389,271.737071 C428.518395,284.57944 422.101778,296.398141 411.314423,303.098507 L324.643602,329.155487 L297.024252,327.015092 L284.377008,325.712243 C277.681408,325.060818 272.194736,320.128604 270.985808,313.800481 C264.476197,279.647226 248.85313,176.815218 295.72233,171.976064 C295.815324,171.976064 295.908319,171.976064 296.001313,171.976064 L393.738473,156.90024 L393.831468,156.90024 C411.779395,154.015361 429.076362,168.53282 428.983741,186.772706 Z" id="Path" fill="url(#linearGradient-16)" fill-rule="nonzero"></path>
                                        <path d="M437.445862,338.182369 C432.238173,337.903187 331.990163,329.806911 302.975896,327.480395 C298.512163,327.108152 295.071369,323.478787 294.978374,319.011877 L294.04843,268.66607 C294.04843,268.66607 411.686401,288.95329 420.613867,288.95329 C429.541334,289.04635 437.445862,338.182369 437.445862,338.182369 Z" id="Path" fill="url(#linearGradient-17)" fill-rule="nonzero"></path>
                                        <path d="M540.576699,54.9988387 L552.10801,54.9988387 C555.45581,54.9988387 558.896605,55.3710813 562.15141,56.208627 L562.15141,56.208627 C562.98836,56.3947483 563.732316,56.6739303 564.476271,57.0461728 C574.891649,62.0714474 579.72736,72.9595424 579.72736,84.6851831 L579.72736,220.181476 L560.105532,279.368044 L540.483705,268.66607 L547.644277,208.735017 L540.576699,54.9988387 Z" id="Path" fill="url(#linearGradient-18)" fill-rule="nonzero"></path>
                                        <path d="M446.00135,220.088416 L427.774439,248.37885 L427.495456,249.030275 L295.350352,239.910332 L295.350352,239.910332 C296.652274,238.700544 298.23318,237.862998 300.093069,237.397695 L316.64608,233.396087 L316.64608,233.396087 L372.256757,220.088416 L446.00135,220.088416 Z" id="Path" fill="url(#linearGradient-19)" fill-rule="nonzero"></path>
                                        <path d="M546.993316,220.088416 L372.256757,220.088416 L393.087512,78.7293021 C395.13339,65.0493879 406.85069,54.9057781 420.613867,54.9057781 L545.691394,54.9057781 C551.922021,54.9057781 556.850727,60.117174 556.478749,66.3522369 L546.993316,220.088416 Z" id="Path" fill="url(#linearGradient-20)" fill-rule="nonzero"></path>
                                        <path d="M437.445862,249.030275 L437.445862,295.560595 L308.090591,282.532105 C300.74403,281.78762 294.88538,276.017861 294.141424,268.66607 L292.002552,248.937214 L292.002552,248.937214 C291.630574,245.40091 292.932497,242.050727 295.443347,239.817271 L295.443347,239.817271 L427.774439,248.37885 L437.445862,249.030275 Z" id="Path" fill="url(#linearGradient-21)" fill-rule="nonzero"></path>
                                        <g id="XMLID_217_">
                                            <g id="XMLID_218_">
                                                <path d="M444.32745,63.8395996 C444.32745,63.8395996 457.346672,72.7734211 449.256156,94.0843079 C441.165639,115.302134 460.2295,110.183799 467.390072,135.682414 L387.693834,133.63508 C387.693834,133.63508 404.525829,105.623827 404.897806,94.6426717 C405.083795,83.6615161 399.969101,60.3963559 422.101778,62.1645081 C444.32745,63.8395996 444.32745,63.8395996 444.32745,63.8395996 Z" id="XMLID_287_" fill="#18203D" fill-rule="nonzero"></path>
                                                <g id="XMLID_265_">
                                                    <g id="XMLID_276_" transform="translate(314.321219, 93.888087)" fill-rule="nonzero">
                                                        <g id="XMLID_278_">
                                                            <g id="XMLID_280_">
                                                                <g id="XMLID_282_">
                                                                    <polygon id="XMLID_286_" fill="#1BA4C9" points="0.55796666 5.50067732 38.7786829 0.0100995139 45.3812884 49.890603 12.2752665 45.1445103"></polygon>
                                                                    <g id="XMLID_283_" transform="translate(0.000000, 5.449692)">
                                                                        <polygon id="XMLID_285_" fill="#5AC2EF" points="0.55796666 0.0509851264 6.78859437 46.6743662 39.7086273 51.9788227 32.920033 3.21504691"></polygon>
                                                                        <polygon id="XMLID_284_" fill="#FFFFFF" points="5.85864993 10.3807163 6.41661659 15.8712941 28.735283 17.8255675 27.8053386 11.5905046"></polygon>
                                                                    </g>
                                                                </g>
                                                                <path d="M26.5034164,64.6872449 C26.5034164,64.6872449 28.5492941,50.91427 21.5747109,45.2375709 C21.0167442,44.6792071 20.0867998,44.4930858 19.3428442,44.3069645 L19.3428442,44.3069645 C18.2269109,44.3069645 17.4829554,45.2375709 17.8549331,46.1681774 L19.714822,53.3338467 L4.55672772,40.6775995 C3.62678329,39.9331144 2.1388722,39.9331144 1.30192221,40.8637208 L1.30192221,40.8637208 C0.55796666,41.7943272 0.371977773,43.0971762 1.11593332,43.934722 L3.71977773,47.3779657 L3.71977773,57.6146362 C3.71977773,59.6619703 4.46373328,61.802365 5.95164438,63.2913353 C8.18351102,65.5247906 11.9962832,68.0374279 19.5288331,68.7819131 L26.5034164,64.6872449 Z" id="XMLID_281_" fill="#EAA990"></path>
                                                            </g>
                                                            <polygon id="XMLID_279_" fill="#ED705F" points="28.9212719 60.6856373 65.9330603 93.163801 39.3366495 107.215958 8.55548879 72.0390355"></polygon>
                                                        </g>
                                                        <path d="M80.1612102,21.3209863 C80.1612102,21.3209863 67.8859437,23.9266842 62.0272937,51.5656945 C56.1686438,79.2047048 53.5647994,89.7205573 53.5647994,89.7205573 L80.8121713,95.5833776 L84.9969212,53.9852712 L80.1612102,21.3209863 Z" id="XMLID_277_" fill="#ED705F"></path>
                                                    </g>
                                                    <g id="XMLID_273_" transform="translate(383.137107, 113.296875)">
                                                        <path d="M20.9237498,0.0509851264 C20.9237498,0.0509851264 0.185988887,-1.43798513 0.185988887,22.7577815 C0.185988887,47.1396694 5.30068327,82.5027129 5.30068327,82.5027129 L59.7024326,82.5027129 L72.7216547,20.1520835 C73.4656103,14.6615057 65.0031159,10.8460195 60.0744104,8.4264428 C56.8196049,6.75135126 52.1698827,5.16932037 45.939255,3.49422884 L20.9237498,0.0509851264 Z" id="XMLID_275_" fill="#F68370" fill-rule="nonzero"></path>
                                                        <path d="M6.60260548,20.4312655 C6.60260548,20.4312655 -1.30192221,32.9013913 2.7898333,49.3731248 C6.60260548,65.6587369 8.27650546,67.5199497 8.27650546,67.5199497" id="XMLID_274_" stroke="#ED5F4C" stroke-width="0.936433029"></path>
                                                    </g>
                                                    <g id="XMLID_266_">
                                                        <path d="M378.39439,188.633919 C378.39439,188.633919 354.773801,179.327855 347.613229,204.175046 L383.509084,204.175046 L378.39439,188.633919 Z" id="XMLID_272_" fill="#EAA990" fill-rule="nonzero"></path>
                                                        <g id="XMLID_267_">
                                                            <path d="M447.954234,125.259623 C447.954234,125.259623 427.402462,122.653925 433.447101,176.908278 L374.860601,182.026613 L377.929418,203.988925 L444.513439,203.988925 C455.300795,203.616682 461.159445,195.520406 461.9034,184.911493 C463.5773,162.856121 462.833345,126.562471 447.954234,125.259623 Z" id="XMLID_271_" fill="#ED705F" fill-rule="nonzero"></path>
                                                            <g id="XMLID_268_">
                                                                <polyline id="XMLID_270_" stroke="#ED5F4C" stroke-width="0.936433029" points="375.697551 187.796373 374.767607 182.212735 433.354106 177.094399 430.006306 142.28972"></polyline>
                                                                <g id="XMLID_81_"></g>
                                                                <g id="XMLID_6_"></g>
                                                            </g>
                                                        </g>
                                                    </g>
                                                </g>
                                                <g id="XMLID_247_" transform="translate(291.072608, 203.802803)">
                                                    <g id="XMLID_248_">
                                                        <g id="XMLID_258_" fill-rule="nonzero">
                                                            <g id="XMLID_260_" transform="translate(64.993612, 67.003661)">
                                                                <g id="XMLID_262_" transform="translate(25.210998, 33.501831)">
                                                                    <path d="M3.53378885,32.6642849 L0.464972217,45.1344108 C0.0929944434,46.4372598 0.650961104,47.92623 1.95288331,48.3915332 C2.88282774,48.7637758 4.18474995,48.5776545 5.76565549,46.7164417 C9.57842767,42.5287128 22.9696275,20.8455835 22.9696275,20.8455835 L25.0155053,22.5206751 L31.6181107,12.8423684 C31.6181107,12.8423684 21.9466886,3.53630435 18.2269109,4.93221396 L3.53378885,32.6642849 Z" id="XMLID_264_" fill="#171B3C"></path>
                                                                    <path d="M5.39367772,9.67830664 L3.53378885,32.5712243 C3.53378885,32.5712243 8.64848323,34.4324371 11.8102943,25.4055549 C14.8791109,16.4717334 18.2269109,4.65303204 18.2269109,4.65303204 L11.0663388,0.651424486 L5.39367772,9.67830664 Z" id="XMLID_263_" fill="#E7A78C"></path>
                                                                </g>
                                                                <polygon id="XMLID_261_" fill="#E7A78C" points="43.4379088 38.2479234 10.6108703 0.372242563 0.00950373698 15.541127 32.9295367 48.0192907"></polygon>
                                                            </g>
                                                            <path d="M63.143227,0.465303204 L23.9925664,0.465303204 C15.530072,0.465303204 7.7185388,4.83915332 3.4407944,12.1909439 L3.4407944,12.1909439 C-2.60384441,22.4276144 -0.371977773,35.4561041 8.74147768,42.9940161 L74.674538,106.740555 L95.6912822,84.0337586 L59.7954271,34.8977403 L63.143227,0.465303204 Z" id="XMLID_259_" fill="#EFB04B"></path>
                                                        </g>
                                                        <g id="XMLID_249_" transform="translate(8.369500, 0.000000)">
                                                            <g id="XMLID_253_" transform="translate(20.222333, 90.268822)" fill-rule="nonzero">
                                                                <g id="XMLID_255_" transform="translate(0.000000, 41.877288)">
                                                                    <path d="M8.79193322,26.0569794 L0.70141665,36.1075286 C-0.228527783,37.2242563 -0.228527783,38.7132266 0.70141665,39.7368936 C1.4453722,40.4813788 2.7472944,40.8536213 4.8861666,39.7368936 C10.000861,37.317317 31.2965885,23.2651602 31.2965885,23.2651602 L32.4125218,25.6847369 L42.4559217,19.4496739 C42.4559217,19.4496739 37.5272162,6.97954806 33.5284552,6.79342678 L8.79193322,26.0569794 Z" id="XMLID_257_" fill="#171B3C"></path>
                                                                    <path d="M19.9512664,5.95588101 L8.97792211,25.9639188 C8.97792211,25.9639188 12.9766832,29.7794051 19.3932998,22.8929176 C25.8099164,16.0994909 33.714444,6.79342678 33.714444,6.79342678 L28.7857385,0.186121282 L19.9512664,5.95588101 Z" id="XMLID_256_" fill="#E7A78C"></path>
                                                                </g>
                                                                <polygon id="XMLID_254_" fill="#E7A78C" points="33.4354607 48.5776545 19.3932998 0.558363845 3.21226662 10.0505492 20.3232442 53.1376259"></polygon>
                                                            </g>
                                                            <g id="XMLID_250_">
                                                                <path d="M147.675176,0.279181922 C147.675176,0.279181922 160.880387,35.2699829 129.727248,44.4829863 L44.7303273,44.4829863 L54.5877383,124.794319 L25.1084997,133.728141 L1.85988887,36.9450744 C-4.18474995,18.9843707 9.02046101,0.465303204 27.898333,0.465303204 L147.675176,0.279181922 Z" id="XMLID_252_" fill="#E8A436" fill-rule="nonzero"></path>
                                                                <path d="M46.5902161,46.4372598 L32.083083,33.5948913" id="XMLID_251_" stroke="#EFB04B" stroke-width="0.661957003"></path>
                                                            </g>
                                                        </g>
                                                    </g>
                                                </g>
                                                <g id="XMLID_219_" transform="translate(391.506607, 45.599714)">
                                                    <path d="M15.8090554,6.14200229 C15.8090554,6.14200229 47.7061494,0.837545767 54.7737271,17.3092792 C59.8884215,29.2210412 50.4029883,49.0429577 35.1518996,53.2306865 C20.6447664,57.2322941 29.2932497,12.5631865 29.2932497,12.5631865 L15.8090554,6.14200229 Z" id="XMLID_246_" fill="#18203D" fill-rule="nonzero"></path>
                                                    <ellipse id="XMLID_245_" fill="#D78973" fill-rule="nonzero" cx="9.20644989" cy="34.4324371" rx="6.78859437" ry="6.79342678"></ellipse>
                                                    <path d="M17.1109776,53.7890504 L16.7389998,68.6787529 C16.5530109,73.7970882 19.714822,76.7750287 24.8295164,76.9611499 L24.8295164,76.9611499 C29.2002552,76.9611499 33.4779996,74.7276946 33.9429718,70.5399657 L33.3850052,47.0886842 L17.1109776,53.7890504 Z" id="XMLID_244_" fill="#EAA990" fill-rule="nonzero"></path>
                                                    <polygon id="XMLID_243_" fill="#D78973" fill-rule="nonzero" points="16.7389998 64.4910241 35.4308829 50.7180492 17.1109776 52.3931408"></polygon>
                                                    <path d="M21.2957275,56.5808696 L21.2957275,56.5808696 C12.4612554,55.8363845 5.95164438,48.2984726 6.32362215,41.2258639 L7.25356658,24.3818879 C7.62554436,15.4480664 15.1580943,8.46851831 24.0855608,8.65463959 L24.0855608,8.65463959 C33.1990163,8.84076088 42.2194773,16.3786728 42.0334884,25.4986156 L41.103544,39.0854691 C40.5455773,49.6013215 31.9900885,56.7669909 21.2957275,56.5808696 Z" id="XMLID_242_" fill="#EAA990" fill-rule="nonzero"></path>
                                                    <polygon id="XMLID_241_" fill="#18203D" fill-rule="nonzero" points="32.6410496 18.6121282 37.8487384 36.7589531 50.960955 24.102706"></polygon>
                                                    <g id="XMLID_229_" transform="translate(0.000000, 24.053870)">
                                                        <polyline id="XMLID_240_" stroke="#18203D" stroke-width="0.977355152" stroke-linecap="round" stroke-linejoin="round" points="15.8090554 13.0773262 15.2510887 16.6136305 17.4829554 16.8928124"></polyline>
                                                        <path d="M27.3403663,3.39901951 C27.3403663,3.39901951 23.7135831,2.65453439 23.5275942,4.32962592 C23.5275942,4.32962592 23.3416053,5.44635361 26.5964108,6.00471746 C29.8512163,6.5630813 30.7811608,6.37696002 31.1531385,5.44635361 C31.4321219,4.32962592 29.0142663,3.5851408 27.3403663,3.39901951 Z" id="XMLID_239_" fill="#18203D" fill-rule="nonzero"></path>
                                                        <path d="M11.6243054,2.09617054 C11.6243054,2.09617054 14.6931221,2.09617054 14.8791109,3.5851408 C14.8791109,3.5851408 14.8791109,4.70186849 12.0892776,4.5157472 C9.29944434,4.5157472 8.46249435,3.95738336 8.27650546,3.21289823 C8.18351102,2.28229182 10.1363943,2.09617054 11.6243054,2.09617054 Z" id="XMLID_238_" fill="#18203D" fill-rule="nonzero"></path>
                                                        <ellipse id="XMLID_237_" fill="#18203D" fill-rule="nonzero" cx="11.4383165" cy="9.82020373" rx="1.85988887" ry="1.86121282"></ellipse>
                                                        <ellipse id="XMLID_236_" fill="#18203D" fill-rule="nonzero" cx="25.387483" cy="10.8438708" rx="1.85988887" ry="1.86121282"></ellipse>
                                                        <g id="XMLID_231_" stroke="#FFFFFF">
                                                            <ellipse id="XMLID_235_" stroke-width="0.91152391" cx="26.3174275" cy="10.1924463" rx="8.09051657" ry="8.09627575"></ellipse>
                                                            <ellipse id="XMLID_234_" stroke-width="0.922104181" transform="translate(8.426703, 8.404415) rotate(92.141575) translate(-8.426703, -8.404415) " cx="8.42670332" cy="8.40441482" rx="8.09625522" ry="7.53257204"></ellipse>
                                                            <path d="M15.6230665,9.82020373 L18.2269109,10.006325" id="XMLID_233_" stroke-width="0.91152391"></path>
                                                            <path d="M34.5009385,10.5646889 L37.2907718,9.82020373" id="XMLID_232_" stroke-width="0.91152391"></path>
                                                        </g>
                                                        <path d="M13.4841943,19.1262678 C13.4841943,19.1262678 15.530072,21.3597232 20.6447664,20.0568742" id="XMLID_230_" stroke="#18203D" stroke-width="0.977355152" stroke-linecap="round" stroke-linejoin="round"></path>
                                                    </g>
                                                    <path d="M15.8090554,6.14200229 C15.8090554,6.14200229 4.46373328,8.37545767 7.53254991,21.6831293 C7.53254991,21.6831293 19.8078164,15.6341877 23.9925664,8.65463959 L15.8090554,6.14200229 Z" id="XMLID_228_" fill="#18203D" fill-rule="nonzero"></path>
                                                    <path d="M15.8090242,6.14200229 C15.8090242,6.14200229 15.6230665,26.3361613 43.9863717,26.8945252 C43.9863717,26.8945252 47.613155,17.5884611 40.9175551,11.7256407 C34.2219552,5.86282037 15.8090242,6.14200229 15.8090242,6.14200229 Z" id="XMLID_227_" fill="#18203D" fill-rule="nonzero"></path>
                                                    <g id="XMLID_222_" transform="translate(35.337888, 30.710011)">
                                                        <g id="XMLID_224_">
                                                            <ellipse id="XMLID_226_" fill="#EAA990" fill-rule="nonzero" cx="7.43955547" cy="6.97954806" rx="6.78859437" ry="6.79342678"></ellipse>
                                                            <path d="M5.02169994,9.02688216 C5.02169994,9.02688216 5.02169994,4.0946682 9.76441655,5.0252746" id="XMLID_225_" stroke="#18203D" stroke-width="1.09281734" stroke-linecap="round" stroke-linejoin="round"></path>
                                                        </g>
                                                        <ellipse id="XMLID_223_" fill="#FFFFFF" fill-rule="nonzero" cx="5.02169994" cy="13.4007323" rx="1.85988887" ry="1.86121282"></ellipse>
                                                    </g>
                                                    <path d="M44.9163161,12.7493078 C44.9163161,12.7493078 55.1457049,-8.65463959 66.3050381,4.65303204 C77.6503602,18.2398856 62.4922659,23.5443421 49.287055,22.9859783 L44.9163161,12.7493078 Z" id="XMLID_221_" fill="#18203D" fill-rule="nonzero"></path>
                                                    <path d="M32.6410496,69.9816019 L41.5685162,72.5872998 C41.5685162,72.5872998 33.1060218,82.8239703 18.1339165,81.0558181 C3.62678329,79.1946053 11.9032888,68.0273284 11.9032888,68.0273284 L19.9938053,67.4689646 L32.6410496,69.9816019 Z" id="XMLID_220_" fill="#EAA990" fill-rule="nonzero"></path>
                                                </g>
                                            </g>
                                        </g>
                                        <path d="M540.576699,165.741001 L453.719889,181.002946 L443.025528,312.21845 L437.445862,338.089308 L464.41425,339.578278 L554.339877,331.668124 C559.361577,331.202821 564.197288,329.527729 568.382038,326.73591 C575.635604,321.803696 580.006343,316.313118 580.378321,297.887111 L582.610188,188.913101 C583.07516,169.091184 574.519671,158.575332 555.269821,162.856121 C555.269821,163.042243 540.576699,165.741001 540.576699,165.741001 Z" id="Path" fill="url(#linearGradient-22)" fill-rule="nonzero"></path>
                                        <path d="M421.543812,337.251762 L464.41425,339.671339 C464.41425,339.671339 503.471916,176.629096 453.719889,181.002946 C403.316901,185.376796 421.543812,337.251762 421.543812,337.251762 Z" id="Path" fill="url(#linearGradient-23)" fill-rule="nonzero"></path>
                                    </g>
                                    <path d="M410.849451,253.311064 L410.756456,253.590246 L410.849451,253.311064 C410.756456,253.404125 410.756456,253.311064 410.849451,253.311064 Z" id="Path" fill="url(#radialGradient-24)" fill-rule="nonzero"></path>
                                </g>
                            </g>
                            <g id="XMLID_123_" transform="translate(145.071332, 262.986156)">
                                <path d="M26.4104219,72.3081179 L22.8766331,81.9864246 C22.3186664,81.8003033 21.7606997,81.614182 21.2027331,81.4280607 C20.9237498,81.3350001 20.6447664,81.1488788 20.3657831,81.0558181 C19.6218276,80.6835756 18.877872,80.311333 18.2269109,79.9390905 C17.9479276,79.7529692 17.6689442,79.5668479 17.3899609,79.3807266 C4.74271661,71.0052689 8.64848323,52.1139589 8.64848323,52.1139589 C13.3911998,67.1897827 26.4104219,72.3081179 26.4104219,72.3081179 Z" id="XMLID_191_" fill="#EDD0B4" fill-rule="nonzero"></path>
                                <path d="M22.7836386,73.7970882 L21.2957275,81.3350001 C21.0167442,81.2419394 20.7377609,81.0558181 20.4587775,80.9627575 C19.714822,80.5905149 18.9708664,80.2182724 18.3199053,79.8460298 C19.2498498,76.4027861 22.7836386,73.7970882 22.7836386,73.7970882 Z" id="XMLID_190_" fill="#E2C3AA" fill-rule="nonzero"></path>
                                <ellipse id="XMLID_187_" fill="#2B3172" fill-rule="nonzero" opacity="0.0816824777" cx="63.4804778" cy="113.161739" rx="50.6255" ry="10.9811556"></ellipse>
                                <path d="M53.7507883,104.414039 C53.1928216,104.414039 52.6348549,104.5071 52.0768883,104.693221 L43.8003828,102.925069 L53.7507883,91.7577918 C53.7507883,91.7577918 73.9305825,89.8035184 84.3459601,81.4280607 L26.5034164,81.4280607 L26.5034164,110.556041 L59.8884215,110.556041 C59.7954271,107.205858 57.0985882,104.414039 53.7507883,104.414039 Z" id="XMLID_186_" fill="#D6B499" fill-rule="nonzero"></path>
                                <path d="M91.0415601,104.693221 C90.4835934,104.693221 89.9256267,104.786282 89.4606545,104.879342 L93.9243878,34.711619 L82.1140935,33.40877 L79.7892324,110.742163 L84.9969212,110.742163 L88.4377156,110.742163 L97.1791933,110.742163 C97.1791933,107.48504 94.4823545,104.693221 91.0415601,104.693221 Z" id="XMLID_185_" fill="#D6B499" fill-rule="nonzero"></path>
                                <polygon id="XMLID_184_" fill="#89563F" fill-rule="nonzero" points="78.6732991 14.0521568 78.6732991 0.0930606408 99.2250711 12.7493078"></polygon>
                                <path d="M110.756382,33.5018307 C104.711743,34.9908009 96.9932044,35.9214074 87.042799,35.9214074 L87.042799,10.9811556 L130.564198,10.9811556 C130.564198,10.9811556 136.143865,27.2667678 110.756382,33.5018307 Z" id="XMLID_183_" fill="#EDD0B4" fill-rule="nonzero"></path>
                                <path d="M110.756382,33.5018307 C130.099226,23.1720996 126.472443,16.7509153 126.472443,16.7509153 C124.51956,15.4480664 124.240576,12.5631865 124.147582,10.9811556 L130.564198,10.9811556 C130.564198,10.9811556 136.143865,27.2667678 110.756382,33.5018307 Z" id="XMLID_180_" fill="#E2C3AA" fill-rule="nonzero"></path>
                                <ellipse id="XMLID_179_" fill="#594A42" fill-rule="nonzero" cx="130.936176" cy="10.9811556" rx="4.46373328" ry="4.46691076"></ellipse>
                                <ellipse id="XMLID_178_" fill="#594A42" fill-rule="nonzero" cx="97.6441655" cy="18.3329462" rx="1.67389998" ry="1.67509153"></ellipse>
                                <polygon id="XMLID_177_" fill="#EDD0B4" fill-rule="nonzero" points="89.3289404 11.3358655 62.1202882 4.0946682 72.2566825 23.3582208 72.2566825 35.8283467 86.9498045 35.8283467"></polygon>
                                <polygon id="XMLID_176_" fill="#EDD0B4" fill-rule="nonzero" points="92.5294711 32.5712243 78.6732991 113.2548 69.9318214 113.2548 72.2566825 35.8283467"></polygon>
                                <path d="M75.1395102,113.2548 C75.1395102,109.904617 77.8363491,107.112798 81.2771435,107.112798 C84.7179379,107.112798 87.4147768,109.811556 87.4147768,113.2548 L75.1395102,113.2548 Z" id="XMLID_175_" fill="#EDD0B4" fill-rule="nonzero"></path>
                                <path d="M40.6385718,113.2548 C40.6385718,109.904617 43.3354106,107.112798 46.776205,107.112798 C50.124005,107.112798 52.9138383,109.811556 52.9138383,113.2548 L40.6385718,113.2548 Z" id="XMLID_172_" fill="#EDD0B4" fill-rule="nonzero"></path>
                                <path d="M104.153777,31.4544966 C104.153777,31.4544966 104.060782,32.7573456 103.688804,34.8046797 C103.409821,36.4797712 103.037843,38.7132266 102.386882,41.2258639 C101.642927,44.2038044 100.712982,47.4609268 99.41106,50.7180492 C98.2951266,53.6029291 96.8072155,56.3947483 95.1333156,58.9073856 C92.1574934,63.0951145 88.2517268,66.3522369 83.2300268,67.0036614 C82.5790657,67.096722 81.9281046,67.096722 81.1841491,67.096722 C71.8847047,67.096722 71.9776992,58.4420824 74.5815436,49.3221396 C75.4184936,46.2511385 76.6274213,43.1801373 77.8363491,40.3883181 C78.2083269,39.5507723 78.5803046,38.6201659 78.9522824,37.8756808 C81.3701379,32.6642849 83.5090101,28.755738 83.5090101,28.755738 L104.153777,31.4544966 Z" id="XMLID_170_" fill="#EDD0B4" fill-rule="nonzero"></path>
                                <path d="M83.1370324,74.1693307 C82.5790657,80.4974543 77.0923936,84.9643651 70.675777,88.0353662 L70.675777,88.0353662 C66.8630048,89.8035184 62.7712493,91.1063673 59.0514715,92.0369738 C52.2628772,93.8051259 46.6832106,94.2704291 46.6832106,94.2704291 L36.7328051,105.437706 L45.1952995,107.298919 L45.1952995,113.161739 L19.4358387,113.161739 L19.4358387,90.3618822 C19.4358387,88.4076088 19.5288331,86.5463959 19.8078164,84.6851831 C21.7606997,69.8885412 30.9671496,56.8600515 44.7303273,50.3458067 C44.7303273,50.3458067 46.8691995,49.0429577 49.9380161,46.9956236 L49.9380161,46.9956236 C54.4947438,43.9246225 61.0043548,39.0854691 65.8400659,33.9671339 C67.0489937,32.6642849 68.164927,31.4544966 69.0948714,30.1516476 C70.7687714,27.8251316 71.9776992,25.4986156 72.2566825,23.3582208 C73.0936325,16.9370366 76.2554436,25.4986156 78.9522824,37.7826202 C79.2312657,39.0854691 79.5102491,40.4813788 79.7892324,41.7842277 C80.7191768,46.1580778 81.4631324,50.9041705 82.1140935,55.3710813 C82.6720602,59.4657495 83.0440379,63.3742964 83.2300268,66.8175401 C83.4160157,69.70242 83.4160157,72.2150573 83.1370324,74.1693307 Z" id="XMLID_169_" fill="#EDD0B4" fill-rule="nonzero"></path>
                                <path d="M96.5282322,56.8600515 C97.73716,54.9057781 98.6671044,52.858444 99.5040544,50.7180492 C94.6683433,49.5082609 86.8568101,46.9956236 79.8822269,41.8772884 C79.2312657,41.4119852 78.5803046,40.946682 77.9293435,40.3883181 C74.5815436,37.6895595 71.5127269,34.3393765 69.0948714,30.2447083 C68.3509159,31.1753147 67.6069603,32.1989817 66.6770159,33.1295881 C69.1878659,38.5271053 77.7433547,53.5098685 96.5282322,56.8600515 Z" id="XMLID_165_" fill="#E2C3AA" fill-rule="nonzero"></path>
                                <path d="M70.675777,69.3301774 L70.675777,88.1284268 L70.675777,88.1284268 C66.8630048,89.896579 62.7712493,91.199428 59.0514715,92.1300344 C52.2628772,93.8051259 46.6832106,94.3634898 46.6832106,94.3634898 L42.8704384,77.5195138 C65.7470715,96.0385813 70.675777,69.3301774 70.675777,69.3301774 Z" id="XMLID_163_" fill="#E2C3AA" fill-rule="nonzero"></path>
                                <path d="M2.88282774,55.3710813 C2.88282774,55.3710813 3.71977773,49.229079 12.7402387,47.8331694" id="XMLID_162_" stroke="#EDD0B4" stroke-width="0.936433029"></path>
                                <path d="M0.464972217,53.3237472 C0.464972217,53.3237472 1.30192221,47.1817449 10.3223832,45.7858353" id="XMLID_161_" stroke="#EDD0B4" stroke-width="0.936433029"></path>
                                <path d="M101.642927,50.7180492 C101.270949,51.7417163 100.341004,52.858444 98.1091378,53.7890504 C98.1091378,53.7890504 83.9739824,53.6029291 73.0936325,40.4813788 L73.0936325,40.4813788 C71.1407492,38.0618021 69.2808603,35.2699829 67.6069603,32.0128604 C67.6069603,32.0128604 67.1419881,25.6847369 71.6057214,25.5916762 C71.6057214,25.5916762 74.7675325,46.1580778 100.712982,47.0886842 C100.805977,47.0886842 102.293888,48.7637758 101.642927,50.7180492 Z" id="XMLID_160_" fill="#F26522" fill-rule="nonzero"></path>
                                <path d="M123.775604,24.2888273 L127.216399,29.1279806 C128.239337,30.5238902 127.960354,32.4781636 126.472443,33.5018307 L126.472443,33.5018307 C125.077526,34.5254977 123.124643,34.2463158 122.101704,32.7573456 L118.66091,27.9181922 L123.775604,24.2888273 Z" id="XMLID_385_" fill="#F9968C" fill-rule="nonzero"></path>
                                <path d="M125.635493,21.2178261 C125.635493,21.2178261 122.566676,28.1043135 115.871076,28.755738" id="XMLID_141_" stroke="#594A42" stroke-width="1.87286606" stroke-linecap="round" stroke-linejoin="round"></path>
                                <path d="M103.688804,34.8046797 C103.409821,36.4797712 103.037843,38.7132266 102.386882,41.2258639 C93.8313934,40.6675 86.5778268,35.7352861 86.5778268,35.7352861 L103.688804,34.8046797 Z" id="XMLID_134_" fill="#E2C3AA" fill-rule="nonzero"></path>
                                <polygon id="XMLID_126_" fill="#89563F" fill-rule="nonzero" points="63.0502326 5.95588101 77.6503602 16.6578547 72.2566825 23.3582208"></polygon>
                                <path d="M101.642927,50.7180492 C101.270949,51.7417163 100.341004,52.858444 98.1091378,53.7890504 C98.1091378,53.7890504 83.9739824,53.6029291 73.0936325,40.4813788 C73.9305825,41.2258639 88.716699,53.3237472 101.642927,50.7180492 Z" id="XMLID_125_" fill="#D8501A" fill-rule="nonzero"></path>
                                <path d="M49.9380161,46.9956236 C49.1010661,50.9972312 47.1481828,57.6975973 43.0564273,59.9310527 C37.1047829,63.1881751 48.0781272,88.4076088 21.0167442,84.8713044 C20.551772,84.7782438 20.1797942,84.7782438 19.8078164,84.6851831 C21.7606997,69.8885412 30.9671496,56.8600515 44.7303273,50.3458067 C44.7303273,50.4388673 46.8691995,49.1360183 49.9380161,46.9956236 Z" id="XMLID_124_" fill="#89563F" fill-rule="nonzero"></path>
                            </g>
                        </g>
                        <g id="Fat-plant" transform="translate(745.950000, 395.300000)" fill-rule="nonzero">
                            <path d="M77.8079078,129.119888 C77.8079078,132.149333 60.526362,134.605641 39.2315661,134.605641 C17.9367703,134.605641 0.655224487,132.149333 0.655224487,129.119888 C0.655224487,126.090442 17.9367703,123.634135 39.2315661,123.634135 C60.526362,123.634135 77.8079078,126.090442 77.8079078,129.119888 Z" id="Path" fill="#292C6B" opacity="0.38"></path>
                            <g id="Group" transform="translate(3.276122, 0.000000)">
                                <g transform="translate(0.000000, 62.226452)">
                                    <path d="M0.163806122,24.3993193 C0.900933669,42.8216242 6.47034181,59.7701446 12.8587806,64.1914978 C20.4757652,69.43162 49.3875457,70.414143 61.2634895,63.7821132 C65.2767395,60.8345444 68.8804742,53.6293763 71.2556629,44.4591624 C74.2860762,32.8326411 75.5146221,18.0947972 73.5489486,4.83073772 L1.80186734,4.09384552 L1.47425509,4.09384552 L1.47425509,4.09384552 C0.245709182,10.6439984 -0.163806122,17.6035357 0.163806122,24.3993193 Z" id="Path" fill="#232360"></path>
                                    <path d="M0.163806122,24.3993193 L0.163806122,24.3993193 C27.7651376,52.073715 71.2556629,44.4591624 71.2556629,44.4591624 C74.2860762,32.8326411 75.5146221,18.0947972 73.5489486,4.83073772 L1.80186734,4.09384552 L1.47425509,4.09384552 C0.245709182,10.6439984 -0.163806122,17.6035357 0.163806122,24.3993193 Z" id="Path" fill="#2B3172"></path>
                                    <ellipse id="Oval" fill="#2D2D84" cx="37.4296988" cy="4.33947625" rx="36.1192498" ry="3.9300917"></ellipse>
                                    <path d="M65.931964,4.33947625 C65.931964,5.56762991 57.1683365,6.55015283 45.1285865,6.79578357 L45.0466835,6.79578357 C44.0638467,6.79578357 42.9991069,6.87766048 42.0162702,6.87766048 C40.5420151,6.87766048 38.985857,6.87766048 37.4296988,6.87766048 C36.0373468,6.87766048 34.6449947,6.87766048 33.2526427,6.87766048 C19.4929285,6.71390666 8.92743363,5.64950682 8.92743363,4.33947625 C8.92743363,3.02944569 19.4110254,1.96504585 33.0888366,1.80129203 C34.4811886,1.80129203 35.9554437,1.80129203 37.5116019,1.80129203 C38.9039539,1.80129203 40.2963059,1.80129203 41.688658,1.80129203 C42.6714947,1.80129203 43.6543314,1.80129203 44.6371682,1.88316894 L44.7190712,1.88316894 C56.9226273,2.12879967 65.931964,3.1113226 65.931964,4.33947625 Z" id="Path" fill="#A39CD8"></path>
                                </g>
                                <g transform="translate(11.466429, 0.000000)" id="Path">
                                    <g transform="translate(13.104490, 0.000000)">
                                        <path d="M14.6606479,63.8639901 C14.6606479,63.8639901 4.50466835,35.2070715 7.9445969,17.0303974 L14.2511326,31.3588567 C14.2511326,31.3588567 17.9367703,9.49772161 22.7690509,0.573138373 C22.7690509,0.573138373 29.1574897,27.5925188 29.1574897,35.3708253 L32.1059998,29.4756878 C32.1059998,29.4756878 32.8431274,53.4656225 29.8127141,65.0921438 L14.6606479,63.8639901 Z" fill="#2D2D84"></path>
                                        <path d="M26.0451733,64.6008823 C26.0451733,64.6008823 15.0701632,40.9384552 5.73321426,31.6044874 C5.73321426,31.6044874 7.28937241,54.6118993 14.6606479,63.8639901 L26.0451733,64.6008823 Z" fill="url(#linearGradient-25)"></path>
                                        <path d="M21.0490866,65.0102669 C21.0490866,65.0102669 28.1746529,36.3533482 39.3134692,27.5925188 C39.3134692,27.5925188 40.2144029,54.6118993 32.1879029,65.5834053 L21.0490866,65.0102669 Z" fill="#232360"></path>
                                        <path d="M14.0054234,65.1740207 C14.0054234,65.1740207 1.47425509,53.4656225 0.0819030608,43.7222702 C0.0819030608,43.7222702 20.4757652,53.1381149 32.1879029,65.5015283 C32.1879029,65.5015283 18.837704,68.530974 14.0054234,65.1740207 Z" fill="url(#linearGradient-26)"></path>
                                        <path d="M45.6200049,40.3653168 C45.6200049,40.3653168 27.7651376,49.5355308 20.8033775,66.3202974 C20.8033775,66.3202974 30.1403264,68.3672202 34.2354794,64.3552516 C38.3306325,60.2614061 45.6200049,40.3653168 45.6200049,40.3653168 Z" fill="#232366"></path>
                                    </g>
                                    <g transform="translate(0.000000, 2.456307)">
                                        <path d="M14.9063571,63.4546056 C14.9063571,63.4546056 4.75037753,34.7976869 8.19030608,16.6210128 L14.4968418,30.9494721 C14.4968418,30.9494721 18.1824795,9.08833706 23.0147601,0.163753821 C23.0147601,0.163753821 29.4031988,27.1831343 29.4031988,34.9614408 L32.351709,29.0663032 C32.351709,29.0663032 33.0888366,53.056238 30.0584233,64.6827592 L14.9063571,63.4546056 Z" fill="#2D2D84"></path>
                                        <path d="M23.0147601,64.3552516 C23.0147601,64.3552516 16.4625152,26.1187344 26.2089795,4.91261463 C26.2908825,4.91261463 37.1020866,35.6983329 23.0147601,64.3552516 Z" fill="#232366"></path>
                                        <path d="M26.2908825,64.1914978 C26.2908825,64.1914978 15.3158724,40.5290707 5.97892344,31.1951029 C5.97892344,31.1951029 7.5350816,54.2025147 14.9063571,63.4546056 L26.2908825,64.1914978 Z" fill="#232360"></path>
                                        <path d="M21.3766989,64.6008823 C21.3766989,64.6008823 28.5022652,35.9439637 39.6410814,27.1831343 C39.6410814,27.1831343 40.5420151,54.2025147 32.5155152,65.1740207 L21.3766989,64.6008823 Z" fill="#232360"></path>
                                        <path d="M14.2511326,64.8465131 C14.2511326,64.8465131 1.71996428,53.1381149 0.327612243,43.3947625 C0.327612243,43.3947625 20.7214744,52.8106072 32.4336121,65.1740207 C32.4336121,65.1740207 19.0834132,68.1215895 14.2511326,64.8465131 Z" fill="#2D2D84"></path>
                                        <path d="M45.8657141,40.0378092 C45.8657141,40.0378092 28.0108468,49.2080232 21.0490866,65.9927898 C21.0490866,65.9927898 30.3860356,68.0397126 34.4811886,64.027744 C38.5763417,60.0157753 45.8657141,40.0378092 45.8657141,40.0378092 Z" fill="#2D2D84"></path>
                                    </g>
                                </g>
                            </g>
                        </g>
                        <g id="Thin-plant" transform="translate(651.400000, 362.150000)">
                            <g id="XMLID_115_">
                                <path d="M2.29427334,0.326680281 C2.29427334,0.326680281 -2.212335,3.43014295 2.54008834,7.26863625 C7.29251168,11.1071295 8.76740168,16.334014 9.58678502,20.907538 C10.6519834,26.706113 13.8475784,38.0582527 28.1867867,33.5663989 C28.1867867,33.5663989 34.3321617,29.6462355 28.4326017,20.1725073 C22.5330417,10.6987792 20.8123367,17.1507147 15.3224684,7.84032674 C9.83260002,-1.47006126 4.26079334,0.0816700702 2.29427334,0.326680281 Z" id="XMLID_188_" fill="#30308C" fill-rule="nonzero"></path>
                                <path d="M35.6431751,53.9839164 C35.6431751,53.9839164 39.0026467,32.6680281 5.73568334,4.32851372" id="XMLID_122_" stroke="#A39CD8" stroke-width="0.823391188"></path>
                                <path d="M65.3048518,18.7024461 C65.3048518,18.7024461 67.8449401,21.2342183 64.3215918,23.1942999 C60.7982434,25.1543816 59.2414151,28.3395144 58.1762168,31.1979668 C56.7832651,34.87312 53.4237934,41.8150759 44.7383301,37.241552 C44.7383301,37.241552 41.2149817,34.0564193 46.1312817,28.5845246 C51.0475818,23.1126299 51.4572734,27.5228137 56.0458201,22.132589 C60.6343668,16.7423644 63.9938384,18.2940957 65.3048518,18.7024461 Z" id="XMLID_121_" fill="#30308C" fill-rule="nonzero"></path>
                                <path d="M36.2167434,55.0456273 C36.2167434,55.0456273 33.8405317,40.1000045 57.1110184,25.2360517" id="XMLID_120_" stroke="#A39CD8" stroke-width="0.823391188"></path>
                                <path d="M39.1665234,0.16320408 C39.1665234,0.16320408 35.5612367,0.0816700702 36.6264351,3.92016337 C37.6916334,7.75865667 36.3806201,11.1887996 35.0696067,13.8839119 C33.3489017,17.395725 30.6449367,24.6643612 39.9859067,27.7678239 C39.9859067,27.7678239 44.7383301,28.0945041 45.3118984,20.7441978 C45.8035284,13.3938915 42.4440567,16.1706739 43.1815017,9.14704786 C43.9189467,2.12342183 40.3136601,0.816700702 39.1665234,0.16320408 Z" id="XMLID_119_" fill="#30308C" fill-rule="nonzero"></path>
                                <path d="M35.6431751,53.3305558 C35.6431751,53.3305558 40.8872284,34.5464397 39.4942767,3.59348309" id="XMLID_118_" stroke="#A39CD8" stroke-width="0.823391188"></path>
                                <g id="XMLID_116_" transform="translate(26.220267, 52.268845)" fill="#232360" fill-rule="nonzero">
                                    <g id="Group">
                                        <path d="M9.91453835,6.04358519 L10.2422917,4.00183344 C10.32423,3.43014295 10.4061684,2.94012253 10.570045,2.45010211 L11.4713667,0.326680281 L9.42290835,0.326680281 L7.37445001,0.326680281 L8.27577168,2.45010211 C8.43964835,2.94012253 8.60352501,3.51181302 8.60352501,4.00183344 L8.93127835,6.04358519 C-0.409691667,13.5572317 0.573568334,33.8933234 0.573568334,33.8933234 L9.42290835,33.8933234 L18.19031,33.8933234 C18.19031,33.9747492 19.2555084,13.5572317 9.91453835,6.04358519 Z" id="XMLID_210_"></path>
                                    </g>
                                </g>
                            </g>
                            <g id="XMLID_111_" transform="translate(15.568283, 85.753574)" fill-rule="nonzero">
                                <polygon id="XMLID_114_" fill="#2B3172" transform="translate(20.465942, 21.711898) rotate(-125.352514) translate(-20.465942, -21.711898) " points="-4.51026514 20.9730198 45.4445553 20.8956695 45.4421499 22.4507769 -4.51267047 22.5281272"></polygon>
                                <polygon id="XMLID_113_" fill="#2B3172" transform="translate(20.400535, 21.760888) rotate(-144.676124) translate(-20.400535, -21.760888) " points="19.6616319 -3.215615 21.2167625 -3.21801952 21.1394383 46.7373912 19.5843077 46.7397957"></polygon>
                                <rect id="XMLID_112_" fill="#A39CD8" x="0.327753334" y="0" width="40.1497834" height="2.85845246"></rect>
                            </g>
                        </g>
                        <g id="Book-shelf" transform="translate(575.900000, 110.200000)" fill-rule="nonzero">
                            <g id="XMLID_3_">
                                <g id="XMLID_5_" transform="translate(0.000000, 0.323831)">
                                    <polygon id="XMLID_79_" fill="#9B92EB" points="0.245327771 118.456214 263.727354 118.210305 263.727354 131.1615 0.245327771 131.325439"></polygon>
                                    <polygon id="XMLID_79_-Copy" fill="#DBC3F4" points="0.245327771 118.456214 263.727354 117.882427 263.727354 119.439849 0.245327771 119.931667"></polygon>
                                    <g id="XMLID_20_" transform="translate(150.467700, 0.495865)">
                                        <g id="XMLID_21_">
                                            <rect id="XMLID_83_" fill="#A59DE8" x="2.04439809" y="1.97743548" width="102.628784" height="113.609843"></rect>
                                            <g id="XMLID_27_" fill="#391F7A">
                                                <g id="XMLID_28_">
                                                    <path d="M106.472253,117.636518 L0.163551847,117.636518 L0.163551847,0.010165465 L106.554029,0.010165465 L106.472253,117.636518 L106.472253,117.636518 Z M3.84346842,113.620009 L102.792336,113.620009 L102.792336,3.94470549 L3.84346842,3.94470549 C3.84346842,3.94470549 3.84346842,113.620009 3.84346842,113.620009 Z" id="XMLID_29_"></path>
                                                </g>
                                            </g>
                                            <rect id="XMLID_77_" fill="#6A57DD" x="12.1028367" y="9.68257635" width="82.4301311" height="97.0519872"></rect>
                                        </g>
                                        <g id="XMLID_32_" transform="translate(23.482925, 23.966271)">
                                            <ellipse id="XMLID_75_" fill="#E5E1F8" cx="11.5304052" cy="11.4757417" rx="11.3668534" ry="11.3937721"></ellipse>
                                            <ellipse id="XMLID_74_" fill="#2A2A6C" cx="42.7688081" cy="47.3784194" rx="19.3808939" ry="19.4267914"></ellipse>
                                            <rect id="XMLID_73_" fill="#2A2450" x="29.1122288" y="5.73787086" width="22.6519309" height="10.1642284"></rect>
                                            <rect id="XMLID_107_" fill="#5AC2EF" x="7.27805721" y="36.640404" width="10.1402145" height="22.7055747"></rect>
                                        </g>
                                    </g>
                                </g>
                                <path d="M10.1402145,118.737599 L3.92524434,118.737599 C3.18926103,118.737599 2.53505364,118.077801 2.53505364,117.335528 L2.45327771,74.2012269 C2.45327771,73.458954 3.1074851,72.7991559 3.84346842,72.7991559 L10.0584386,72.7991559 C10.7944219,72.7991559 11.4486293,73.458954 11.4486293,74.2012269 L11.5304052,117.253054 C11.5304052,118.077801 10.8761979,118.737599 10.1402145,118.737599 Z" id="XMLID_69_" fill="#FFEE9F"></path>
                                <path d="M21.1799642,118.737599 L14.964994,118.737599 C14.2290107,118.737599 13.5748033,118.076615 13.5748033,117.333007 L13.4930274,74.2037486 C13.4930274,73.4601407 14.1472348,72.7991559 14.8832181,72.7991559 L21.0981883,72.7991559 C21.8341716,72.7991559 22.488379,73.4601407 22.488379,74.2037486 L22.5701549,117.333007 C22.5701549,118.076615 21.9977235,118.737599 21.1799642,118.737599 Z" id="XMLID_68_" fill="#5AC2EF"></path>
                                <path d="M32.0561621,118.737599 L25.8411919,118.737599 C25.1052086,118.737599 24.4510012,118.076615 24.4510012,117.333007 L24.3692253,74.2037486 C24.3692253,73.4601407 25.0234327,72.7991559 25.759416,72.7991559 L31.9743862,72.7991559 C32.7103695,72.7991559 33.3645769,73.4601407 33.3645769,74.2037486 L33.4463528,117.333007 C33.3645769,118.076615 32.8739213,118.737599 32.0561621,118.737599 Z" id="XMLID_67_" fill="#F3856D"></path>
                                <path d="M61.8225983,115.095461 L56.2618355,118.620153 C55.6076281,118.948032 54.8716448,118.702123 54.4627652,118.046366 L34.6729917,81.0780838 C34.345888,80.4223272 34.5912157,79.5206617 35.1636472,79.1927834 L40.72441,75.6680913 C41.3786174,75.340213 42.1146007,75.5861217 42.5234803,76.2418784 L62.3132539,113.210161 C62.5585817,113.865917 62.4768057,114.685613 61.8225983,115.095461 Z" id="XMLID_4_" fill="#373788"></path>
                                <path d="M73.5165554,115.095461 L67.9557926,118.620153 C67.3015852,118.948032 66.5656019,118.702123 66.1567223,118.046366 L46.3669488,81.0780838 C46.0398451,80.4223272 46.2851728,79.5206617 46.8576043,79.1927834 L52.4183671,75.6680913 C53.0725745,75.340213 53.8085578,75.5861217 54.2174374,77.7993005 L74.007211,114.767583 C74.4978665,113.865917 74.2525387,114.685613 73.5165554,115.095461 Z" id="XMLID_1_" fill="#F68370"></path>
                                <g id="Group" transform="translate(69.509535, 43.536014)">
                                    <g transform="translate(16.355185, 36.066617)" id="Path">
                                        <path d="M1.55374255,2.62302668 L3.84346842,35.6567689 C3.84346842,37.7060085 5.39721097,39.4273698 7.35983314,39.4273698 L35.8178546,39.4273698 C37.7804768,39.4273698 39.3342193,37.7060085 39.3342193,35.6567689 L41.6239452,2.62302668 L1.55374255,2.62302668 Z" fill="#232360"></path>
                                        <path d="M36.5538379,2.62302668 C36.472062,5.24605336 36.3902861,7.78711046 36.0631824,10.3281676 C35.2454231,16.2299776 32.9556973,21.6399701 29.2757807,26.3122364 C26.1682956,30.328746 22.1612753,34.263286 17.8271514,36.9682823 C16.2734088,37.9519173 14.5561144,38.7716131 12.83882,39.3454002 L35.8996305,39.3454002 C37.8622527,39.3454002 39.4159952,37.624039 39.4159952,35.5747994 L41.7057211,2.5410571 L36.5538379,2.5410571 L36.5538379,2.62302668 L36.5538379,2.62302668 Z" fill="#2D2D84"></path>
                                        <path d="M43.2594637,4.83620544 C43.2594637,5.32802295 42.850584,5.73787086 42.3599285,5.73787086 L1.14486293,5.73787086 C0.65420739,5.73787086 0.245327771,5.32802295 0.245327771,4.83620544 L0.245327771,0.983635005 C0.245327771,0.491817503 0.65420739,0.0819695838 1.14486293,0.0819695838 L42.3599285,0.0819695838 C42.850584,0.0819695838 43.2594637,0.491817503 43.2594637,0.983635005 L43.2594637,4.83620544 L43.2594637,4.83620544 Z" fill="#A39CD8"></path>
                                    </g>
                                    <g id="Path">
                                        <g transform="translate(23.715018, 0.819696)">
                                            <path d="M7.19628129,20.1645176 C7.19628129,20.1645176 6.95095352,6.14771878 0.490655542,0.573787086 C0.490655542,0.573787086 12.1028367,2.45908751 16.9276162,13.6069509 C16.9276162,13.6069509 11.3668534,27.2958714 10.2219905,30.7385939 L7.19628129,20.1645176 Z" fill="#2C2A6C"></path>
                                            <path d="M4.33412396,6.14771878 C9.649559,9.0986238 13.3294756,14.8364947 13.3294756,21.2301222 C13.3294756,21.7219397 13.3294756,22.2137572 13.2476996,22.7055747 C15.04677,18.1972476 16.9276162,13.6069509 16.9276162,13.6069509 C12.1028367,2.37711793 0.490655542,0.573787086 0.490655542,0.573787086 C2.12617402,1.96727001 3.35281287,4.01650961 4.33412396,6.14771878 Z" fill="url(#linearGradient-27)"></path>
                                        </g>
                                        <g transform="translate(0.000000, 15.574221)">
                                            <path d="M20.1986532,16.8857343 C20.1986532,16.8857343 12.9205959,4.91817503 0,3.0328746 C0,3.0328746 11.2033016,-1.31151334 23.3061383,1.14757417 C23.3061383,1.14757417 30.1753159,12.213468 27.1496067,16.2299776 L20.1986532,16.8857343 Z" fill="#2C2A6C"></path>
                                            <path d="M11.1215256,4.01650961 C18.6449106,4.01650961 25.1052086,9.01665422 27.4767104,15.8201297 C29.6846603,11.4757417 23.3061383,1.22954376 23.3061383,1.22954376 C11.2033016,-1.22954376 -4.92761387e-15,3.11484418 -4.92761387e-15,3.11484418 C2.12617402,3.44272252 4.17057211,4.01650961 6.05141836,4.83620544 C7.68693683,4.26241836 9.40423123,4.01650961 11.1215256,4.01650961 Z" fill="url(#linearGradient-28)"></path>
                                        </g>
                                        <path d="M44.2407747,36.3125256 C44.2407747,36.3125256 62.7221335,35.0829819 69.8366389,48.8538719 C69.8366389,48.8538719 73.7618832,23.6892097 42.850584,29.7549589 L44.2407747,36.3125256 Z" fill="#2C2A6C"></path>
                                        <path d="M47.5935876,31.5582898 C49.2291061,31.4763202 50.8646246,31.7222289 52.4183671,32.1320768 C55.4440763,32.9517727 58.7151132,34.263286 61.2501669,36.0666169 C63.7034446,37.7879781 65.8296186,39.9191873 67.4651371,42.4602444 C68.5282241,44.0996361 69.2642074,45.8209973 70.0001907,47.6243282 C70.3272944,42.7061532 69.7548629,24.426936 42.850584,29.7549589 L43.4230155,32.296016 C44.8132062,32.2140464 46.2033969,31.6402593 47.5935876,31.5582898 Z" fill="url(#linearGradient-29)"></path>
                                        <path d="M44.8949821,36.3125256 C44.8949821,36.3125256 54.8716448,19.7546697 75.8062813,16.3119472 C75.8062813,16.3119472 44.3225507,8.77074547 37.9440286,36.3944952 L44.8949821,36.3125256 Z" fill="#2C2A6C"></path>
                                        <path d="M44.8949821,28.2795064 C47.7571395,25.8204189 50.7828486,23.3613314 54.1356615,21.476031 C57.4066985,19.5907305 61.1683909,18.0333084 64.9300834,17.3775518 C67.546913,16.8857343 70.2455185,16.4758863 72.944124,16.4758863 C73.7618832,16.4758863 74.5796424,16.4758863 75.3974017,16.3939168 C75.5609535,16.3939168 75.7245054,16.3119472 75.8062813,16.3119472 C75.8062813,16.3119472 44.3225507,8.77074547 37.9440286,36.3944952 L38.1893564,36.3944952 C40.3155304,33.6075294 42.1963766,30.5746548 44.8949821,28.2795064 Z" fill="url(#linearGradient-30)"></path>
                                        <path d="M40.5608582,36.3944952 C40.5608582,36.3944952 45.1403099,13.197103 52.9090227,0.0819695838 C52.9090227,0.0819695838 31.4019547,9.75438047 33.8552324,36.5584344 L40.5608582,36.3944952 Z" fill="#2C2A6C"></path>
                                        <path d="M38.8435638,21.476031 C40.2337545,15.2463426 42.7688081,9.67241089 47.184708,4.91817503 C48.6566746,3.36075294 50.373969,2.13120918 52.1730393,1.31151334 C52.4183671,0.819695838 52.6636949,0.409847919 52.9090227,0 C52.9090227,0 31.4019547,9.67241089 33.8552324,36.4764648 L36.9627175,36.3944952 C36.7991657,34.7551035 36.9627175,29.9188981 38.8435638,21.476031 Z" fill="url(#linearGradient-31)"></path>
                                        <path d="M33.8552324,36.5584344 C33.8552324,36.5584344 14.4743385,35.6567689 4.49767581,44.9193319 C4.49767581,44.9193319 7.44160906,24.9187535 34.0187843,30.4926852 L33.8552324,36.5584344 Z" fill="#2C2A6C"></path>
                                        <path d="M25.1052086,31.9681377 C28.2126937,31.9681377 31.2384029,32.6238943 33.9370083,33.7714685 L34.0187843,30.4926852 C8.50469607,25.1646622 4.8247795,43.3619098 4.57945173,44.8373623 C8.34114422,37.2961606 16.1916329,31.9681377 25.1052086,31.9681377 Z" fill="url(#linearGradient-32)"></path>
                                        <g transform="translate(21.261740, 9.836350)">
                                            <path d="M12.83882,26.8860235 C12.83882,26.8860235 16.1916329,9.75438047 0.817759237,0.327878335 C0.817759237,0.327878335 -2.94393325,16.148008 7.60516091,23.7711793 C8.75002384,24.6728447 12.83882,26.8860235 12.83882,26.8860235 Z" fill="#2C2A6C"></path>
                                            <path d="M13.0023719,25.410571 C13.4112515,21.066183 13.4930274,8.03301921 0.817759237,0.327878335 C0.817759237,0.327878335 0.0817759237,3.36075294 0.163551847,7.37726254 C7.52338498,10.1642284 12.83882,17.2136126 13.0023719,25.410571 Z" fill="url(#linearGradient-33)"></path>
                                        </g>
                                    </g>
                                </g>
                            </g>
                        </g>
                        <g id="Frames+light" transform="translate(285.200000, 0.000000)" fill-rule="nonzero">
                            <rect id="Rectangle_17_" fill="url(#linearGradient-34)" x="188.623765" y="1.235" width="1" height="136.397747"></rect>
                            <polygon id="Rectangle_16_" fill="#391F7A" points="189.196592 0.832746504 190.096749 0.832746504 190.096749 137.632747 189.196592 137.632747"></polygon>
                            <polygon id="Path_77_" fill="url(#linearGradient-35)" opacity="0.25" points="212.600669 174.393004 165.710683 174.393004 0.654659489 373.013011 386.330931 373.013011"></polygon>
                            <path d="M216.364961,157.609367 C216.119464,159.983638 215.301139,164.404693 214.482815,168.088906 C213.664491,171.85499 213.091664,175.047975 213.091664,175.047975 C210.063864,175.457332 207.036063,175.784817 203.926431,176.030431 C199.016485,176.439788 193.942874,176.685403 188.951095,176.685403 C180.931516,176.685403 172.830105,176.194174 164.892359,175.129846 C164.892359,175.129846 162.191888,162.357908 161.619061,157.609367 C161.128067,152.860826 168.247489,148.849128 168.247489,148.849128 L209.818366,148.849128 C209.900199,148.930999 216.937788,152.942698 216.364961,157.609367 Z" id="Path_76_" fill="#F68370"></path>
                            <path d="M209.900199,148.930999 C206.790566,149.258485 203.844598,149.58597 200.734966,149.749713 C196.888841,149.995327 192.960884,150.077199 189.11476,150.077199 C182.159003,150.077199 175.285078,149.749713 168.329321,148.849128 C168.329321,148.849128 182.977327,141.562574 185.268635,140.007017 C187.559944,138.533332 187.150781,133.948534 187.150781,133.948534 L191.324236,133.948534 C191.324236,133.948534 190.915074,138.615203 193.206382,140.007017 C194.352036,140.74386 198.607323,142.954387 202.535279,144.919301 C206.135907,147.129828 209.900199,148.930999 209.900199,148.930999 Z" id="Path_75_" fill="#373788"></path>
                            <path d="M209.900199,148.930999 C206.790566,149.258485 203.844598,149.58597 200.734966,149.749713 C197.707166,147.375443 190.424079,141.971931 189.769419,140.580117 C189.11476,139.270174 189.605755,135.012862 189.769419,133.948534 L191.242403,133.948534 C191.242403,133.948534 190.833241,138.615203 193.124549,140.007017 C194.270203,140.74386 198.52549,142.954387 202.453447,144.919301 C206.135907,147.129828 209.900199,148.930999 209.900199,148.930999 Z" id="Path_74_" fill="#2A2450"></path>
                            <path d="M216.364961,157.609367 C216.119464,159.983638 215.301139,164.404693 214.482815,168.088906 C213.664491,171.85499 213.091664,175.047975 213.091664,175.047975 C205.072085,176.112303 197.052506,176.603531 189.032927,176.603531 C181.013349,176.603531 172.911938,176.112303 164.974191,175.047975 C164.974191,175.047975 162.273721,162.276037 161.700894,157.527496 L161.700894,157.527496 C179.70403,162.194165 198.443658,162.194165 216.364961,157.609367 L216.364961,157.609367 Z" id="Path_73_" fill="#2A2A6C"></path>
                        </g>
                        <g id="Frame-2" transform="translate(350.750000, 95.050000)" fill-rule="nonzero">
                            <rect id="Rectangle" fill="#131313" opacity="0.145548735" x="0.49547086" y="1.27041361" width="47.5652026" height="76.0553036"></rect>
                            <g id="Group" transform="translate(1.594729, 0.000000)">
                                <rect id="Rectangle" fill="#391F7A" x="0.0156455012" y="0.163912292" width="47.5652026" height="76.0553036"></rect>
                                <rect id="Rectangle" fill="#271152" x="4.06199086" y="4.01585116" width="39.4725119" height="68.3514259"></rect>
                                <rect id="Rectangle" fill="#A59DE8" x="5.87871735" y="5.57301794" width="35.8390589" height="65.2370923"></rect>
                                <rect id="Rectangle" fill="#6A57DD" x="9.01669946" y="9.91669368" width="29.5630947" height="56.631697"></rect>
                                <ellipse id="Oval" fill="#E5E1F8" cx="30.1567895" cy="20.4890365" rx="3.8811884" ry="3.85193887"></ellipse>
                                <path d="M24.9543455,59.3362498 C29.0006908,55.8121355 34.2857133,54.0910565 38.5797941,54.5008372 L38.5797941,47.9443455 C32.7993008,53.1895389 22.3944127,52.2060651 18.5132243,41.6337222 C15.7881346,34.2576691 12.402417,31.7170286 8.93412098,33.1922392 L8.93412098,55.9760478 C13.2282018,60.0738551 19.9170584,63.7618817 24.9543455,59.3362498 Z" id="Path" fill="#5AC2EF"></path>
                                <path d="M24.9543455,59.3362498 C19.9170584,63.6799256 13.2282018,59.991899 8.93412098,55.9760478 L8.93412098,66.4664345 L38.4972156,66.4664345 L38.4972156,54.5008372 C34.2857133,54.0910565 29.0832693,55.8121355 24.9543455,59.3362498 Z" id="Path" fill="#2A2450"></path>
                            </g>
                        </g>
                        <g id="Frame-1" transform="translate(277.600000, 150.150000)" fill-rule="nonzero">
                            <rect id="Rectangle" fill="#391F7A" x="0.654299028" y="0.48890125" width="44.5741213" height="71.5425495"></rect>
                            <rect id="Rectangle" fill="#271152" x="4.33473106" y="4.23714416" width="37.1314699" height="64.1275472"></rect>
                            <rect id="Rectangle" fill="#FFFFFF" x="6.13405339" y="5.62236437" width="33.5328252" height="61.2756233"></rect>
                            <rect id="Rectangle" fill="#6A57DD" x="9.07839902" y="9.69654145" width="27.7259213" height="53.2087527"></rect>
                            <g id="Group" transform="translate(8.996612, 15.481873)">
                                <ellipse id="Oval" fill="#C6C4F7" cx="19.874333" cy="4.15566062" rx="3.59864466" ry="3.58527583"></ellipse>
                                <path d="M15.0488777,32.7563837 C8.34231261,32.7563837 2.94434563,35.3638571 0.0817873785,37.5639127 L0.0817873785,47.4234212 L27.8077087,47.4234212 L27.8077087,36.1786925 C25.6812369,34.5490216 21.7554427,32.7563837 15.0488777,32.7563837 Z" id="Path" fill="#5AC2EF"></path>
                                <ellipse id="Oval" fill="#2A2450" cx="8.17873785" cy="18.1708298" rx="2.20825922" ry="7.82241999"></ellipse>
                                <rect id="Rectangle" fill="#2A2450" x="7.76980096" y="23.5487435" width="1" height="11.0002781"></rect>
                                <ellipse id="Oval" fill="#2A2450" cx="13.5767048" cy="24.2820954" rx="1.22681068" ry="4.40011125"></ellipse>
                                <rect id="Rectangle" fill="#2A2450" x="13.3313427" y="27.2969864" width="1" height="6.19274916"></rect>
                                <ellipse id="Oval" fill="#2A2450" cx="18.9746718" cy="22.2450069" rx="1.63574757" ry="5.70384791"></ellipse>
                                <rect id="Rectangle" fill="#2A2450" x="18.6475223" y="26.1562169" width="1" height="7.90390354"></rect>
                            </g>
                        </g>
                    </g>
                </g>
            </g>
        </g>
    </g>
</svg>