
<svg width="152px" height="60px" viewBox="0 0 152 60" version="1.1" xmlns="http://www.w3.org/2000/svg" xmlns:xlink="http://www.w3.org/1999/xlink">
    <g id="Alice.si...kalokairi" stroke="none" stroke-width="1" fill="none" fill-rule="evenodd">
        <g id="Alice.si" transform="translate(-326.000000, -2096.000000)" fill-rule="nonzero">
            <g id="Resonance-logo" transform="translate(326.000000, 2096.000000)">
                <path d="M0,37.6774194 L1.0985782,37.6774194 L1.0985782,31.9170507 C1.0985782,31.0414747 1.19763033,30.0460829 1.48578199,29.1152074 C2.06208531,27.1428571 3.34075829,25.3824885 5.37582938,25.3824885 C5.66398104,25.3824885 5.97914692,25.437788 5.97914692,25.437788 L5.97914692,24.3041475 C5.97914692,24.3041475 5.60995261,24.2211982 5.22274882,24.2211982 C3.16066351,24.2211982 1.70189573,25.9078341 1.0535545,27.9631336 L0.990521327,27.9631336 C0.990521327,27.9631336 1.0985782,27.483871 1.0985782,26.8663594 L1.0985782,24.3317972 L0,24.3317972 L0,37.6774194 Z M6.72654028,31.0322581 C6.72654028,35.2718894 9.77914692,38 13.4530806,38 C16.271564,38 18.0905213,36.156682 18.0905213,36.156682 L17.4872038,35.2258065 C17.4872038,35.2258065 15.9473934,36.9032258 13.4440758,36.9032258 C10.4184834,36.9032258 7.86113744,34.6912442 7.86113744,30.8202765 L18.3156398,30.8202765 C18.3156398,30.8202765 18.3696682,30.3963134 18.3696682,30.1013825 C18.3696682,26.875576 16.5957346,24.0184332 13.0478673,24.0184332 C9.72511848,24.0184332 6.72654028,26.5253456 6.72654028,31.0322581 L6.72654028,31.0322581 Z M7.95118483,29.7788018 C8.41943128,26.6543779 10.6345972,25.0599078 13.0388626,25.0599078 C15.2,25.0599078 17.1090047,26.5253456 17.2350711,29.7788018 L7.95118483,29.7788018 Z M20.3597156,36.0737327 C20.3597156,36.0737327 21.9265403,37.9907834 25.0781991,37.9907834 C27.4734597,37.9907834 29.2473934,36.5253456 29.2473934,34.3870968 C29.2473934,29.9539171 22.0796209,30.9953917 22.0796209,27.5299539 C22.0796209,25.797235 23.5383886,25.0967742 25.0241706,25.0967742 C27.2393365,25.0967742 28.3109005,26.3502304 28.3109005,26.3502304 L28.9592417,25.437788 C28.9592417,25.437788 27.7616114,24 25.0962085,24 C22.8810427,24 20.9270142,25.2258065 20.9270142,27.6036866 C20.9270142,31.9539171 28.0947867,30.9953917 28.0947867,34.3778802 C28.0947867,36.0368664 26.6900474,36.8847926 25.0962085,36.8847926 C22.5118483,36.8847926 21.0530806,35.2073733 21.0530806,35.2073733 L20.3597156,36.0737327 Z M31.1924171,30.9308756 C31.1924171,34.9032258 34.2180095,38 37.9459716,38 C41.6739336,38 44.6995261,34.9032258 44.6995261,30.9308756 C44.6995261,27.0322581 41.6739336,24.0184332 37.9459716,24.0184332 C34.2180095,24.0184332 31.1924171,27.0322581 31.1924171,30.9308756 L31.1924171,30.9308756 Z M32.336019,30.9308756 C32.336019,27.6221198 34.8393365,25.1152074 37.9369668,25.1152074 C41.0436019,25.1152074 43.5469194,27.6221198 43.5469194,30.9308756 C43.5469194,34.3225806 41.0436019,36.9124424 37.9369668,36.9124424 C34.8393365,36.9032258 32.336019,34.3133641 32.336019,30.9308756 L32.336019,30.9308756 Z M47.8061611,37.6774194 L48.9047393,37.6774194 L48.9047393,31.1705069 C48.9047393,30.5253456 48.9587678,29.9170507 49.1118483,29.3548387 C49.7601896,26.875576 51.9303318,25.1152074 54.3796209,25.1152074 C57.2971564,25.1152074 57.5853081,27.3087558 57.5853081,29.6313364 L57.5853081,37.6866359 L58.6838863,37.6866359 L58.6838863,29.2258065 C58.6838863,26.0737327 57.7744076,24.0184332 54.3796209,24.0184332 C51.1199052,24.0184332 49.2919431,26.5253456 48.8507109,27.7788018 L48.7966825,27.7788018 C48.7966825,27.7788018 48.8957346,27.2995392 48.8957346,26.6820276 L48.8957346,24.3317972 L47.7971564,24.3317972 L47.7971564,37.6774194 L47.8061611,37.6774194 Z M61.4303318,34.1290323 C61.4303318,36.8018433 63.7535545,38 65.8606635,38 C69.2464455,38 70.4530806,34.718894 70.4260664,34.718894 L70.4800948,34.718894 C70.4800948,34.718894 70.3810427,35.1981567 70.3810427,35.9170507 L70.3810427,37.6774194 L71.4796209,37.6774194 L71.4796209,29.0599078 C71.4796209,25.7235023 69.8587678,24.0184332 66.8601896,24.0184332 C64.0146919,24.0184332 62.456872,25.483871 62.456872,25.483871 L63.0781991,26.3963134 C63.0781991,26.3963134 64.5369668,25.1152074 66.8061611,25.1152074 C68.8952607,25.1152074 70.3810427,26.1290323 70.3810427,29.0967742 L70.3810427,29.5483871 L69.5165877,29.5483871 C67.1933649,29.5391705 61.4303318,29.59447 61.4303318,34.1290323 L61.4303318,34.1290323 Z M62.5739336,34.0460829 C62.5739336,30.5806452 67.3194313,30.5806452 69.5345972,30.5806452 L70.3720379,30.5806452 L70.3720379,31.2995392 C70.3720379,33.9447005 68.7511848,36.9585253 65.9146919,36.9585253 C63.6995261,36.9585253 62.5739336,35.4654378 62.5739336,34.0460829 L62.5739336,34.0460829 Z M75.3066351,37.6774194 L76.4052133,37.6774194 L76.4052133,31.1705069 C76.4052133,30.5253456 76.4592417,29.9170507 76.6123223,29.3548387 C77.2696682,26.875576 79.4308057,25.1152074 81.8800948,25.1152074 C84.7976303,25.1152074 85.085782,27.3087558 85.085782,29.6313364 L85.085782,37.6866359 L86.1843602,37.6866359 L86.1843602,29.2258065 C86.1843602,26.0737327 85.2748815,24.0184332 81.8800948,24.0184332 C78.6203791,24.0184332 76.7924171,26.5253456 76.3511848,27.7788018 L76.2971564,27.7788018 C76.2971564,27.7788018 76.4052133,27.2995392 76.4052133,26.6820276 L76.4052133,24.3317972 L75.3066351,24.3317972 L75.3066351,37.6774194 Z M89.2189573,31.0322581 C89.2189573,35.2718894 92.271564,38 95.9454976,38 C99.1781991,38 100.87109,35.9170507 100.87109,35.9170507 L100.294787,34.9861751 C100.294787,34.9861751 98.8090047,36.9032258 95.9364929,36.9032258 C92.8838863,36.9032258 90.3535545,34.5806452 90.3535545,31.0322581 C90.3535545,27.4285714 92.8838863,25.1059908 95.9364929,25.1059908 C98.4398104,25.1059908 99.9255924,26.8110599 99.9255924,26.8110599 L100.600948,25.9078341 C100.600948,25.9078341 99.0341232,24.0092166 95.9364929,24.0092166 C92.3255924,24.0184332 89.2189573,26.7926267 89.2189573,31.0322581 L89.2189573,31.0322581 Z M102.356872,31.0322581 C102.356872,35.2718894 105.409479,38 109.083412,38 C111.901896,38 113.720853,36.156682 113.720853,36.156682 L113.117536,35.2258065 C113.117536,35.2258065 111.577725,36.9032258 109.074408,36.9032258 C106.048815,36.9032258 103.491469,34.6912442 103.491469,30.8202765 L113.945972,30.8202765 C113.945972,30.8202765 114,30.3963134 114,30.1013825 C114,26.875576 112.226066,24.0184332 108.678199,24.0184332 C105.35545,24.0184332 102.356872,26.5253456 102.356872,31.0322581 L102.356872,31.0322581 Z M103.581517,29.7788018 C104.049763,26.6543779 106.264929,25.0599078 108.669194,25.0599078 C110.830332,25.0599078 112.739336,26.5253456 112.865403,29.7788018 L103.581517,29.7788018 Z" id="Shape" fill="#5C5958"></path>
                <polygon id="Path" fill="#A4A6A8" points="112.399113 0 104 6.84378947 105.596452 17.3393684 115.600887 21 124 14.1650526 122.394678 3.66063158"></polygon>
                <polygon id="Path" fill="#FFFFFF" points="129.602308 39 119.59787 35.3362832 118 24.840708 126.397692 18 136.40213 21.6548673 138 32.159292"></polygon>
                <path d="M130.188557,39 L130.070221,38.9547325 L119.684005,35.1613169 L118,24.1613169 L126.811443,17 L137.315995,20.8386831 L139,31.8386831 L130.188557,39 Z M120.102731,34.8353909 L130.106632,38.4930041 L138.517555,31.6576132 L136.915475,21.1736626 L126.902471,17.5160494 L118.491547,24.3514403 L120.102731,34.8353909 Z" id="Shape" fill="#A4A6A8"></path>
                <polygon id="Path" fill="#00A2CD" points="132 41.9144182 133.679929 52.4144182 143.679929 56 152 49.0855818 150.320071 38.5855818 140.320071 35"></polygon>
                <polygon id="Path" fill="#DADADB" points="110 45.0808793 111.818992 56.0763169 121.823451 60 130 52.9282455 128.172091 41.9236831 118.176549 38"></polygon>
            </g>
        </g>
    </g>
</svg>