<svg width="1448" height="1853" viewBox="0 0 1448 1853" xmlns="http://www.w3.org/2000/svg" xmlns:xlink="http://www.w3.org/1999/xlink"><defs><path d="M11.827-112h1454.427c72.775 0 131.771 58.996 131.771 131.771V1721.23c0 72.775-58.996 131.771-131.77 131.771H11.796c-72.776.002-131.772-58.994-131.772-131.77l.002-.001.027-1701.458c.004-72.775 58.999-131.77 131.774-131.772z" id="a"/><path d="M310.855 113.994v523.229c43.638-225.53 166.335-328.866 368.092-310.007C1017.06 358.82 932.092 81.942 1194.033 114.8c140.427 17.616 251.7-26.577 333.822-132.578H442.627c-72.776 0-131.772 58.996-131.772 131.771z" id="c"/></defs><g transform="translate(8)" fill="none" fill-rule="evenodd"><mask id="b" fill="#fff"><use xlink:href="#a"/></mask><use fill="#EA4C89" xlink:href="#a"/><path d="M-100.175 88.389l-33.387 617.72c79.554 186.052 234.817 261.078 465.79 225.08 346.46-53.998 302.325-357.394 756.274-387.6 302.634-20.137 481.279-219.019 535.936-596.647L30.016-36.263c-69.472.732-126.441 55.277-130.191 124.652z" fill="#2FB9EF" mask="url(#b)" transform="rotate(7 745.438 443.442)"/><g mask="url(#b)" transform="matrix(-1 0 0 1 1838.71 0)"><use fill="#FF3C38" xlink:href="#c"/><use fill="#FFC800" xlink:href="#c"/></g></g></svg>