<svg width="1440px" height="1400px" viewBox="0 0 1440 834" version="1.1" xmlns="http://www.w3.org/2000/svg" xmlns:xlink="http://www.w3.org/1999/xlink">
    <defs>
        <path d="M4,834 L1452,834 L1452,437 C1381.6329,518.913875 1300.00196,555.1347 1207.10718,545.662474 C990.053641,523.530121 750.4822,679.242171 660.673588,729.158949 C501.607273,817.570048 282.716077,821.939912 4,742.268541 L4,834 Z" id="path-1"></path>
        <path d="M0,442 L1448,442 L1448,0 C1377.6329,91.1988229 1296.00196,131.525283 1203.10718,120.97938 C986.053641,96.3383215 746.4822,269.700351 656.673588,325.275203 C497.607273,423.707711 278.716077,428.572899 0,339.870768 L0,442 Z" id="path-2"></path>
    </defs>
    <g id="Alice.si...kalokairi" stroke="none" stroke-width="1" fill="none" fill-rule="evenodd">
        <g id="Alice.si" transform="translate(0.000000, -2967.000000)">
            <g id="Section-4" transform="translate(-4.000000, 2967.000000)">
                <g id="Path-green" transform="translate(728.000000, 900.500000) scale(-1, 1) translate(-728.000000, -635.500000) ">
                    <use fill="#FFFFFF" xlink:href="#path-1"></use>
                    <use fill="#BED23F" xlink:href="#path-1"></use>
                </g>
                <g id="Path-blue" transform="translate(724.000000, -50.000000) scale(1, -1) translate(-724.000000, -221.000000) ">
                    <use fill="#FFFFFF" xlink:href="#path-2"></use>
                    <use fill="#2FB9EF" xlink:href="#path-2"></use>
                </g>
            </g>
        </g>
    </g>
</svg>