
<svg width="162px" height="64px" viewBox="0 0 162 64" version="1.1" xmlns="http://www.w3.org/2000/svg" xmlns:xlink="http://www.w3.org/1999/xlink">
    <g id="Alice.si...kalokairi" stroke="none" stroke-width="1" fill="none" fill-rule="evenodd">
        <g id="Alice.si" transform="translate(-312.000000, -3240.000000)" fill-rule="nonzero">
            <g id="Section-4" transform="translate(-4.000000, 2967.000000)">
                <g id="Resonance" transform="translate(316.000000, 273.000000)">
                    <path d="M0,40.6543779 L1.16603476,40.6543779 L1.16603476,34.4825543 C1.16603476,33.5444371 1.27116904,32.477946 1.57701422,31.4805793 C2.18870458,29.3673469 3.54589258,27.4812377 5.70592417,27.4812377 C6.01176935,27.4812377 6.34628752,27.5404872 6.34628752,27.5404872 L6.34628752,26.3258723 C6.34628752,26.3258723 5.95442338,26.236998 5.54344392,26.236998 C3.35473934,26.236998 1.8063981,28.044108 1.11824645,30.2462146 L1.05134281,30.2462146 C1.05134281,30.2462146 1.16603476,29.7327189 1.16603476,29.0710994 L1.16603476,26.355497 L0,26.355497 L0,40.6543779 Z M7.13957346,33.5345622 C7.13957346,38.0770244 10.3796209,41 14.2791469,41 C17.2706951,41 19.2013428,39.0250165 19.2013428,39.0250165 L18.5609795,38.0276498 C18.5609795,38.0276498 16.9266193,39.8248848 14.2695893,39.8248848 C11.0582148,39.8248848 8.34383886,37.4549045 8.34383886,33.3074391 L19.4402844,33.3074391 C19.4402844,33.3074391 19.4976303,32.8531929 19.4976303,32.5371955 C19.4976303,29.0809743 17.6147709,26.0197498 13.8490521,26.0197498 C10.3222749,26.0197498 7.13957346,28.7057275 7.13957346,33.5345622 L7.13957346,33.5345622 Z M8.43941548,32.1915734 C8.9364139,28.8439763 11.2875987,27.1356155 13.8394945,27.1356155 C16.1333333,27.1356155 18.1595577,28.7057275 18.2933649,32.1915734 L8.43941548,32.1915734 Z M21.6098736,38.9361422 C21.6098736,38.9361422 23.2729068,40.9901251 26.6180885,40.9901251 C29.1604265,40.9901251 31.0432859,39.4200132 31.0432859,37.1290323 C31.0432859,32.3791968 23.435387,33.4950625 23.435387,29.7820935 C23.435387,27.925609 24.9837283,27.1751152 26.5607425,27.1751152 C28.9119273,27.1751152 30.0492891,28.518104 30.0492891,28.518104 L30.7374408,27.5404872 C30.7374408,27.5404872 29.4662717,26 26.6372038,26 C24.286019,26 22.2120063,27.3133641 22.2120063,29.8610928 C22.2120063,34.522054 29.8199052,33.4950625 29.8199052,37.1191573 C29.8199052,38.8966425 28.32891,39.805135 26.6372038,39.805135 C23.8941548,39.805135 22.3458136,38.0078999 22.3458136,38.0078999 L21.6098736,38.9361422 Z M33.1077409,33.4259381 C33.1077409,37.6820276 36.3191153,41 40.2759874,41 C44.2328594,41 47.4442338,37.6820276 47.4442338,33.4259381 C47.4442338,29.2488479 44.2328594,26.0197498 40.2759874,26.0197498 C36.3191153,26.0197498 33.1077409,29.2488479 33.1077409,33.4259381 L33.1077409,33.4259381 Z M34.321564,33.4259381 C34.321564,29.8808427 36.978594,27.194865 40.2664297,27.194865 C43.5638231,27.194865 46.2208531,29.8808427 46.2208531,33.4259381 C46.2208531,37.0599078 43.5638231,39.8347597 40.2664297,39.8347597 C36.978594,39.8248848 34.321564,37.0500329 34.321564,33.4259381 L34.321564,33.4259381 Z M50.7416272,40.6543779 L51.9076619,40.6543779 L51.9076619,33.682686 C51.9076619,32.9914417 51.9650079,32.3396972 52.1274882,31.7373272 C52.8156398,29.0809743 55.1190363,27.194865 57.7187204,27.194865 C60.8154028,27.194865 61.121248,29.5450955 61.121248,32.0335747 L61.121248,40.6642528 L62.2872828,40.6642528 L62.2872828,31.5990783 C62.2872828,28.2218565 61.3219589,26.0197498 57.7187204,26.0197498 C54.2588468,26.0197498 52.3186414,28.7057275 51.850316,30.0487163 L51.79297,30.0487163 C51.79297,30.0487163 51.8981043,29.5352205 51.8981043,28.8736011 L51.8981043,26.355497 L50.7320695,26.355497 L50.7320695,40.6543779 L50.7416272,40.6543779 Z M65.2023697,36.8525346 C65.2023697,39.7162607 67.6682464,41 69.9047393,41 C73.4984202,41 74.7791469,37.4845293 74.7504739,37.4845293 L74.8078199,37.4845293 C74.8078199,37.4845293 74.7026856,37.998025 74.7026856,38.7682686 L74.7026856,40.6543779 L75.8687204,40.6543779 L75.8687204,31.4213298 C75.8687204,27.8466096 74.1483412,26.0197498 70.9656398,26.0197498 C67.9454186,26.0197498 66.2919431,27.5898618 66.2919431,27.5898618 L66.9514218,28.5674786 C66.9514218,28.5674786 68.499763,27.194865 70.9082938,27.194865 C73.1256714,27.194865 74.7026856,28.281106 74.7026856,31.4608295 L74.7026856,31.9447005 L73.7851501,31.9447005 C71.3192733,31.9348255 65.2023697,31.994075 65.2023697,36.8525346 L65.2023697,36.8525346 Z M66.4161927,36.7636603 C66.4161927,33.0506912 71.4530806,33.0506912 73.8042654,33.0506912 L74.693128,33.0506912 L74.693128,33.8209348 C74.693128,36.6550362 72.9727488,39.8841343 69.9620853,39.8841343 C67.6109005,39.8841343 66.4161927,38.2843976 66.4161927,36.7636603 L66.4161927,36.7636603 Z M79.9307267,40.6543779 L81.0967615,40.6543779 L81.0967615,33.682686 C81.0967615,32.9914417 81.1541074,32.3396972 81.3165877,31.7373272 C82.014297,29.0809743 84.3081359,27.194865 86.9078199,27.194865 C90.0045024,27.194865 90.3103476,29.5450955 90.3103476,32.0335747 L90.3103476,40.6642528 L91.4763823,40.6642528 L91.4763823,31.5990783 C91.4763823,28.2218565 90.5110585,26.0197498 86.9078199,26.0197498 C83.4479463,26.0197498 81.5077409,28.7057275 81.0394155,30.0487163 L80.9820695,30.0487163 C80.9820695,30.0487163 81.0967615,29.5352205 81.0967615,28.8736011 L81.0967615,26.355497 L79.9307267,26.355497 L79.9307267,40.6543779 Z M94.6973144,33.5345622 C94.6973144,38.0770244 97.9373618,41 101.836888,41 C105.268088,41 107.064929,38.7682686 107.064929,38.7682686 L106.453239,37.7709019 C106.453239,37.7709019 104.876224,39.8248848 101.82733,39.8248848 C98.5872828,39.8248848 95.9015798,37.3364055 95.9015798,33.5345622 C95.9015798,29.6734694 98.5872828,27.1849901 101.82733,27.1849901 C104.48436,27.1849901 106.061374,29.0118499 106.061374,29.0118499 L106.778199,28.044108 C106.778199,28.044108 105.115166,26.0098749 101.82733,26.0098749 C97.9947077,26.0197498 94.6973144,28.9921001 94.6973144,33.5345622 L94.6973144,33.5345622 Z M108.641943,33.5345622 C108.641943,38.0770244 111.881991,41 115.781517,41 C118.773065,41 120.703712,39.0250165 120.703712,39.0250165 L120.063349,38.0276498 C120.063349,38.0276498 118.428989,39.8248848 115.771959,39.8248848 C112.560585,39.8248848 109.846209,37.4549045 109.846209,33.3074391 L120.942654,33.3074391 C120.942654,33.3074391 121,32.8531929 121,32.5371955 C121,29.0809743 119.117141,26.0197498 115.351422,26.0197498 C111.824645,26.0197498 108.641943,28.7057275 108.641943,33.5345622 L108.641943,33.5345622 Z M109.941785,32.1915734 C110.438784,28.8439763 112.789968,27.1356155 115.341864,27.1356155 C117.635703,27.1356155 119.661927,28.7057275 119.795735,32.1915734 L109.941785,32.1915734 Z" id="Shape" fill="#5C5958"></path>
                    <polygon id="Path" fill="#A4A6A8" points="119.239024 0 110 7.49557895 111.756098 18.9907368 122.760976 23 132 15.5141053 130.234146 4.00926316"></polygon>
                    <polygon id="Path" fill="#FFFFFF" points="137.762539 42 126.757656 37.9873578 125 26.492204 134.237461 19 145.242344 23.0029499 147 34.507796"></polygon>
                    <path d="M137.768964,42 L137.644993,41.9526749 L126.764196,37.9868313 L125,26.4868313 L134.231036,19 L145.235804,23.0131687 L147,34.5131687 L137.768964,42 Z M127.202861,37.6460905 L137.683138,41.4699588 L146.494582,34.3238683 L144.816212,23.3633745 L134.326398,19.5395062 L125.514954,26.6855967 L127.202861,37.6460905 Z" id="Shape" fill="#A4A6A8"></path>
                    <polygon id="Path" fill="#00A2CD" points="140 44.5729342 141.847922 56.0729342 152.847922 60 162 52.4270658 160.152078 40.9270658 149.152078 37"></polygon>
                    <polygon id="Path" fill="#DADADB" points="116 48.4027375 118.000892 59.8979676 129.005796 64 138 56.6068022 135.9893 45.1020324 124.994204 41"></polygon>
                </g>
            </g>
        </g>
    </g>
</svg>